<?xml version="1.0" encoding="UTF-8"?>
<svg xmlns="http://www.w3.org/2000/svg" width="196.41" height="159.33" version="1.1" viewBox="0 0 196.41 159.33">
  <g isolation="isolate">
    <g id="fgb">
      <g id="rr">
        <rect y="9.33" width="196.41" height="150" rx="5" ry="5" fill="#0094c2" stroke-width="0"/>
      </g>
      <g id="tttt">
        <rect x="0" width="196.41" height="150" rx="5" ry="5" fill="#00a1d2" stroke-width="0"/>
      </g>
      <g id="efefce">
        <g id="nhn">
          <rect x="14.87" y="112.78" width="166.67" height="24.89" rx="3.28" ry="3.28" fill="#fff" stroke-width="0"/>
        </g>
        <g id="mtm">
          <polygon points="132.75 129.09 132.25 128.22 137.45 125.22 132.25 122.22 132.75 121.36 139.45 125.22 132.75 129.09" fill="#1558d6" stroke-width="0"/>
        </g>
        <g id="csdd">
          <g id="reg">
            <path d="M77.37,124.37c-.41.43-1.43,1.5-1.43,2.93,0,2.01,1.86,2.3,5.9,2.3,1.52,0,3.39-.08,4.9-.31l.07,1.93c-.53.07-1.54.22-4.23.22-4.03,0-5.31-.32-6.33-.7-1.48-.56-2.17-1.93-2.17-3.19,0-1.96,1.23-3.41,1.94-4.21l1.35,1.02ZM85.87,119.59c-2.29.39-3.67,1.06-5.65,2.27l-1.23-1.21c.55-.38.67-.44,1.77-.99-.72.02-5.51.12-6.07.15v-1.91c.54.03.75.05,1.74.05,1.33,0,7.95-.08,9.43-.08v1.72Z" fill="#1558d6" stroke-width="0"/>
            <path d="M97.08,117.19c-.02.55-.03,1.14-.12,2.13h8.48v1.69h-8.65c-.22,1.86-.43,2.52-.58,3.04,1.25-.77,2.85-1.13,4.32-1.13,3.68,0,4.71,2.61,4.71,4.3,0,2.85-2.51,3.75-2.9,3.89-1.38.46-2.71.63-5.85.65-1.04,0-1.38-.03-1.91-.05l-.36-1.76c.58.03,1.48.09,2.49.09,3.62,0,6.52-.41,6.52-2.99,0-1.52-1.14-2.39-2.88-2.39-1.62,0-3.5.53-4.59,1.77l-.22.6-1.88-.39c.7-1.77,1.02-3.87,1.23-5.63h-3.53v-1.69h3.68c.07-1.04.05-1.6.03-2.15l2.01.02Z" fill="#1558d6" stroke-width="0"/>
            <path d="M113.3,119.76c-.29,1.88-.43,2.71-.44,4.33,1.72-1.28,4.3-1.74,5.83-1.74,3.09,0,4.61,1.88,4.61,4.16,0,5.12-5.99,5.29-9.38,5.29-1.67,0-2.34-.09-2.76-.14l-.07-1.81c.6.05,2.17.21,3.62.21s4.61-.17,6-1.67c.53-.56.67-1.57.67-1.91,0-1.35-1.04-2.39-3.05-2.39-1.14,0-3.43.27-5.46,2.08-.02.19-.02.27-.02.46l-1.89-.05c0-4.01.12-5.29.44-7.03l1.91.21ZM120.94,120c-2.39-.72-4.88-1.02-7.37-1.14l.29-1.77c.84.03,4.44.17,7.46,1.04l-.38,1.88Z" fill="#1558d6" stroke-width="0"/>
          </g>
          <g id="e">
            <rect x="72.24" y="133.82" width="51.92" height=".75" fill="#1558d6" stroke-width="0"/>
          </g>
        </g>
      </g>
      <g id="tr">
        <g mix-blend-mode="multiply" opacity=".35">
          <path d="M27.04,56.54l4.22.04-.11,3.29h17.2v3.85h-17.31c0,1.07-.04,1.26-.04,3.22.81-.11,2.33-.37,4.62-.37,7.54,0,13.83,3.55,13.83,10.69,0,10.58-11.8,11.1-15.79,10.99l-.78-3.77c3.59-.04,5.21-.18,6.81-.63,5.21-1.44,5.77-5.18,5.77-6.62,0-2.92-1.63-5.4-5.84-6.66-3.07,10.06-9.99,15.65-15.09,15.65-4.03,0-6.36-2.88-6.36-6.92,0-5.29,3.55-9.17,8.88-11.28-.04-.92-.07-1.22-.07-1.78l.04-2.51h-8.06v-3.85h8.06l.04-3.33ZM27.26,71.74c-3,1.52-5.36,3.99-5.36,7.29,0,.7,0,3.4,2.92,3.4,1.81,0,3.07-.89,3.81-1.41-.74-2.55-1.11-5.81-1.37-9.28ZM35.84,70.11c-2.26-.07-3.51.07-4.7.3.04.74.26,4.62.78,7.4,1.78-2.22,3-4.88,3.92-7.69Z" fill="#3fa9f5" stroke-width="0"/>
          <path d="M76.52,87.98c-3.51-4.92-9.28-10.99-14.79-14.76l3.03-2.81c3.22,2.15,5.14,3.7,6.84,5.22,4.59-2.96,8.66-6.77,11.06-11.69h-26.41v-3.88h32.81c-.52,1.96-1.63,6.4-6.36,11.5-1.96,2.15-4.77,4.59-8.21,6.77,2.7,2.7,4.59,4.99,5.84,6.47l-3.81,3.18Z" fill="#3fa9f5" stroke-width="0"/>
          <path d="M93.86,75c1.26-.26,2-.41,5.44-1.41v-8.36h-5.18v-3.44h5.18v-6.66h3.74v6.66h3.88v3.44h-3.88v7.18c2.26-.78,2.92-1.07,4.07-1.55l.26,3.66c-1.11.52-2.29,1.11-4.33,1.89v9.62c0,3.85-2.77,3.85-3.7,3.85h-4.48l-.44-3.85h3.77c.78,0,1.11-.04,1.11-.85v-7.47c-2.37.74-3.62,1-4.92,1.22l-.52-3.92ZM108.17,55.14h3.81v4.18c1.92-.22,7.62-.81,13.57-3.74l1.85,3.26c-3.29,1.7-9.32,3.29-15.42,3.88v1.55c0,1.18.74,1.29,1.7,1.29h9.65c1.26,0,1.63,0,2-4.62l3.88,1.15c-.67,6.73-1.85,7.18-4.85,7.18h-11.8c-3.55,0-4.4-1.26-4.4-3.7v-10.43ZM127.51,72.04v17.83h-3.74v-1.18h-11.36v1.18h-3.66v-17.83h18.75ZM112.42,75.26v3.51h11.36v-3.51h-11.36ZM112.42,81.8v3.59h11.36v-3.59h-11.36Z" fill="#3fa9f5" stroke-width="0"/>
          <path d="M142.79,84.99c2.86-.12,8.72-.38,8.72-7.83,0-1.9-.65-6.27-6.32-6.63-.38,3.99-.79,8.29-2.62,11.72-.41.74-1.83,3.39-4.61,3.39-3.15,0-4.73-3.6-4.73-6.97,0-5.79,4.08-10.66,11.22-10.66,7.97,0,10.06,5.48,10.06,9.42,0,9.53-8.53,9.99-11.02,10.11l-.7-2.55ZM135.84,79.03c0,2.59,1.01,3.96,2.21,3.96,3.22,0,4.16-8.98,4.39-12.34-5.74,1.01-6.6,6.27-6.6,8.38Z" fill="#3fa9f5" stroke-width="0"/>
          <path d="M166.76,77.37c-.48,2.95-1.22,6.99-7.88,11.17l-1.54-2.33c5.52-3.12,7.21-6.51,7.25-14.53h-6.87v-2.45h9.94v-3.12h2.64v3.12h10.04v2.45h-13.16c-.02.84-.02,1.8-.14,3.34h10.88c-.07,2.26-.24,9.1-1.42,11.72-.6,1.32-1.3,1.8-3.1,1.8h-5.21l-.48-2.57h5.24c.43,0,1.06,0,1.49-1.3.1-.31.62-2.11.82-7.3h-8.5Z" fill="#3fa9f5" stroke-width="0"/>
        </g>
        <g>
          <path d="M27.04,58.04l4.22.04-.11,3.29h17.2v3.85h-17.31c0,1.07-.04,1.26-.04,3.22.81-.11,2.33-.37,4.62-.37,7.54,0,13.83,3.55,13.83,10.69,0,10.58-11.8,11.1-15.79,10.99l-.78-3.77c3.59-.04,5.21-.18,6.81-.63,5.21-1.44,5.77-5.18,5.77-6.62,0-2.92-1.63-5.4-5.84-6.66-3.07,10.06-9.99,15.65-15.09,15.65-4.03,0-6.36-2.88-6.36-6.92,0-5.29,3.55-9.17,8.88-11.28-.04-.92-.07-1.22-.07-1.78l.04-2.51h-8.06v-3.85h8.06l.04-3.33ZM27.26,73.24c-3,1.52-5.36,3.99-5.36,7.29,0,.7,0,3.4,2.92,3.4,1.81,0,3.07-.89,3.81-1.41-.74-2.55-1.11-5.81-1.37-9.28ZM35.84,71.61c-2.26-.07-3.51.07-4.7.3.04.74.26,4.62.78,7.4,1.78-2.22,3-4.88,3.92-7.69Z" fill="#fff" stroke-width="0"/>
          <path d="M76.52,89.48c-3.51-4.92-9.28-10.99-14.79-14.76l3.03-2.81c3.22,2.15,5.14,3.7,6.84,5.22,4.59-2.96,8.66-6.77,11.06-11.69h-26.41v-3.88h32.81c-.52,1.96-1.63,6.4-6.36,11.5-1.96,2.15-4.77,4.59-8.21,6.77,2.7,2.7,4.59,4.99,5.84,6.47l-3.81,3.18Z" fill="#fff" stroke-width="0"/>
          <path d="M93.86,76.5c1.26-.26,2-.41,5.44-1.41v-8.36h-5.18v-3.44h5.18v-6.66h3.74v6.66h3.88v3.44h-3.88v7.18c2.26-.78,2.92-1.07,4.07-1.55l.26,3.66c-1.11.52-2.29,1.11-4.33,1.89v9.62c0,3.85-2.77,3.85-3.7,3.85h-4.48l-.44-3.85h3.77c.78,0,1.11-.04,1.11-.85v-7.47c-2.37.74-3.62,1-4.92,1.22l-.52-3.92ZM108.17,56.64h3.81v4.18c1.92-.22,7.62-.81,13.57-3.74l1.85,3.26c-3.29,1.7-9.32,3.29-15.42,3.88v1.55c0,1.18.74,1.29,1.7,1.29h9.65c1.26,0,1.63,0,2-4.62l3.88,1.15c-.67,6.73-1.85,7.18-4.85,7.18h-11.8c-3.55,0-4.4-1.26-4.4-3.7v-10.43ZM127.51,73.54v17.83h-3.74v-1.18h-11.36v1.18h-3.66v-17.83h18.75ZM112.42,76.76v3.51h11.36v-3.51h-11.36ZM112.42,83.3v3.59h11.36v-3.59h-11.36Z" fill="#fff" stroke-width="0"/>
          <path d="M142.79,86.49c2.86-.12,8.72-.38,8.72-7.83,0-1.9-.65-6.27-6.32-6.63-.38,3.99-.79,8.29-2.62,11.72-.41.74-1.83,3.39-4.61,3.39-3.15,0-4.73-3.6-4.73-6.97,0-5.79,4.08-10.66,11.22-10.66,7.97,0,10.06,5.48,10.06,9.42,0,9.53-8.53,9.99-11.02,10.11l-.7-2.55ZM135.84,80.53c0,2.59,1.01,3.96,2.21,3.96,3.22,0,4.16-8.98,4.39-12.34-5.74,1.01-6.6,6.27-6.6,8.38Z" fill="#fff" stroke-width="0"/>
          <path d="M166.76,78.87c-.48,2.95-1.22,6.99-7.88,11.17l-1.54-2.33c5.52-3.12,7.21-6.51,7.25-14.53h-6.87v-2.45h9.94v-3.12h2.64v3.12h10.04v2.45h-13.16c-.02.84-.02,1.8-.14,3.34h10.88c-.07,2.26-.24,9.1-1.42,11.72-.6,1.32-1.3,1.8-3.1,1.8h-5.21l-.48-2.57h5.24c.43,0,1.06,0,1.49-1.3.1-.31.62-2.11.82-7.3h-8.5Z" fill="#fff" stroke-width="0"/>
        </g>
      </g>
      <g id="ww" opacity=".7">
        <path d="M116.89,34.38c-.06-.02-5.79-2.29-12.49-3.15-.05,0-.1,0-.15,0-.45-.52-.77-.98-.81-1.27-.48-3.25-3.08-5.17-3.95-5.73l.9-10.27c.02-.28-.18-.52-.46-.54-.27-.02-.52.18-.54.46l-.93,10.58c-.02.2.08.39.26.48.03.02,3.24,1.83,3.73,5.17.16,1.08,1.79,2.71,4.36,4.99.27.24.61.46.96.69.71.46,1.51.98,1.68,1.62.17.62-.03.86-.1.94-.22.25-.66.4-1.23.44-.06,0-.11,0-.17,0-.34,0-.65-.02-.93-.06-.92-.2-1.53-1.24-2.08-2.17-.53-.91-1.03-1.76-1.85-1.83-.91-.08-1.6.09-2.06.5-.49.43-.52.97-.52,1.03h.05c-.05.07-.08.15-.08.23l-.25,2.85c-.04.43-.42.76-.86.72l-.91-.08h-.06c-.88-.08-.54-.67-.57-1.28l.21-2.41c.02-.28-.18-.52-.46-.54-.28-.02-.52.18-.54.46l-.41,4.66c-.04.43-.45,1.04-.88,1l-.97-.08s-.09-.02-.14-.04c-.73-.18-.67-.98-.64-1.3l.39-4.47c.02-.28-.18-.52-.46-.54s-.52.18-.54.46l-.39,4.47c-.04.43-1.77.06-1.77.06-.04,0-.08-.01-.12-.02-.75-.18-.91-.78-.87-1.26,0-.03,0-.06,0-.09.2-.23.33-.52.36-.86l.18-2.08c.02-.28-.18-.52-.46-.54s-.52.18-.54.46l-.18,2.08c-.05.52-.89.5-1.12.48l-.21-.02c-.43-.04-.76-.42-.72-.86l.35-4.01s0-.03,0-.04c0-.56.01-1.12.03-1.68.02-.06.02-.13.01-.2,0-.01,0-.02,0-.03.08-3.05.31-5.98.99-6.88,1.12-1.48,1.28-1.78,1.23-2l.84-9.54c.02-.28-.18-.52-.46-.54-.28-.02-.52.18-.54.46l-.84,9.59c-.07.11-.29.47-1.02,1.44-.58.77-.92,2.99-1.12,5.29-.07.77-.1,1.37-.12,1.87-2.69.4-5.06,1.09-7.4,2.15-.25.11-.36.41-.25.66.08.19.27.29.46.29.07,0,.14-.01.21-.05,2.21-1,4.44-1.66,6.97-2.05,0,.58.04.9.04,1.2l-.35,3.99c-.09.99.64,1.86,1.63,1.94l.21.02c.21.02.69.03.88,0,.14.97.59,1.65,1.76,1.83.04,0,.08.01.12.02l.88.08h.08c.24.03.46,0,.68-.06.16.4.5.6.84.9.3.26.6.37.93.43.05,0,1.11.11,1.11.11.65.06,1.24-.24,1.6-.73.19-.26.34-.85.37-1.19l.02-.19c.19.13.41.21.66.23h.06s.91.08.91.08c.65.06,1.24-.24,1.6-.73.19-.26.31-.56.34-.9,0,0,.12-1.33.12-1.33l.11-1.27s0,0,0,0l.02-.25c0-.1-.01-.2-.06-.28h.09c0-.07.1-.69,1.49-.57.3.03.73.75,1.07,1.34.08.14.17.29.26.43-.09,0-.17.03-.25.08-.23.15-.29.47-.14.7.04.05.78,1.14,2.88,1.44.07.01.14.03.21.04.19.02.46.05.76.05.1,0,.2,0,.31,0,2.92-.07,3.59-1.98,3.62-2.06.09-.26-.05-.55-.32-.63-.26-.09-.55.05-.63.32,0,0-.07.18-.25.41,0-.2-.03-.43-.1-.69-.28-1-1.25-1.63-2.1-2.19-.33-.21-.63-.41-.85-.6-.49-.43-1.34-1.19-2.14-1.97,6.11.93,11.13,2.92,11.18,2.94.06.02.12.04.19.04.2,0,.39-.12.47-.32.1-.26-.02-.55-.28-.65Z" fill="#fff" stroke-width="0"/>
      </g>
    </g>
  </g>
</svg>