<?xml version="1.0" encoding="UTF-8"?>
<svg xmlns="http://www.w3.org/2000/svg" width="172.41" height="106.86" version="1.1" viewBox="0 0 172.41 106.86">
  <g isolation="isolate">
    <g id="fgb">
      <g id="vcrr">
        <rect y="8.19" width="172.41" height="98.67" rx="5.08" ry="5.08" fill="#0094c2" stroke-width="0"/>
      </g>
      <g id="qwd">
        <rect width="172.41" height="98.67" rx="5.08" ry="5.08" fill="#00a1d2" stroke-width="0"/>
      </g>
      <g id="gtre">
        <g id="_5rtg" data-name="5rtg">
          <rect x="13.05" y="66" width="146.3" height="21.85" rx="3.33" ry="3.33" fill="#fff" stroke-width="0"/>
        </g>
        <g id="vdf">
          <polygon points="116.53 80.31 116.1 79.56 120.67 76.92 116.1 74.28 116.53 73.53 122.39 76.92 116.53 80.31" fill="#1558d6" stroke-width="0"/>
        </g>
        <g id="_4r" data-name="4r">
          <g id="re">
            <path d="M67.93,76.17c-.36.37-1.26,1.32-1.26,2.58,0,1.77,1.63,2.02,5.18,2.02,1.33,0,2.98-.08,4.3-.27l.06,1.69c-.46.06-1.35.19-3.72.19-3.54,0-4.66-.28-5.56-.61-1.3-.49-1.9-1.69-1.9-2.8,0-1.72,1.08-3,1.71-3.7l1.18.9ZM75.39,71.97c-2.01.34-3.22.93-4.96,1.99l-1.08-1.06c.48-.33.58-.39,1.56-.87-.63.02-4.84.11-5.33.13v-1.68c.48.03.66.04,1.53.04,1.17,0,6.98-.07,8.29-.07v1.51Z" fill="#1558d6" stroke-width="0"/>
            <path d="M85.23,69.86c-.02.48-.03,1-.11,1.87h7.45v1.48h-7.6c-.2,1.63-.38,2.22-.51,2.67,1.09-.67,2.5-.99,3.79-.99,3.24,0,4.14,2.29,4.14,3.78,0,2.5-2.2,3.3-2.55,3.42-1.21.4-2.38.55-5.14.57-.91,0-1.21-.03-1.68-.05l-.31-1.54c.51.03,1.3.08,2.19.08,3.18,0,5.72-.36,5.72-2.62,0-1.33-1-2.1-2.53-2.1-1.42,0-3.07.46-4.03,1.56l-.2.52-1.65-.34c.62-1.56.9-3.4,1.08-4.95h-3.1v-1.48h3.24c.06-.91.04-1.41.03-1.89l1.77.02Z" fill="#1558d6" stroke-width="0"/>
            <path d="M99.46,72.12c-.25,1.65-.37,2.38-.39,3.81,1.51-1.12,3.78-1.53,5.12-1.53,2.71,0,4.05,1.65,4.05,3.66,0,4.5-5.26,4.65-8.24,4.65-1.47,0-2.05-.08-2.43-.12l-.06-1.59c.52.04,1.9.18,3.18.18s4.05-.15,5.27-1.47c.46-.49.58-1.38.58-1.68,0-1.18-.91-2.1-2.68-2.1-1,0-3.01.24-4.79,1.83-.01.16-.01.24-.01.4l-1.66-.04c0-3.52.1-4.64.39-6.17l1.68.18ZM106.17,72.33c-2.1-.63-4.29-.9-6.47-1l.25-1.56c.73.03,3.9.15,6.55.91l-.33,1.65Z" fill="#1558d6" stroke-width="0"/>
          </g>
          <g id="vfr">
            <rect x="63.42" y="84.47" width="45.58" height=".65" fill="#1558d6" stroke-width="0"/>
          </g>
        </g>
      </g>
      <g id="dw">
        <g mix-blend-mode="multiply" opacity=".35">
          <path d="M23.73,16.66l3.7.03-.1,2.89h15.09v3.38h-15.19c0,.94-.03,1.1-.03,2.82.71-.1,2.04-.33,4.06-.33,6.62,0,12.14,3.12,12.14,9.38,0,9.28-10.35,9.74-13.86,9.64l-.68-3.31c3.15-.03,4.58-.16,5.97-.55,4.58-1.27,5.06-4.54,5.06-5.81,0-2.56-1.43-4.74-5.13-5.84-2.69,8.83-8.76,13.73-13.24,13.73-3.54,0-5.58-2.53-5.58-6.07,0-4.64,3.12-8.05,7.79-9.9-.03-.81-.06-1.07-.06-1.56l.03-2.21h-7.08v-3.38h7.08l.03-2.92ZM23.93,30c-2.63,1.33-4.71,3.5-4.71,6.39,0,.62,0,2.99,2.56,2.99,1.59,0,2.69-.78,3.34-1.23-.65-2.24-.97-5.1-1.2-8.15ZM31.46,28.57c-1.98-.07-3.08.07-4.12.26.03.65.23,4.06.68,6.49,1.56-1.95,2.63-4.28,3.44-6.75Z" fill="#3fa9f5" stroke-width="0"/>
          <path d="M67.16,44.25c-3.08-4.32-8.15-9.64-12.98-12.95l2.66-2.47c2.82,1.88,4.51,3.25,6,4.58,4.02-2.6,7.59-5.94,9.7-10.26h-23.17v-3.41h28.79c-.45,1.72-1.43,5.61-5.58,10.09-1.72,1.88-4.19,4.02-7.21,5.94,2.37,2.37,4.02,4.38,5.13,5.68l-3.34,2.79Z" fill="#3fa9f5" stroke-width="0"/>
          <path d="M82.39,32.86c1.1-.23,1.75-.36,4.77-1.23v-7.33h-4.54v-3.02h4.54v-5.84h3.28v5.84h3.41v3.02h-3.41v6.3c1.98-.68,2.56-.94,3.57-1.36l.23,3.21c-.97.46-2.01.97-3.8,1.66v8.44c0,3.38-2.43,3.38-3.25,3.38h-3.93l-.39-3.38h3.31c.68,0,.97-.03.97-.75v-6.56c-2.08.65-3.18.88-4.32,1.07l-.46-3.44ZM94.95,15.43h3.34v3.67c1.69-.19,6.69-.71,11.91-3.28l1.62,2.86c-2.89,1.49-8.18,2.89-13.53,3.41v1.36c0,1.04.65,1.14,1.49,1.14h8.47c1.1,0,1.43,0,1.75-4.06l3.41,1.01c-.58,5.91-1.62,6.3-4.25,6.3h-10.35c-3.12,0-3.86-1.1-3.86-3.25v-9.15ZM111.93,30.26v15.64h-3.28v-1.04h-9.96v1.04h-3.21v-15.64h16.46ZM98.68,33.09v3.08h9.96v-3.08h-9.96ZM98.68,38.83v3.15h9.96v-3.15h-9.96Z" fill="#3fa9f5" stroke-width="0"/>
          <path d="M125.35,41.62c2.51-.11,7.65-.34,7.65-6.88,0-1.67-.57-5.5-5.55-5.82-.34,3.5-.7,7.28-2.3,10.29-.36.65-1.6,2.97-4.05,2.97-2.76,0-4.15-3.16-4.15-6.12,0-5.08,3.58-9.36,9.85-9.36,7,0,8.84,4.81,8.84,8.27,0,8.37-7.49,8.77-9.68,8.88l-.61-2.23ZM119.25,36.39c0,2.28.89,3.48,1.94,3.48,2.83,0,3.65-7.89,3.86-10.84-5.04.89-5.8,5.5-5.8,7.36Z" fill="#3fa9f5" stroke-width="0"/>
          <path d="M146.39,34.94c-.42,2.59-1.08,6.14-6.92,9.81l-1.35-2.05c4.85-2.74,6.33-5.71,6.37-12.76h-6.03v-2.15h8.73v-2.74h2.32v2.74h8.81v2.15h-11.56c-.02.74-.02,1.58-.13,2.93h9.55c-.06,1.98-.21,7.99-1.24,10.29-.53,1.16-1.14,1.58-2.72,1.58h-4.58l-.42-2.26h4.6c.38,0,.93,0,1.31-1.14.08-.27.55-1.86.72-6.41h-7.46Z" fill="#3fa9f5" stroke-width="0"/>
        </g>
        <g>
          <path d="M23.73,17.96l3.7.03-.1,2.89h15.09v3.38h-15.19c0,.94-.03,1.1-.03,2.82.71-.1,2.04-.33,4.06-.33,6.62,0,12.14,3.12,12.14,9.38,0,9.28-10.35,9.74-13.86,9.64l-.68-3.31c3.15-.03,4.58-.16,5.97-.55,4.58-1.27,5.06-4.54,5.06-5.81,0-2.56-1.43-4.74-5.13-5.84-2.69,8.83-8.76,13.73-13.24,13.73-3.54,0-5.58-2.53-5.58-6.07,0-4.64,3.12-8.05,7.79-9.9-.03-.81-.06-1.07-.06-1.56l.03-2.21h-7.08v-3.38h7.08l.03-2.92ZM23.93,31.3c-2.63,1.33-4.71,3.5-4.71,6.39,0,.62,0,2.99,2.56,2.99,1.59,0,2.69-.78,3.34-1.23-.65-2.24-.97-5.1-1.2-8.15ZM31.46,29.87c-1.98-.07-3.08.07-4.12.26.03.65.23,4.06.68,6.49,1.56-1.95,2.63-4.28,3.44-6.75Z" fill="#fff" stroke-width="0"/>
          <path d="M67.16,45.55c-3.08-4.32-8.15-9.64-12.98-12.95l2.66-2.47c2.82,1.88,4.51,3.25,6,4.58,4.02-2.6,7.59-5.94,9.7-10.26h-23.17v-3.41h28.79c-.45,1.72-1.43,5.61-5.58,10.09-1.72,1.88-4.19,4.02-7.21,5.94,2.37,2.37,4.02,4.38,5.13,5.68l-3.34,2.79Z" fill="#fff" stroke-width="0"/>
          <path d="M82.39,34.15c1.1-.23,1.75-.36,4.77-1.23v-7.33h-4.54v-3.02h4.54v-5.84h3.28v5.84h3.41v3.02h-3.41v6.3c1.98-.68,2.56-.94,3.57-1.36l.23,3.21c-.97.46-2.01.97-3.8,1.66v8.44c0,3.38-2.43,3.38-3.25,3.38h-3.93l-.39-3.38h3.31c.68,0,.97-.03.97-.75v-6.56c-2.08.65-3.18.88-4.32,1.07l-.46-3.44ZM94.95,16.72h3.34v3.67c1.69-.19,6.69-.71,11.91-3.28l1.62,2.86c-2.89,1.49-8.18,2.89-13.53,3.41v1.36c0,1.04.65,1.14,1.49,1.14h8.47c1.1,0,1.43,0,1.75-4.06l3.41,1.01c-.58,5.91-1.62,6.3-4.25,6.3h-10.35c-3.12,0-3.86-1.1-3.86-3.25v-9.15ZM111.93,31.56v15.64h-3.28v-1.04h-9.96v1.04h-3.21v-15.64h16.46ZM98.68,34.38v3.08h9.96v-3.08h-9.96ZM98.68,40.12v3.15h9.96v-3.15h-9.96Z" fill="#fff" stroke-width="0"/>
          <path d="M125.35,42.92c2.51-.11,7.65-.34,7.65-6.88,0-1.67-.57-5.5-5.55-5.82-.34,3.5-.7,7.28-2.3,10.29-.36.65-1.6,2.97-4.05,2.97-2.76,0-4.15-3.16-4.15-6.12,0-5.08,3.58-9.36,9.85-9.36,7,0,8.84,4.81,8.84,8.27,0,8.37-7.49,8.77-9.68,8.88l-.61-2.23ZM119.25,37.69c0,2.28.89,3.48,1.94,3.48,2.83,0,3.65-7.89,3.86-10.84-5.04.89-5.8,5.5-5.8,7.36Z" fill="#fff" stroke-width="0"/>
          <path d="M146.39,36.23c-.42,2.59-1.08,6.14-6.92,9.81l-1.35-2.05c4.85-2.74,6.33-5.71,6.37-12.76h-6.03v-2.15h8.73v-2.74h2.32v2.74h8.81v2.15h-11.56c-.02.74-.02,1.58-.13,2.93h9.55c-.06,1.98-.21,7.99-1.24,10.29-.53,1.16-1.14,1.58-2.72,1.58h-4.58l-.42-2.26h4.6c.38,0,.93,0,1.31-1.14.08-.27.55-1.86.72-6.41h-7.46Z" fill="#fff" stroke-width="0"/>
        </g>
      </g>
    </g>
  </g>
</svg>