<svg width="9" height="5" viewBox="0 0 9 5" fill="none" xmlns="http://www.w3.org/2000/svg">
<path d="M0.182716 0.190518C0.299744 0.0735252 0.458447 0.00780215 0.623925 0.00780215C0.789403 0.00780215 0.948106 0.0735252 1.06513 0.190518L4.36827 3.49366L7.67141 0.190518C7.72898 0.130914 7.79784 0.0833716 7.87398 0.0506653C7.95012 0.017959 8.03201 0.00074361 8.11487 2.35618e-05C8.19773 -0.000696487 8.27991 0.0150937 8.3566 0.0464719C8.43329 0.0778501 8.50297 0.124188 8.56157 0.182783C8.62016 0.241377 8.6665 0.311054 8.69788 0.387749C8.72926 0.464443 8.74505 0.546619 8.74433 0.629481C8.74361 0.712343 8.72639 0.794232 8.69368 0.870369C8.66098 0.946507 8.61344 1.01537 8.55383 1.07294L4.80948 4.81728C4.69245 4.93428 4.53375 5 4.36827 5C4.2028 5 4.04409 4.93428 3.92706 4.81728L0.182716 1.07294C0.065723 0.955908 0 0.797205 0 0.631727C0 0.466249 0.065723 0.307546 0.182716 0.190518Z" fill="white"/>
</svg>
