<?xml version="1.0" encoding="UTF-8"?>
<svg xmlns="http://www.w3.org/2000/svg" width="196.41" height="159.33" version="1.1" viewBox="0 0 196.41 159.33">
  <g isolation="isolate">
    <g id="fgb">
      <g id="gg">
        <rect y="9.33" width="196.41" height="150" rx="5" ry="5" fill="#78ac04" stroke-width="0"/>
      </g>
      <g id="tt">
        <rect x="0" width="196.41" height="150" rx="5" ry="5" fill="#84bc04" stroke-width="0"/>
      </g>
      <g id="tgh">
        <g mix-blend-mode="multiply" opacity=".35">
          <path d="M28,87.54c-.96.19-6.07,1.04-10.84,1.52l-.48-3.55c1.18-.04,2.22-.11,5.47-.48v-10.39h-5.47v-3.33h5.47v-3.25h-3.11v-2.44c-.63.63-.85.81-1.44,1.33l-1.29-3.77c2.48-2.07,4.51-4.88,5.55-7.99h4.11c1.29,3.18,3.66,5.36,4.22,5.88v-1.15h12.24c-.04-1.59-.04-3.07-.04-4.73h3.29c0,.11.07,4.29.11,4.73h5.25v3.25h-5.21c.15,5.33.15,6.51.63,11.28,1.18-3.51,1.52-6.21,1.74-8.1l2.85.59c-.37,4.73-1.48,9.43-3.77,13.57.19.89.67,3.62,1.18,3.62.44,0,.85-1.66,1.18-2.88l2.29,2.85c-.74,3.7-1.63,5.58-3.33,5.58-2.26,0-3.48-4.11-3.81-5.36-2.44,3-4.62,4.44-5.92,5.33l-2.37-3.03c1.11-.67,2.37-1.41,4.03-3h-5.96v-12.43h7.51v10.87c.44-.48.92-1.04,1.7-2.18-.7-4.25-1.22-12.72-1.29-16.72h-9.02v12.21c0,1.26-.22,9.17-2.81,14.28l-2.66-2.11ZM19.86,76.51c.3,1.11.89,4.22,1.04,6.55l-3.14.55c0-2.18-.48-5.4-.74-6.66l2.85-.44ZM30.18,61.68l-1.96,2.44c-2.37-2.04-3.74-4.81-4.18-5.7-.96,2.22-2.29,4.11-4.11,6.18h8.77v3.44h-3.22v3.25h3.81v3.33h-3.81v9.91c.55-.07,2.88-.44,3.37-.52.44-1.52,1.33-4.88,1.33-8.36v-13.98ZM29.07,76.29c-.04.85-.37,4.37-.7,6.07l-2.26-.18c.3-1.74.48-4.77.48-6.18l2.48.29ZM34.58,65.75h7.51v3.07h-7.51v-3.07ZM37.24,74v6.84h2.18v-6.84h-2.18ZM48.82,54.65c.48.55,1.48,1.63,2.51,3.85l-2.55,1.33c-.52-1.18-1.44-2.74-2.26-3.81l2.29-1.37Z" fill="#3fa9f5" stroke-width="0"/>
          <path d="M55.1,86.06c13.8-2.29,15.61-9.84,15.31-16.13h3.66c-.22,8.51,5.29,14.35,16.16,15.87l-1.52,3.85c-7.95-1.29-14.39-6.07-16.2-11.5-1.81,6.73-9.28,10.36-15.87,11.76l-1.55-3.85ZM66.2,60.28c-3.85,2.33-6.69,3.33-8.77,3.99l-2.18-3.33c5.18-1.33,8.43-2.88,12.13-6.18l4.33,1.04c-.55.7-.74.85-1.04,1.18h11.73v3.29c-.52.89-1.44,2.51-4.48,4.77,4.14,2.66,7.14,3.7,12.24,4.4l-1.55,3.74c-5.44-1-11.1-3.74-13.98-6.03-7.73,4.4-15.68,5.4-18.12,5.73l-1.33-3.62c7.06-.78,16.83-3.07,22.38-8.99h-11.36ZM61.65,73.22c1.55,2.66,2.29,4.44,3.22,7.54l-3.77,1.41c-.33-1.22-.81-3.14-2.92-7.69l3.48-1.26ZM87.8,74.37c-.89,2.03-2.96,5.4-4.4,7.32l-3.18-1.92c1.48-1.89,2.44-3.55,3.85-6.84l3.74,1.44Z" fill="#3fa9f5" stroke-width="0"/>
          <path d="M95.04,58.61h3.11c.3-.7.7-1.74,1.15-3.7l4.25.22c-.33,1.15-.78,2.44-1.26,3.48h5.18v11.91h-8.84v3.77h9.28v12.76h-9.28v2.44h-3.59v-30.88ZM98.63,62.05v5.44h5.51v-5.44h-5.51ZM98.63,77.55v6.21h5.96v-6.21h-5.96ZM110.28,86.24v-21.71h6.84v-4.48h-8.14v-3.59h19.9v3.59h-8.17v4.48h6.92v19.23c0,.85,0,2.48-2,2.48h-3.59l-.52-3.85h2.11c.44,0,.44-.37.44-.67v-13.54h-3.37v21.64h-3.59v-21.64h-3.22v18.05h-3.62Z" fill="#3fa9f5" stroke-width="0"/>
          <path d="M142.79,84.99c2.86-.12,8.72-.38,8.72-7.83,0-1.9-.65-6.27-6.32-6.63-.38,3.99-.79,8.29-2.62,11.72-.41.74-1.83,3.39-4.61,3.39-3.15,0-4.73-3.6-4.73-6.97,0-5.79,4.08-10.66,11.22-10.66,7.97,0,10.06,5.48,10.06,9.42,0,9.53-8.53,9.99-11.02,10.11l-.7-2.55ZM135.84,79.03c0,2.59,1.01,3.96,2.21,3.96,3.22,0,4.16-8.98,4.39-12.34-5.74,1.01-6.6,6.27-6.6,8.38Z" fill="#3fa9f5" stroke-width="0"/>
          <path d="M166.76,77.37c-.48,2.95-1.22,6.99-7.88,11.17l-1.54-2.33c5.52-3.12,7.21-6.51,7.25-14.53h-6.87v-2.45h9.94v-3.12h2.64v3.12h10.04v2.45h-13.16c-.02.84-.02,1.8-.14,3.34h10.88c-.07,2.26-.24,9.1-1.42,11.72-.6,1.32-1.3,1.8-3.1,1.8h-5.21l-.48-2.57h5.24c.43,0,1.06,0,1.49-1.3.1-.31.62-2.11.82-7.3h-8.5Z" fill="#3fa9f5" stroke-width="0"/>
        </g>
        <g>
          <path d="M28,89.04c-.96.19-6.07,1.04-10.84,1.52l-.48-3.55c1.18-.04,2.22-.11,5.47-.48v-10.39h-5.47v-3.33h5.47v-3.25h-3.11v-2.44c-.63.63-.85.81-1.44,1.33l-1.29-3.77c2.48-2.07,4.51-4.88,5.55-7.99h4.11c1.29,3.18,3.66,5.36,4.22,5.88v-1.15h12.24c-.04-1.59-.04-3.07-.04-4.73h3.29c0,.11.07,4.29.11,4.73h5.25v3.25h-5.21c.15,5.33.15,6.51.63,11.28,1.18-3.51,1.52-6.21,1.74-8.1l2.85.59c-.37,4.73-1.48,9.43-3.77,13.57.19.89.67,3.62,1.18,3.62.44,0,.85-1.66,1.18-2.88l2.29,2.85c-.74,3.7-1.63,5.58-3.33,5.58-2.26,0-3.48-4.11-3.81-5.36-2.44,3-4.62,4.44-5.92,5.33l-2.37-3.03c1.11-.67,2.37-1.41,4.03-3h-5.96v-12.43h7.51v10.87c.44-.48.92-1.04,1.7-2.18-.7-4.25-1.22-12.72-1.29-16.72h-9.02v12.21c0,1.26-.22,9.17-2.81,14.28l-2.66-2.11ZM19.86,78.01c.3,1.11.89,4.22,1.04,6.55l-3.14.55c0-2.18-.48-5.4-.74-6.66l2.85-.44ZM30.18,63.18l-1.96,2.44c-2.37-2.04-3.74-4.81-4.18-5.7-.96,2.22-2.29,4.11-4.11,6.18h8.77v3.44h-3.22v3.25h3.81v3.33h-3.81v9.91c.55-.07,2.88-.44,3.37-.52.44-1.52,1.33-4.88,1.33-8.36v-13.98ZM29.07,77.79c-.04.85-.37,4.37-.7,6.07l-2.26-.18c.3-1.74.48-4.77.48-6.18l2.48.29ZM34.58,67.25h7.51v3.07h-7.51v-3.07ZM37.24,75.5v6.84h2.18v-6.84h-2.18ZM48.82,56.15c.48.55,1.48,1.63,2.51,3.85l-2.55,1.33c-.52-1.18-1.44-2.74-2.26-3.81l2.29-1.37Z" fill="#fff" stroke-width="0"/>
          <path d="M55.1,87.56c13.8-2.29,15.61-9.84,15.31-16.13h3.66c-.22,8.51,5.29,14.35,16.16,15.87l-1.52,3.85c-7.95-1.29-14.39-6.07-16.2-11.5-1.81,6.73-9.28,10.36-15.87,11.76l-1.55-3.85ZM66.2,61.78c-3.85,2.33-6.69,3.33-8.77,3.99l-2.18-3.33c5.18-1.33,8.43-2.88,12.13-6.18l4.33,1.04c-.55.7-.74.85-1.04,1.18h11.73v3.29c-.52.89-1.44,2.51-4.48,4.77,4.14,2.66,7.14,3.7,12.24,4.4l-1.55,3.74c-5.44-1-11.1-3.74-13.98-6.03-7.73,4.4-15.68,5.4-18.12,5.73l-1.33-3.62c7.06-.78,16.83-3.07,22.38-8.99h-11.36ZM61.65,74.72c1.55,2.66,2.29,4.44,3.22,7.54l-3.77,1.41c-.33-1.22-.81-3.14-2.92-7.69l3.48-1.26ZM87.8,75.87c-.89,2.03-2.96,5.4-4.4,7.32l-3.18-1.92c1.48-1.89,2.44-3.55,3.85-6.84l3.74,1.44Z" fill="#fff" stroke-width="0"/>
          <path d="M95.04,60.11h3.11c.3-.7.7-1.74,1.15-3.7l4.25.22c-.33,1.15-.78,2.44-1.26,3.48h5.18v11.91h-8.84v3.77h9.28v12.76h-9.28v2.44h-3.59v-30.88ZM98.63,63.55v5.44h5.51v-5.44h-5.51ZM98.63,79.05v6.21h5.96v-6.21h-5.96ZM110.28,87.74v-21.71h6.84v-4.48h-8.14v-3.59h19.9v3.59h-8.17v4.48h6.92v19.23c0,.85,0,2.48-2,2.48h-3.59l-.52-3.85h2.11c.44,0,.44-.37.44-.67v-13.54h-3.37v21.64h-3.59v-21.64h-3.22v18.05h-3.62Z" fill="#fff" stroke-width="0"/>
          <path d="M142.79,86.49c2.86-.12,8.72-.38,8.72-7.83,0-1.9-.65-6.27-6.32-6.63-.38,3.99-.79,8.29-2.62,11.72-.41.74-1.83,3.39-4.61,3.39-3.15,0-4.73-3.6-4.73-6.97,0-5.79,4.08-10.66,11.22-10.66,7.97,0,10.06,5.48,10.06,9.42,0,9.53-8.53,9.99-11.02,10.11l-.7-2.55ZM135.84,80.53c0,2.59,1.01,3.96,2.21,3.96,3.22,0,4.16-8.98,4.39-12.34-5.74,1.01-6.6,6.27-6.6,8.38Z" fill="#fff" stroke-width="0"/>
          <path d="M166.76,78.87c-.48,2.95-1.22,6.99-7.88,11.17l-1.54-2.33c5.52-3.12,7.21-6.51,7.25-14.53h-6.87v-2.45h9.94v-3.12h2.64v3.12h10.04v2.45h-13.16c-.02.84-.02,1.8-.14,3.34h10.88c-.07,2.26-.24,9.1-1.42,11.72-.6,1.32-1.3,1.8-3.1,1.8h-5.21l-.48-2.57h5.24c.43,0,1.06,0,1.49-1.3.1-.31.62-2.11.82-7.3h-8.5Z" fill="#fff" stroke-width="0"/>
        </g>
      </g>
      <g id="ny">
        <g id="jj">
          <rect x="14.87" y="112.78" width="166.67" height="24.89" rx="3.28" ry="3.28" fill="#fff" stroke-width="0"/>
        </g>
        <g id="ff">
          <polygon points="132.75 129.09 132.25 128.22 137.45 125.22 132.25 122.22 132.75 121.36 139.45 125.22 132.75 129.09" fill="#1558d6" stroke-width="0"/>
        </g>
        <g id="ht">
          <g id="rew">
            <path d="M77.38,124.37c-.41.43-1.43,1.5-1.43,2.93,0,2.01,1.86,2.3,5.9,2.3,1.52,0,3.39-.08,4.9-.31l.07,1.93c-.53.07-1.54.22-4.23.22-4.03,0-5.31-.32-6.33-.7-1.48-.56-2.17-1.93-2.17-3.19,0-1.96,1.23-3.41,1.94-4.21l1.35,1.02ZM85.87,119.59c-2.29.39-3.67,1.06-5.65,2.27l-1.23-1.21c.55-.38.67-.44,1.77-.99-.72.02-5.51.12-6.07.15v-1.91c.54.03.75.05,1.74.05,1.33,0,7.95-.08,9.43-.08v1.72Z" fill="#1558d6" stroke-width="0"/>
            <path d="M97.09,117.19c-.02.55-.03,1.14-.12,2.13h8.48v1.69h-8.65c-.22,1.86-.43,2.52-.58,3.04,1.25-.77,2.85-1.13,4.32-1.13,3.68,0,4.71,2.61,4.71,4.3,0,2.85-2.51,3.75-2.9,3.89-1.38.46-2.71.63-5.85.65-1.04,0-1.38-.03-1.91-.05l-.36-1.76c.58.03,1.48.09,2.49.09,3.62,0,6.52-.41,6.52-2.99,0-1.52-1.14-2.39-2.88-2.39-1.62,0-3.5.53-4.59,1.77l-.22.6-1.88-.39c.7-1.77,1.02-3.87,1.23-5.63h-3.53v-1.69h3.68c.07-1.04.05-1.6.03-2.15l2.01.02Z" fill="#1558d6" stroke-width="0"/>
            <path d="M113.3,119.76c-.29,1.88-.43,2.71-.44,4.33,1.72-1.28,4.3-1.74,5.83-1.74,3.09,0,4.61,1.88,4.61,4.16,0,5.12-5.99,5.29-9.38,5.29-1.67,0-2.34-.09-2.76-.14l-.07-1.81c.6.05,2.17.21,3.62.21s4.61-.17,6-1.67c.53-.56.67-1.57.67-1.91,0-1.35-1.04-2.39-3.05-2.39-1.14,0-3.43.27-5.46,2.08-.02.19-.02.27-.02.46l-1.89-.05c0-4.01.12-5.29.44-7.03l1.91.21ZM120.94,120c-2.39-.72-4.88-1.02-7.37-1.14l.29-1.77c.84.03,4.44.17,7.46,1.04l-.38,1.88Z" fill="#1558d6" stroke-width="0"/>
          </g>
          <g id="v">
            <rect x="72.24" y="133.82" width="51.92" height=".75" fill="#1558d6" stroke-width="0"/>
          </g>
        </g>
      </g>
      <g id="gvrr" opacity=".7">
        <path d="M115.66,41.07c-.07-.14-1.18-2.23-5.31-3.83l1.04-8.97c.64-.08,1.16-.58,1.24-1.25l1.18-10.16c.09-.78-.47-1.49-1.25-1.58l-.5-.06c-.78-.09-1.49.47-1.58,1.25l-1.18,10.16c-.08.66.32,1.28.92,1.5l-1.01,8.7c-1.61-.52-3.6-.96-6.06-1.21l1.03-8.86c.64-.08,1.16-.58,1.24-1.25l1.18-10.16c.09-.78-.47-1.49-1.25-1.58l-.5-.06c-.78-.09-1.49.47-1.58,1.25l-1.18,10.16c-.08.66.32,1.28.92,1.5l-1.03,8.89c-1.16-.09-2.42-.14-3.78-.14-.4,0-.79,0-1.17.01v-8.69c.62-.15,1.09-.71,1.09-1.38v-10.22c0-.78-.64-1.42-1.42-1.42h-.5c-.78,0-1.42.64-1.42,1.42v10.22c0,.67.47,1.23,1.09,1.38v8.72c-12.41.55-15,5.42-15.11,5.64-.14.29-.03.64.26.79.29.14.64.03.79-.26.03-.05,2.68-5.04,16.4-5.04s16.38,4.99,16.4,5.04c.1.21.31.32.53.32.09,0,.18-.02.26-.06.29-.14.41-.5.26-.79Z" fill="#fff" stroke-width="0"/>
      </g>
    </g>
  </g>
</svg>