<?xml version="1.0" encoding="UTF-8"?>
<svg xmlns="http://www.w3.org/2000/svg" width="172.41" height="106.86" version="1.1" viewBox="0 0 172.41 106.86">
  <g isolation="isolate">
    <g id="fgb">
      <g id="_3rf" data-name="3rf">
        <rect y="8.19" width="172.41" height="98.67" rx="5.08" ry="5.08" fill="#78ac04" stroke-width="0"/>
      </g>
      <g id="_2ed" data-name="2ed">
        <rect width="172.41" height="98.67" rx="5.08" ry="5.08" fill="#84bc04" stroke-width="0"/>
      </g>
      <g id="wed">
        <g mix-blend-mode="multiply" opacity=".35">
          <path d="M24.58,43.86c-.84.16-5.32.91-9.51,1.33l-.42-3.12c1.04-.03,1.95-.1,4.8-.42v-9.12h-4.8v-2.92h4.8v-2.86h-2.73v-2.14c-.55.55-.75.71-1.27,1.17l-1.14-3.31c2.17-1.82,3.96-4.28,4.87-7.01h3.6c1.14,2.79,3.21,4.71,3.7,5.16v-1.01h10.74c-.03-1.39-.03-2.69-.03-4.15h2.89c0,.1.07,3.77.1,4.15h4.61v2.86h-4.58c.13,4.67.13,5.71.55,9.9,1.04-3.08,1.33-5.45,1.53-7.11l2.5.52c-.32,4.15-1.3,8.28-3.31,11.91.16.78.58,3.18,1.04,3.18.39,0,.75-1.46,1.04-2.53l2.01,2.5c-.65,3.25-1.43,4.9-2.92,4.9-1.98,0-3.05-3.6-3.34-4.71-2.14,2.63-4.06,3.9-5.19,4.67l-2.08-2.66c.97-.58,2.08-1.23,3.54-2.63h-5.23v-10.91h6.59v9.54c.39-.42.81-.91,1.49-1.92-.62-3.73-1.07-11.17-1.14-14.67h-7.92v10.71c0,1.1-.2,8.05-2.47,12.53l-2.34-1.85ZM17.44,34.19c.26.97.78,3.7.91,5.75l-2.76.49c0-1.92-.42-4.74-.65-5.84l2.5-.39ZM26.49,21.17l-1.72,2.14c-2.08-1.78-3.28-4.22-3.67-5-.84,1.95-2.01,3.6-3.6,5.42h7.69v3.02h-2.82v2.86h3.34v2.92h-3.34v8.7c.49-.06,2.53-.39,2.95-.45.39-1.33,1.17-4.29,1.17-7.34v-12.27ZM25.52,33.99c-.03.75-.32,3.83-.62,5.32l-1.98-.16c.26-1.53.42-4.19.42-5.42l2.17.26ZM30.35,24.74h6.59v2.69h-6.59v-2.69ZM32.69,31.98v6h1.92v-6h-1.92ZM42.85,15.01c.42.49,1.3,1.43,2.21,3.38l-2.24,1.17c-.45-1.04-1.27-2.4-1.98-3.34l2.01-1.2Z" fill="#3fa9f5" stroke-width="0"/>
          <path d="M48.37,42.56c12.11-2.01,13.7-8.63,13.44-14.15h3.21c-.19,7.46,4.64,12.59,14.18,13.92l-1.33,3.38c-6.98-1.14-12.62-5.32-14.22-10.09-1.59,5.91-8.15,9.09-13.92,10.32l-1.36-3.38ZM58.11,19.94c-3.38,2.04-5.87,2.92-7.69,3.5l-1.92-2.92c4.54-1.17,7.4-2.53,10.65-5.42l3.8.91c-.49.62-.65.75-.91,1.04h10.29v2.89c-.45.78-1.27,2.21-3.93,4.19,3.64,2.34,6.26,3.25,10.74,3.86l-1.36,3.28c-4.77-.88-9.74-3.28-12.27-5.29-6.78,3.86-13.76,4.74-15.9,5.03l-1.17-3.18c6.2-.68,14.77-2.69,19.64-7.89h-9.96ZM54.12,31.3c1.36,2.34,2.01,3.89,2.82,6.62l-3.31,1.23c-.29-1.07-.71-2.76-2.56-6.75l3.05-1.1ZM77.06,32.31c-.78,1.79-2.6,4.74-3.86,6.43l-2.79-1.69c1.3-1.66,2.14-3.12,3.38-6l3.28,1.27Z" fill="#3fa9f5" stroke-width="0"/>
          <path d="M83.43,18.48h2.73c.26-.62.62-1.53,1.01-3.25l3.73.19c-.29,1.01-.68,2.14-1.1,3.05h4.54v10.45h-7.76v3.31h8.15v11.2h-8.15v2.14h-3.15v-27.1ZM86.58,21.5v4.77h4.84v-4.77h-4.84ZM86.58,35.1v5.45h5.22v-5.45h-5.22ZM96.8,42.73v-19.05h6v-3.93h-7.14v-3.15h17.46v3.15h-7.17v3.93h6.07v16.88c0,.75,0,2.18-1.75,2.18h-3.15l-.45-3.38h1.85c.39,0,.39-.33.39-.58v-11.88h-2.95v18.99h-3.15v-18.99h-2.82v15.84h-3.18Z" fill="#3fa9f5" stroke-width="0"/>
          <path d="M125.35,41.62c2.51-.11,7.65-.34,7.65-6.88,0-1.67-.57-5.5-5.55-5.82-.34,3.5-.7,7.28-2.3,10.29-.36.65-1.6,2.97-4.05,2.97-2.76,0-4.15-3.16-4.15-6.12,0-5.08,3.58-9.36,9.85-9.36,7,0,8.84,4.81,8.84,8.27,0,8.37-7.49,8.77-9.68,8.88l-.61-2.23ZM119.25,36.39c0,2.28.89,3.48,1.94,3.48,2.83,0,3.65-7.89,3.86-10.84-5.04.89-5.8,5.5-5.8,7.36Z" fill="#3fa9f5" stroke-width="0"/>
          <path d="M146.39,34.94c-.42,2.59-1.08,6.14-6.92,9.81l-1.35-2.05c4.85-2.74,6.33-5.71,6.37-12.76h-6.03v-2.15h8.73v-2.74h2.32v2.74h8.81v2.15h-11.56c-.02.74-.02,1.58-.13,2.93h9.55c-.06,1.98-.21,7.99-1.24,10.29-.53,1.16-1.14,1.58-2.72,1.58h-4.58l-.42-2.26h4.6c.38,0,.93,0,1.31-1.14.08-.27.55-1.86.72-6.41h-7.46Z" fill="#3fa9f5" stroke-width="0"/>
        </g>
        <g>
          <path d="M24.58,45.16c-.84.16-5.32.91-9.51,1.33l-.42-3.12c1.04-.03,1.95-.1,4.8-.42v-9.12h-4.8v-2.92h4.8v-2.86h-2.73v-2.14c-.55.55-.75.71-1.27,1.17l-1.14-3.31c2.17-1.82,3.96-4.28,4.87-7.01h3.6c1.14,2.79,3.21,4.71,3.7,5.16v-1.01h10.74c-.03-1.39-.03-2.69-.03-4.15h2.89c0,.1.07,3.77.1,4.15h4.61v2.86h-4.58c.13,4.67.13,5.71.55,9.9,1.04-3.08,1.33-5.45,1.53-7.11l2.5.52c-.32,4.15-1.3,8.28-3.31,11.91.16.78.58,3.18,1.04,3.18.39,0,.75-1.46,1.04-2.53l2.01,2.5c-.65,3.25-1.43,4.9-2.92,4.9-1.98,0-3.05-3.6-3.34-4.71-2.14,2.63-4.06,3.9-5.19,4.67l-2.08-2.66c.97-.58,2.08-1.23,3.54-2.63h-5.23v-10.91h6.59v9.54c.39-.42.81-.91,1.49-1.92-.62-3.73-1.07-11.17-1.14-14.67h-7.92v10.71c0,1.1-.2,8.05-2.47,12.53l-2.34-1.85ZM17.44,35.48c.26.97.78,3.7.91,5.75l-2.76.49c0-1.92-.42-4.74-.65-5.84l2.5-.39ZM26.49,22.47l-1.72,2.14c-2.08-1.78-3.28-4.22-3.67-5-.84,1.95-2.01,3.6-3.6,5.42h7.69v3.02h-2.82v2.86h3.34v2.92h-3.34v8.7c.49-.06,2.53-.39,2.95-.45.39-1.33,1.17-4.29,1.17-7.34v-12.27ZM25.52,35.29c-.03.75-.32,3.83-.62,5.32l-1.98-.16c.26-1.53.42-4.19.42-5.42l2.17.26ZM30.35,26.04h6.59v2.69h-6.59v-2.69ZM32.69,33.28v6h1.92v-6h-1.92ZM42.85,16.3c.42.49,1.3,1.43,2.21,3.38l-2.24,1.17c-.45-1.04-1.27-2.4-1.98-3.34l2.01-1.2Z" fill="#fff" stroke-width="0"/>
          <path d="M48.37,43.86c12.11-2.01,13.7-8.63,13.44-14.15h3.21c-.19,7.46,4.64,12.59,14.18,13.92l-1.33,3.38c-6.98-1.14-12.62-5.32-14.22-10.09-1.59,5.91-8.15,9.09-13.92,10.32l-1.36-3.38ZM58.11,21.24c-3.38,2.04-5.87,2.92-7.69,3.5l-1.92-2.92c4.54-1.17,7.4-2.53,10.65-5.42l3.8.91c-.49.62-.65.75-.91,1.04h10.29v2.89c-.45.78-1.27,2.21-3.93,4.19,3.64,2.34,6.26,3.25,10.74,3.86l-1.36,3.28c-4.77-.88-9.74-3.28-12.27-5.29-6.78,3.86-13.76,4.74-15.9,5.03l-1.17-3.18c6.2-.68,14.77-2.69,19.64-7.89h-9.96ZM54.12,32.6c1.36,2.34,2.01,3.89,2.82,6.62l-3.31,1.23c-.29-1.07-.71-2.76-2.56-6.75l3.05-1.1ZM77.06,33.6c-.78,1.79-2.6,4.74-3.86,6.43l-2.79-1.69c1.3-1.66,2.14-3.12,3.38-6l3.28,1.27Z" fill="#fff" stroke-width="0"/>
          <path d="M83.43,19.78h2.73c.26-.62.62-1.53,1.01-3.25l3.73.19c-.29,1.01-.68,2.14-1.1,3.05h4.54v10.45h-7.76v3.31h8.15v11.2h-8.15v2.14h-3.15v-27.1ZM86.58,22.79v4.77h4.84v-4.77h-4.84ZM86.58,36.39v5.45h5.22v-5.45h-5.22ZM96.8,44.02v-19.05h6v-3.93h-7.14v-3.15h17.46v3.15h-7.17v3.93h6.07v16.88c0,.75,0,2.18-1.75,2.18h-3.15l-.45-3.38h1.85c.39,0,.39-.33.39-.58v-11.88h-2.95v18.99h-3.15v-18.99h-2.82v15.84h-3.18Z" fill="#fff" stroke-width="0"/>
          <path d="M125.35,42.92c2.51-.11,7.65-.34,7.65-6.88,0-1.67-.57-5.5-5.55-5.82-.34,3.5-.7,7.28-2.3,10.29-.36.65-1.6,2.97-4.05,2.97-2.76,0-4.15-3.16-4.15-6.12,0-5.08,3.58-9.36,9.85-9.36,7,0,8.84,4.81,8.84,8.27,0,8.37-7.49,8.77-9.68,8.88l-.61-2.23ZM119.25,37.69c0,2.28.89,3.48,1.94,3.48,2.83,0,3.65-7.89,3.86-10.84-5.04.89-5.8,5.5-5.8,7.36Z" fill="#fff" stroke-width="0"/>
          <path d="M146.39,36.23c-.42,2.59-1.08,6.14-6.92,9.81l-1.35-2.05c4.85-2.74,6.33-5.71,6.37-12.76h-6.03v-2.15h8.73v-2.74h2.32v2.74h8.81v2.15h-11.56c-.02.74-.02,1.58-.13,2.93h9.55c-.06,1.98-.21,7.99-1.24,10.29-.53,1.16-1.14,1.58-2.72,1.58h-4.58l-.42-2.26h4.6c.38,0,.93,0,1.31-1.14.08-.27.55-1.86.72-6.41h-7.46Z" fill="#fff" stroke-width="0"/>
        </g>
      </g>
      <g id="tht">
        <g id="gvt">
          <rect x="13.05" y="66" width="146.3" height="21.85" rx="3.33" ry="3.33" fill="#fff" stroke-width="0"/>
        </g>
        <g id="_3r" data-name="3r">
          <polygon points="116.53 80.31 116.1 79.56 120.67 76.92 116.1 74.28 116.53 73.53 122.39 76.92 116.53 80.31" fill="#1558d6" stroke-width="0"/>
        </g>
        <g id="rt">
          <g id="rsfv">
            <path d="M67.93,76.17c-.36.37-1.26,1.32-1.26,2.58,0,1.77,1.63,2.02,5.18,2.02,1.33,0,2.98-.08,4.3-.27l.06,1.69c-.46.06-1.35.19-3.72.19-3.54,0-4.66-.28-5.56-.61-1.3-.49-1.9-1.69-1.9-2.8,0-1.72,1.08-3,1.71-3.7l1.18.9ZM75.39,71.97c-2.01.34-3.22.93-4.96,1.99l-1.08-1.06c.48-.33.58-.39,1.56-.87-.63.02-4.84.11-5.33.13v-1.68c.48.03.66.04,1.53.04,1.17,0,6.98-.07,8.29-.07v1.51Z" fill="#1558d6" stroke-width="0"/>
            <path d="M85.23,69.86c-.02.48-.03,1-.11,1.87h7.45v1.48h-7.6c-.2,1.63-.38,2.22-.51,2.67,1.09-.67,2.5-.99,3.79-.99,3.24,0,4.14,2.29,4.14,3.78,0,2.5-2.2,3.3-2.55,3.42-1.21.4-2.38.55-5.14.57-.91,0-1.21-.03-1.68-.05l-.31-1.54c.51.03,1.3.08,2.19.08,3.18,0,5.72-.36,5.72-2.62,0-1.33-1-2.1-2.53-2.1-1.42,0-3.07.46-4.03,1.56l-.2.52-1.65-.34c.62-1.56.9-3.4,1.08-4.95h-3.1v-1.48h3.24c.06-.91.04-1.41.03-1.89l1.77.02Z" fill="#1558d6" stroke-width="0"/>
            <path d="M99.46,72.12c-.25,1.65-.37,2.38-.39,3.81,1.51-1.12,3.78-1.53,5.12-1.53,2.71,0,4.05,1.65,4.05,3.66,0,4.5-5.26,4.65-8.24,4.65-1.47,0-2.05-.08-2.43-.12l-.06-1.59c.52.04,1.9.18,3.18.18s4.05-.15,5.27-1.47c.46-.49.58-1.38.58-1.68,0-1.18-.91-2.1-2.68-2.1-1,0-3.01.24-4.79,1.83-.01.16-.01.24-.01.4l-1.66-.04c0-3.52.1-4.64.39-6.17l1.68.18ZM106.17,72.33c-2.1-.63-4.29-.9-6.47-1l.25-1.56c.73.03,3.9.15,6.55.91l-.33,1.65Z" fill="#1558d6" stroke-width="0"/>
          </g>
          <g id="dfd">
            <rect x="63.42" y="84.47" width="45.58" height=".65" fill="#1558d6" stroke-width="0"/>
          </g>
        </g>
      </g>
    </g>
  </g>
</svg>