<?xml version="1.0" encoding="UTF-8"?>
<svg xmlns="http://www.w3.org/2000/svg" width="172.41" height="106.86" version="1.1" viewBox="0 0 172.41 106.86">
  <g isolation="isolate">
    <g id="fgb">
      <g id="wdw">
        <rect y="8.19" width="172.41" height="98.67" rx="5.08" ry="5.08" fill="#dc8600" stroke-width="0"/>
      </g>
      <g id="fvr">
        <rect x="0" width="172.41" height="98.67" rx="5.08" ry="5.08" fill="#ec9100" stroke-width="0"/>
      </g>
      <g id="wqd">
        <g mix-blend-mode="multiply" opacity=".35">
          <path d="M23.76,19.03h-5.94v-2.69h24.24v2.86c-2.69,1.49-6.91,2.76-9.18,3.31l.07.07h11.23v2.34c-2.11,2.24-5.52,4.54-7.46,5.48l-1.85-2.37c2.79-1.23,3.9-2.37,4.48-2.92h-7.14v5.29c0,.81-.29,1.53-.94,1.98v2.08h13.37v2.82h-9.8c3.8,2.86,8.57,4.28,10.13,4.77l-2.14,3.15c-5.97-2.24-9.61-5.06-11.55-7.17v7.95h-3.31v-7.82c-2.24,2.17-6.78,5.42-12.5,7.01l-1.36-3.12c2.56-.71,6.3-1.88,10.16-4.77h-9.74v-2.82h13.44v-1.69h-3.12l-.55-2.92h4.09c.39,0,.71-.2.71-.58v-3.6c-4.87,3.67-8.93,5.36-13.34,6.52l-1.23-2.82c5.68-.88,10.09-3.41,11.42-4.25h-10.48v-2.53h11.49c-3.34-1.27-3.73-1.4-4.84-1.72l1.66-1.82ZM24.64,19.03c1.79.62,2.5.91,5.35,2.08,2.82-.62,5.06-1.56,6.23-2.08h-11.59Z" fill="#3fa9f5" stroke-width="0"/>
          <path d="M63.95,29.97c1.53-.42,3.89-1.14,6.3-2.82-.39-.52-1.17-1.56-2.43-3.73-.65.68-.88.88-1.43,1.4l-2.08-2.53v4.9h-4.28c1.36,1.14,2.17,1.62,3.57,2.24l-1.66,2.43c-.62-.32-1.98-1.07-3.54-2.79v3.67h-2.82v-3.8c-.84.71-2.86,2.4-6,3.67l-1.46-2.63c.91-.29,3.54-1.17,5.71-2.79h-4.25v-6.46h6v-1.39h-7.08v-2.43h7.08v-1.56h2.82v1.56h6.91v2.43h-6.91v1.39h5.91v1.53c2.89-2.3,3.99-4.8,4.8-7.07l3.05.49c-.23.68-.46,1.36-.91,2.4h7.82v2.89h-1.46c-.29,1.14-1.1,3.93-2.92,6.3,1.46.97,2.82,1.69,5,2.56l-1.72,2.92c-1.2-.42-3.38-1.3-5.55-3.18-2.5,1.88-5.52,2.79-6.82,3.18l-1.66-2.76ZM75.93,37.92v2.34h-10.19v1.72h13.34v2.79h-30.57v-2.79h5.13v-4.61h3.34v4.61h5.42v-5.84h-12.75v-2.69h28.07v2.69h-11.98v1.78h10.19ZM52.3,22.93v2.11h3.28v-2.11h-3.28ZM58.4,22.93v2.11h3.25v-2.11h-3.25ZM69.83,20.95c1.01,2.34,2.11,3.64,2.56,4.22,1.33-1.59,1.85-3.18,2.17-4.22h-4.74Z" fill="#3fa9f5" stroke-width="0"/>
          <path d="M83.43,18.48h2.73c.26-.62.62-1.53,1.01-3.25l3.73.19c-.29,1.01-.68,2.14-1.1,3.05h4.54v10.45h-7.76v3.31h8.15v11.2h-8.15v2.14h-3.15v-27.1ZM86.58,21.5v4.77h4.84v-4.77h-4.84ZM86.58,35.1v5.45h5.22v-5.45h-5.22ZM96.8,42.73v-19.05h6v-3.93h-7.14v-3.15h17.46v3.15h-7.17v3.93h6.07v16.88c0,.75,0,2.18-1.75,2.18h-3.15l-.45-3.38h1.85c.39,0,.39-.33.39-.58v-11.88h-2.95v18.99h-3.15v-18.99h-2.82v15.84h-3.18Z" fill="#3fa9f5" stroke-width="0"/>
          <path d="M125.35,41.62c2.51-.11,7.65-.34,7.65-6.88,0-1.67-.57-5.5-5.55-5.82-.34,3.5-.7,7.28-2.3,10.29-.36.65-1.6,2.97-4.05,2.97-2.76,0-4.15-3.16-4.15-6.12,0-5.08,3.58-9.36,9.85-9.36,7,0,8.83,4.81,8.83,8.27,0,8.37-7.49,8.77-9.68,8.88l-.61-2.23ZM119.25,36.39c0,2.28.89,3.48,1.94,3.48,2.83,0,3.65-7.89,3.86-10.84-5.04.89-5.8,5.5-5.8,7.36Z" fill="#3fa9f5" stroke-width="0"/>
          <path d="M146.39,34.94c-.42,2.59-1.08,6.14-6.92,9.81l-1.35-2.05c4.85-2.74,6.33-5.71,6.37-12.76h-6.03v-2.15h8.73v-2.74h2.32v2.74h8.81v2.15h-11.56c-.02.74-.02,1.58-.13,2.93h9.55c-.06,1.98-.21,7.99-1.24,10.29-.53,1.16-1.14,1.58-2.72,1.58h-4.58l-.42-2.26h4.6c.38,0,.93,0,1.31-1.14.08-.27.55-1.86.72-6.41h-7.46Z" fill="#3fa9f5" stroke-width="0"/>
        </g>
        <g>
          <path d="M23.76,20.33h-5.94v-2.69h24.24v2.86c-2.69,1.49-6.91,2.76-9.18,3.31l.07.07h11.23v2.34c-2.11,2.24-5.52,4.54-7.46,5.48l-1.85-2.37c2.79-1.23,3.9-2.37,4.48-2.92h-7.14v5.29c0,.81-.29,1.53-.94,1.98v2.08h13.37v2.82h-9.8c3.8,2.86,8.57,4.28,10.13,4.77l-2.14,3.15c-5.97-2.24-9.61-5.06-11.55-7.17v7.95h-3.31v-7.82c-2.24,2.17-6.78,5.42-12.5,7.01l-1.36-3.12c2.56-.71,6.3-1.88,10.16-4.77h-9.74v-2.82h13.44v-1.69h-3.12l-.55-2.92h4.09c.39,0,.71-.2.71-.58v-3.6c-4.87,3.67-8.93,5.36-13.34,6.52l-1.23-2.82c5.68-.88,10.09-3.41,11.42-4.25h-10.48v-2.53h11.49c-3.34-1.27-3.73-1.4-4.84-1.72l1.66-1.82ZM24.64,20.33c1.79.62,2.5.91,5.35,2.08,2.82-.62,5.06-1.56,6.23-2.08h-11.59Z" fill="#fff" stroke-width="0"/>
          <path d="M63.95,31.26c1.53-.42,3.89-1.14,6.3-2.82-.39-.52-1.17-1.56-2.43-3.73-.65.68-.88.88-1.43,1.4l-2.08-2.53v4.9h-4.28c1.36,1.14,2.17,1.62,3.57,2.24l-1.66,2.43c-.62-.32-1.98-1.07-3.54-2.79v3.67h-2.82v-3.8c-.84.71-2.86,2.4-6,3.67l-1.46-2.63c.91-.29,3.54-1.17,5.71-2.79h-4.25v-6.46h6v-1.39h-7.08v-2.43h7.08v-1.56h2.82v1.56h6.91v2.43h-6.91v1.39h5.91v1.53c2.89-2.3,3.99-4.8,4.8-7.07l3.05.49c-.23.68-.46,1.36-.91,2.4h7.82v2.89h-1.46c-.29,1.14-1.1,3.93-2.92,6.3,1.46.97,2.82,1.69,5,2.56l-1.72,2.92c-1.2-.42-3.38-1.3-5.55-3.18-2.5,1.88-5.52,2.79-6.82,3.18l-1.66-2.76ZM75.93,39.22v2.34h-10.19v1.72h13.34v2.79h-30.57v-2.79h5.13v-4.61h3.34v4.61h5.42v-5.84h-12.75v-2.69h28.07v2.69h-11.98v1.78h10.19ZM52.3,24.22v2.11h3.28v-2.11h-3.28ZM58.4,24.22v2.11h3.25v-2.11h-3.25ZM69.83,22.24c1.01,2.34,2.11,3.64,2.56,4.22,1.33-1.59,1.85-3.18,2.17-4.22h-4.74Z" fill="#fff" stroke-width="0"/>
          <path d="M83.43,19.78h2.73c.26-.62.62-1.53,1.01-3.25l3.73.19c-.29,1.01-.68,2.14-1.1,3.05h4.54v10.45h-7.76v3.31h8.15v11.2h-8.15v2.14h-3.15v-27.1ZM86.58,22.79v4.77h4.84v-4.77h-4.84ZM86.58,36.39v5.45h5.22v-5.45h-5.22ZM96.8,44.02v-19.05h6v-3.93h-7.14v-3.15h17.46v3.15h-7.17v3.93h6.07v16.88c0,.75,0,2.18-1.75,2.18h-3.15l-.45-3.38h1.85c.39,0,.39-.33.39-.58v-11.88h-2.95v18.99h-3.15v-18.99h-2.82v15.84h-3.18Z" fill="#fff" stroke-width="0"/>
          <path d="M125.35,42.92c2.51-.11,7.65-.34,7.65-6.88,0-1.67-.57-5.5-5.55-5.82-.34,3.5-.7,7.28-2.3,10.29-.36.65-1.6,2.97-4.05,2.97-2.76,0-4.15-3.16-4.15-6.12,0-5.08,3.58-9.36,9.85-9.36,7,0,8.83,4.81,8.83,8.27,0,8.37-7.49,8.77-9.68,8.88l-.61-2.23ZM119.25,37.69c0,2.28.89,3.48,1.94,3.48,2.83,0,3.65-7.89,3.86-10.84-5.04.89-5.8,5.5-5.8,7.36Z" fill="#fff" stroke-width="0"/>
          <path d="M146.39,36.23c-.42,2.59-1.08,6.14-6.92,9.81l-1.35-2.05c4.85-2.74,6.33-5.71,6.37-12.76h-6.03v-2.15h8.73v-2.74h2.32v2.74h8.81v2.15h-11.56c-.02.74-.02,1.58-.13,2.93h9.55c-.06,1.98-.21,7.99-1.24,10.29-.53,1.16-1.14,1.58-2.72,1.58h-4.58l-.42-2.26h4.6c.38,0,.93,0,1.31-1.14.08-.27.55-1.86.72-6.41h-7.46Z" fill="#fff" stroke-width="0"/>
        </g>
      </g>
      <g id="tth">
        <g id="gf">
          <rect x="13.05" y="66" width="146.3" height="21.85" rx="3.33" ry="3.33" fill="#fff" stroke-width="0"/>
        </g>
        <g id="_3r" data-name="3r">
          <polygon points="116.53 80.31 116.1 79.56 120.67 76.92 116.1 74.28 116.53 73.53 122.39 76.92 116.53 80.31" fill="#1558d6" stroke-width="0"/>
        </g>
        <g id="qwed">
          <g id="wqd-2" data-name="wqd">
            <path d="M67.93,76.17c-.36.37-1.26,1.32-1.26,2.58,0,1.77,1.63,2.02,5.18,2.02,1.33,0,2.98-.08,4.3-.27l.06,1.69c-.46.06-1.35.19-3.72.19-3.54,0-4.66-.28-5.56-.61-1.3-.49-1.9-1.69-1.9-2.8,0-1.72,1.08-3,1.71-3.7l1.18.9ZM75.39,71.97c-2.01.34-3.22.93-4.96,1.99l-1.08-1.06c.48-.33.58-.39,1.56-.87-.63.02-4.84.11-5.33.13v-1.68c.48.03.66.04,1.53.04,1.17,0,6.98-.07,8.29-.07v1.51Z" fill="#1558d6" stroke-width="0"/>
            <path d="M85.23,69.86c-.02.48-.03,1-.11,1.87h7.45v1.48h-7.6c-.2,1.63-.38,2.22-.51,2.67,1.09-.67,2.5-.99,3.79-.99,3.24,0,4.14,2.29,4.14,3.78,0,2.5-2.2,3.3-2.55,3.42-1.21.4-2.38.55-5.14.57-.91,0-1.21-.03-1.68-.05l-.31-1.54c.51.03,1.3.08,2.19.08,3.18,0,5.72-.36,5.72-2.62,0-1.33-1-2.1-2.53-2.1-1.42,0-3.07.46-4.03,1.56l-.2.52-1.65-.34c.62-1.56.9-3.4,1.08-4.95h-3.1v-1.48h3.24c.06-.91.04-1.41.03-1.89l1.77.02Z" fill="#1558d6" stroke-width="0"/>
            <path d="M99.46,72.12c-.25,1.65-.37,2.38-.39,3.81,1.51-1.12,3.78-1.53,5.12-1.53,2.71,0,4.05,1.65,4.05,3.66,0,4.5-5.26,4.65-8.24,4.65-1.47,0-2.05-.08-2.43-.12l-.06-1.59c.53.04,1.9.18,3.18.18s4.05-.15,5.27-1.47c.46-.49.58-1.38.58-1.68,0-1.18-.91-2.1-2.68-2.1-1,0-3.01.24-4.79,1.83-.01.16-.01.24-.01.4l-1.66-.04c0-3.52.1-4.64.39-6.17l1.68.18ZM106.17,72.33c-2.1-.63-4.29-.9-6.47-1l.25-1.56c.73.03,3.9.15,6.55.91l-.33,1.65Z" fill="#1558d6" stroke-width="0"/>
          </g>
          <g id="ther">
            <rect x="63.42" y="84.47" width="45.58" height=".65" fill="#1558d6" stroke-width="0"/>
          </g>
        </g>
      </g>
    </g>
  </g>
</svg>