<?xml version="1.0" encoding="UTF-8"?>
<svg xmlns="http://www.w3.org/2000/svg" width="196.41" height="159.33" version="1.1" viewBox="0 0 196.41 159.33">
  <g isolation="isolate">
    <g id="fgb">
      <g id="qaw">
        <rect y="9.33" width="196.41" height="150" rx="5" ry="5" fill="#dc8600" stroke-width="0"/>
      </g>
      <g id="ryj">
        <rect width="196.41" height="150" rx="5" ry="5" fill="#ec9100" stroke-width="0"/>
      </g>
      <g id="reg">
        <g mix-blend-mode="multiply" opacity=".35">
          <path d="M27.07,59.24h-6.77v-3.07h27.63v3.26c-3.07,1.7-7.88,3.14-10.47,3.77l.07.07h12.8v2.66c-2.4,2.55-6.29,5.18-8.51,6.25l-2.11-2.7c3.18-1.41,4.44-2.7,5.1-3.33h-8.14v6.03c0,.92-.33,1.74-1.07,2.26v2.37h15.24v3.22h-11.17c4.33,3.25,9.76,4.88,11.54,5.44l-2.44,3.59c-6.81-2.55-10.95-5.77-13.17-8.17v9.06h-3.77v-8.91c-2.55,2.48-7.73,6.18-14.24,7.99l-1.55-3.55c2.92-.81,7.17-2.15,11.58-5.44h-11.1v-3.22h15.31v-1.92h-3.55l-.63-3.33h4.66c.44,0,.81-.22.81-.67v-4.11c-5.55,4.18-10.17,6.1-15.2,7.43l-1.41-3.22c6.47-1,11.5-3.88,13.02-4.84h-11.95v-2.89h13.09c-3.81-1.44-4.25-1.59-5.51-1.96l1.89-2.07ZM28.07,59.24c2.03.7,2.85,1.04,6.1,2.37,3.22-.7,5.77-1.78,7.1-2.37h-13.2Z" fill="#3fa9f5" stroke-width="0"/>
          <path d="M72.85,71.71c1.74-.48,4.44-1.29,7.18-3.22-.44-.59-1.33-1.78-2.77-4.25-.74.78-1,1-1.63,1.59l-2.37-2.88v5.58h-4.88c1.55,1.29,2.48,1.85,4.07,2.55l-1.89,2.77c-.7-.37-2.26-1.22-4.03-3.18v4.18h-3.22v-4.33c-.96.81-3.25,2.74-6.84,4.18l-1.66-3c1.04-.33,4.03-1.33,6.51-3.18h-4.85v-7.36h6.84v-1.59h-8.06v-2.77h8.06v-1.78h3.22v1.78h7.88v2.77h-7.88v1.59h6.73v1.74c3.29-2.63,4.55-5.47,5.47-8.06l3.48.55c-.26.78-.52,1.55-1.04,2.74h8.91v3.29h-1.67c-.33,1.29-1.26,4.48-3.33,7.17,1.66,1.11,3.22,1.92,5.7,2.92l-1.96,3.33c-1.37-.48-3.85-1.48-6.33-3.62-2.85,2.14-6.29,3.18-7.77,3.62l-1.89-3.14ZM86.5,80.77v2.66h-11.61v1.96h15.2v3.18h-34.84v-3.18h5.84v-5.25h3.81v5.25h6.18v-6.66h-14.54v-3.07h31.99v3.07h-13.65v2.03h11.61ZM59.58,63.68v2.4h3.74v-2.4h-3.74ZM66.53,63.68v2.4h3.7v-2.4h-3.7ZM79.55,61.42c1.15,2.66,2.4,4.14,2.92,4.81,1.52-1.81,2.11-3.62,2.48-4.81h-5.4Z" fill="#3fa9f5" stroke-width="0"/>
          <path d="M95.04,58.61h3.11c.3-.7.7-1.74,1.15-3.7l4.25.22c-.33,1.15-.78,2.44-1.26,3.48h5.18v11.91h-8.84v3.77h9.28v12.76h-9.28v2.44h-3.59v-30.88ZM98.63,62.05v5.44h5.51v-5.44h-5.51ZM98.63,77.55v6.21h5.96v-6.21h-5.96ZM110.28,86.24v-21.71h6.84v-4.48h-8.14v-3.59h19.9v3.59h-8.17v4.48h6.92v19.23c0,.85,0,2.48-2,2.48h-3.59l-.52-3.85h2.11c.44,0,.44-.37.44-.67v-13.54h-3.37v21.64h-3.59v-21.64h-3.22v18.05h-3.62Z" fill="#3fa9f5" stroke-width="0"/>
          <path d="M142.79,84.99c2.86-.12,8.72-.38,8.72-7.83,0-1.9-.65-6.27-6.32-6.63-.38,3.99-.79,8.29-2.62,11.72-.41.74-1.83,3.39-4.61,3.39-3.15,0-4.73-3.6-4.73-6.97,0-5.79,4.08-10.66,11.22-10.66,7.97,0,10.06,5.48,10.06,9.42,0,9.53-8.53,9.99-11.02,10.11l-.7-2.55ZM135.84,79.03c0,2.59,1.01,3.96,2.21,3.96,3.22,0,4.16-8.98,4.39-12.34-5.74,1.01-6.6,6.27-6.6,8.38Z" fill="#3fa9f5" stroke-width="0"/>
          <path d="M166.76,77.37c-.48,2.95-1.22,6.99-7.88,11.17l-1.54-2.33c5.52-3.12,7.21-6.51,7.25-14.53h-6.87v-2.45h9.94v-3.12h2.64v3.12h10.04v2.45h-13.16c-.02.84-.02,1.8-.14,3.34h10.88c-.07,2.26-.24,9.1-1.42,11.72-.6,1.32-1.3,1.8-3.1,1.8h-5.21l-.48-2.57h5.24c.43,0,1.06,0,1.49-1.3.1-.31.62-2.11.82-7.3h-8.5Z" fill="#3fa9f5" stroke-width="0"/>
        </g>
        <g>
          <path d="M27.07,60.74h-6.77v-3.07h27.63v3.26c-3.07,1.7-7.88,3.14-10.47,3.77l.07.07h12.8v2.66c-2.4,2.55-6.29,5.18-8.51,6.25l-2.11-2.7c3.18-1.41,4.44-2.7,5.1-3.33h-8.14v6.03c0,.92-.33,1.74-1.07,2.26v2.37h15.24v3.22h-11.17c4.33,3.25,9.76,4.88,11.54,5.44l-2.44,3.59c-6.81-2.55-10.95-5.77-13.17-8.17v9.06h-3.77v-8.91c-2.55,2.48-7.73,6.18-14.24,7.99l-1.55-3.55c2.92-.81,7.17-2.15,11.58-5.44h-11.1v-3.22h15.31v-1.92h-3.55l-.63-3.33h4.66c.44,0,.81-.22.81-.67v-4.11c-5.55,4.18-10.17,6.1-15.2,7.43l-1.41-3.22c6.47-1,11.5-3.88,13.02-4.84h-11.95v-2.89h13.09c-3.81-1.44-4.25-1.59-5.51-1.96l1.89-2.07ZM28.07,60.74c2.03.7,2.85,1.04,6.1,2.37,3.22-.7,5.77-1.78,7.1-2.37h-13.2Z" fill="#fff" stroke-width="0"/>
          <path d="M72.85,73.21c1.74-.48,4.44-1.29,7.18-3.22-.44-.59-1.33-1.78-2.77-4.25-.74.78-1,1-1.63,1.59l-2.37-2.88v5.58h-4.88c1.55,1.29,2.48,1.85,4.07,2.55l-1.89,2.77c-.7-.37-2.26-1.22-4.03-3.18v4.18h-3.22v-4.33c-.96.81-3.25,2.74-6.84,4.18l-1.66-3c1.04-.33,4.03-1.33,6.51-3.18h-4.85v-7.36h6.84v-1.59h-8.06v-2.77h8.06v-1.78h3.22v1.78h7.88v2.77h-7.88v1.59h6.73v1.74c3.29-2.63,4.55-5.47,5.47-8.06l3.48.55c-.26.78-.52,1.55-1.04,2.74h8.91v3.29h-1.67c-.33,1.29-1.26,4.48-3.33,7.17,1.66,1.11,3.22,1.92,5.7,2.92l-1.96,3.33c-1.37-.48-3.85-1.48-6.33-3.62-2.85,2.14-6.29,3.18-7.77,3.62l-1.89-3.14ZM86.5,82.27v2.66h-11.61v1.96h15.2v3.18h-34.84v-3.18h5.84v-5.25h3.81v5.25h6.18v-6.66h-14.54v-3.07h31.99v3.07h-13.65v2.03h11.61ZM59.58,65.18v2.4h3.74v-2.4h-3.74ZM66.53,65.18v2.4h3.7v-2.4h-3.7ZM79.55,62.92c1.15,2.66,2.4,4.14,2.92,4.81,1.52-1.81,2.11-3.62,2.48-4.81h-5.4Z" fill="#fff" stroke-width="0"/>
          <path d="M95.04,60.11h3.11c.3-.7.7-1.74,1.15-3.7l4.25.22c-.33,1.15-.78,2.44-1.26,3.48h5.18v11.91h-8.84v3.77h9.28v12.76h-9.28v2.44h-3.59v-30.88ZM98.63,63.55v5.44h5.51v-5.44h-5.51ZM98.63,79.05v6.21h5.96v-6.21h-5.96ZM110.28,87.74v-21.71h6.84v-4.48h-8.14v-3.59h19.9v3.59h-8.17v4.48h6.92v19.23c0,.85,0,2.48-2,2.48h-3.59l-.52-3.85h2.11c.44,0,.44-.37.44-.67v-13.54h-3.37v21.64h-3.59v-21.64h-3.22v18.05h-3.62Z" fill="#fff" stroke-width="0"/>
          <path d="M142.79,86.49c2.86-.12,8.72-.38,8.72-7.83,0-1.9-.65-6.27-6.32-6.63-.38,3.99-.79,8.29-2.62,11.72-.41.74-1.83,3.39-4.61,3.39-3.15,0-4.73-3.6-4.73-6.97,0-5.79,4.08-10.66,11.22-10.66,7.97,0,10.06,5.48,10.06,9.42,0,9.53-8.53,9.99-11.02,10.11l-.7-2.55ZM135.84,80.53c0,2.59,1.01,3.96,2.21,3.96,3.22,0,4.16-8.98,4.39-12.34-5.74,1.01-6.6,6.27-6.6,8.38Z" fill="#fff" stroke-width="0"/>
          <path d="M166.76,78.87c-.48,2.95-1.22,6.99-7.88,11.17l-1.54-2.33c5.52-3.12,7.21-6.51,7.25-14.53h-6.87v-2.45h9.94v-3.12h2.64v3.12h10.04v2.45h-13.16c-.02.84-.02,1.8-.14,3.34h10.88c-.07,2.26-.24,9.1-1.42,11.72-.6,1.32-1.3,1.8-3.1,1.8h-5.21l-.48-2.57h5.24c.43,0,1.06,0,1.49-1.3.1-.31.62-2.11.82-7.3h-8.5Z" fill="#fff" stroke-width="0"/>
        </g>
      </g>
      <g id="swerf">
        <g id="_5r" data-name="5r">
          <rect x="14.87" y="112.78" width="166.67" height="24.89" rx="3.28" ry="3.28" fill="#fff" stroke-width="0"/>
        </g>
        <g id="muj">
          <polygon points="132.75 129.09 132.25 128.22 137.45 125.22 132.25 122.22 132.75 121.36 139.45 125.22 132.75 129.09" fill="#1558d6" stroke-width="0"/>
        </g>
        <g id="er">
          <g id="wfq">
            <path d="M77.38,124.37c-.41.43-1.43,1.5-1.43,2.93,0,2.01,1.86,2.3,5.9,2.3,1.52,0,3.39-.08,4.9-.31l.07,1.93c-.53.07-1.54.22-4.23.22-4.03,0-5.31-.32-6.33-.7-1.48-.56-2.17-1.93-2.17-3.19,0-1.96,1.23-3.41,1.94-4.21l1.35,1.02ZM85.87,119.59c-2.29.39-3.67,1.06-5.65,2.27l-1.23-1.21c.55-.38.67-.44,1.77-.99-.72.02-5.51.12-6.07.15v-1.91c.54.03.75.05,1.74.05,1.33,0,7.95-.08,9.43-.08v1.72Z" fill="#1558d6" stroke-width="0"/>
            <path d="M97.09,117.19c-.02.55-.03,1.14-.12,2.13h8.48v1.69h-8.65c-.22,1.86-.43,2.52-.58,3.04,1.25-.77,2.85-1.13,4.32-1.13,3.68,0,4.71,2.61,4.71,4.3,0,2.85-2.51,3.75-2.9,3.89-1.38.46-2.71.63-5.85.65-1.04,0-1.38-.03-1.91-.05l-.36-1.76c.58.03,1.48.09,2.49.09,3.62,0,6.52-.41,6.52-2.99,0-1.52-1.14-2.39-2.88-2.39-1.62,0-3.5.53-4.59,1.77l-.22.6-1.88-.39c.7-1.77,1.02-3.87,1.23-5.63h-3.53v-1.69h3.68c.07-1.04.05-1.6.03-2.15l2.01.02Z" fill="#1558d6" stroke-width="0"/>
            <path d="M113.3,119.76c-.29,1.88-.43,2.71-.44,4.33,1.72-1.28,4.3-1.74,5.83-1.74,3.09,0,4.61,1.88,4.61,4.16,0,5.12-5.99,5.29-9.38,5.29-1.67,0-2.34-.09-2.76-.14l-.07-1.81c.6.05,2.17.21,3.62.21s4.61-.17,6-1.67c.53-.56.67-1.57.67-1.91,0-1.35-1.04-2.39-3.05-2.39-1.14,0-3.43.27-5.46,2.08-.02.19-.02.27-.02.46l-1.89-.05c0-4.01.12-5.29.44-7.03l1.91.21ZM120.94,120c-2.39-.72-4.88-1.02-7.37-1.14l.29-1.77c.84.03,4.44.17,7.46,1.04l-.38,1.88Z" fill="#1558d6" stroke-width="0"/>
          </g>
          <g id="uk">
            <rect x="72.24" y="133.82" width="51.92" height=".75" fill="#1558d6" stroke-width="0"/>
          </g>
        </g>
      </g>
      <g id="ewfe" opacity=".7">
        <path d="M114.16,30.88c-.04-1.26-.15-2.47-.32-3.62,0-.02-.01-.05-.01-.07-.13-.9-.29-1.76-.5-2.57-.82-3.25-3.16-5.86-6.32-7.11l.02-.07c.08-.28.05-.58-.09-.84-.14-.25-.39-.44-.67-.53l-1.36-.39c-.4-.11-.81.01-1.09.28-.11-.08-.21-.17-.3-.25l-.02-.02c-1.22-1.13-1.1-2.22-1.09-2.28.05-.32-.16-.63-.49-.68-.32-.06-.63.16-.68.49-.01.08-.19,1.29.79,2.62.02.02,0,.05-.02.07-2.31.74-5.37.74-7.68,0-.02-.01-.04-.05-.02-.07.98-1.33.81-2.54.8-2.62-.06-.32-.36-.53-.68-.49-.32.05-.54.36-.5.68.01.07.13,1.14-1.09,2.28,0,.01-.02.02-.03.03-.09.08-.19.17-.29.25-.28-.28-.69-.4-1.09-.29l-1.36.39c-.28.08-.52.27-.67.53-.14.26-.17.55-.09.84l.02.07c-3.16,1.25-5.5,3.87-6.32,7.11-.2.81-.36,1.68-.5,2.57,0,.02,0,.04,0,.05-.17,1.16-.28,2.36-.32,3.63-.07,1.97.08,4.03.45,6.12l.86,4.92c.05.28.3.49.59.49.04,0,.07,0,.1-.01.33-.06.54-.36.48-.69l-.86-4.92c-.36-2.01-.5-3.99-.44-5.88.04-.95.11-1.89.22-2.77,0-.02.03-.04.05-.04.87.34,2.35.85,3.67,1.04.02,0,.04.03.03.05-.83,3.33-.78,7.2.14,11.55l.25,1.19c.07.32.38.53.71.46.32-.07.52-.38.46-.7l-.25-1.19c-1.01-4.74-.93-8.86.21-12.24h0s.29-.7.29-.7c.35,2.03.62,4.09.81,6.04,0,.02,0,.03-.02.04-.86.52-1.44,1.44-1.44,2.51,0,1.18.7,2.19,1.7,2.65.01,0,.02.02.02.04-.04,3-.46,5.26-1.44,6.04-.26.2-.3.58-.1.83.12.15.29.23.47.23.12,0,.25-.04.36-.13,1.33-1.04,1.83-3.67,1.89-6.73.01,0,.02,0,.04,0h13.47s.04.02.04.04c.07,3.04.56,5.64,1.89,6.68.11.09.24.13.37.13.17,0,.35-.08.46-.23.21-.25.16-.63-.1-.83-.95-.75-1.38-2.89-1.43-5.75,0-.02.02-.04.04-.04h2.45c.33-.03.63-.09.92-.17,2.03-.37,3.37-1.39,4.06-3.12.83-2.08.56-4.85.55-4.93ZM106.66,18.7s.03-.04.05-.02c2.7,1.13,4.77,3.46,5.47,6.24.16.62.28,1.28.39,1.95,0,.02,0,.04-.02.04-.8.32-2.51.95-3.88,1.1-.02-.07-.05-.14-.07-.21l-.9-2.13c-.12-.3-.43-.47-.75-.44s-.57.27-.63.59c-.13.71-.31,1.73-.49,2.92-.09-.11-.18-.21-.25-.31-.34-.4-1-.85-1.43-1.11-.01-.01-.02-.03-.02-.05l2.55-8.56ZM108.22,31.78c-.28-.39-.58-.78-.89-1.18-.16-.21-.33-.41-.48-.61,0-.01-.01-.02-.01-.04.11-.8.24-1.6.37-2.4l.28.66h0c.71,2.11.76,2.28.73,3.57ZM103.86,19.55l.79-2.66s.03-.04.05-.03l.69.2.43.12h0s.03.03.02.05l-1.85,6.23-1.04,3.49s-.02.03-.04.03h-1.22s-.05-.02-.04-.05l2.19-7.38ZM93.38,16.84c1.41.56,3.11.84,4.8.84s3.4-.28,4.81-.84c.11.09.23.18.36.27l-2.93,9.84s-.02.03-.04.03h-4.4s-.04-.01-.04-.03l-2.92-9.84c.13-.09.25-.18.36-.27ZM90.54,17.18l1.13-.32s.05,0,.05.03l2.98,10.04s-.01.05-.04.05h-1.23s-.04-.01-.04-.03l-2.88-9.72s0-.04.03-.05ZM91.45,37.9c-1.07,0-1.92-.95-1.73-2.06.15-.85.96-1.44,1.83-1.44h.21s.04.02.04.04c.04,1.42.12,2.72.18,3.46h-.53ZM92.4,27.79c-.29.7-.63,2.17-.62,5.43h-.33c-.11,0-.21.02-.31.03-.31-3.09-.79-5.92-1.08-7.44-.06-.31-.31-.55-.63-.59-.33-.04-.63.14-.75.44l-.91,2.17c-.02.06-.03.11-.05.17-1.38-.15-3.1-.78-3.9-1.1-.02,0-.03-.02-.02-.04.11-.67.24-1.32.39-1.94.7-2.77,2.76-5.11,5.46-6.24.02-.01.05,0,.06.02l2.69,9.07s0,.02,0,.02ZM107.2,37.9h-11.28s-.04-.01-.04-.04c-.23-1.9-.56-5.72-.13-7.24,0-.02.02-.03.04-.03h5.84s.01,0,.02,0c.76.5,4.29,3.04,5.6,7.25,0,.02-.01.05-.04.05ZM110.1,37.45c-.44.25-.95.41-1.51.46h-.09c-1.33-4.85-5.38-7.75-6.2-8.3-.2-.13-.42-.2-.65-.2h-5.89c-.52,0-.98.34-1.13.82-.55,1.83-.14,5.95.05,7.63,0,.02-.02.04-.04.04h-1.43s-.04-.01-.04-.04c-.07-.83-.18-2.47-.2-4.19-.05-3.55.3-4.95.55-5.48,0-.01.02-.02.04-.02h9.69s.01,0,.02,0c.46.26,1.14.71,1.39,1.01.48.58,1.11,1.34,1.74,2.15,1.83,2.35,3.06,4.35,3.73,6.06,0,.02,0,.05-.02.05ZM112.52,35.37c-.28.68-.69,1.22-1.23,1.62-.02.01-.06,0-.07-.02-.42-1.08-1.04-2.25-1.86-3.53,0,0,0-.02,0-.02.01-.5.02-.9.04-1.24.05-1.39.05-1.76-.33-2.98,0-.02.01-.05.04-.05,1.3-.19,2.75-.69,3.62-1.03.02,0,.05.01.05.04.11.89.18,1.83.21,2.8,0,.02.25,2.59-.46,4.41Z" fill="#fff" stroke-width="0"/>
      </g>
    </g>
  </g>
</svg>