<svg width="13" height="13" viewBox="0 0 13 13" fill="none" xmlns="http://www.w3.org/2000/svg">
<circle cx="6.50003" cy="6.50003" r="6.50003" transform="matrix(-4.37114e-08 -1 -1 4.37114e-08 13 13)" fill="#FC9C9C"/>
<path fill-rule="evenodd" clip-rule="evenodd" d="M7.02358 4.20273C6.88586 4.07292 6.69918 4 6.50454 4C6.3099 4 6.12322 4.07292 5.9855 4.20273L3.21502 6.81662C3.0773 6.94667 2.99995 7.12302 3 7.30689C3.00005 7.49076 3.07748 7.66708 3.21527 7.79706C3.35305 7.92704 3.53991 8.00004 3.73472 8C3.92954 7.99996 4.11635 7.92687 4.25407 7.79683L6.50454 5.67281L8.75501 7.79683C8.89347 7.92317 9.07897 7.99312 9.27155 7.99163C9.46413 7.99014 9.64838 7.91731 9.78463 7.78885C9.92087 7.66038 9.99821 7.48654 9.99997 7.30479C10.0017 7.12303 9.92779 6.94788 9.79406 6.81708L7.02407 4.20227L7.02358 4.20273Z" fill="white"/>
</svg>
