<svg width="287" height="315" viewBox="0 0 287 315" fill="none" xmlns="http://www.w3.org/2000/svg">
<g clip-path="url(#clip0_791_4385)">
<path d="M209.474 83.2801C204 28.4761 178.423 3.51697 143.78 4.42939C95.7752 5.68028 74.2303 51.522 72.9499 92.3307C70.5364 113.964 65.1355 131.138 58.5278 151.859C55.8347 160.262 49.9334 170.534 55.2461 177.598C66.7102 192.829 170.917 204.72 215.655 183.793C233.433 175.464 225.147 157.171 220.718 139.762C213.551 109.549 212.565 114.17 209.474 83.2801Z" fill="#333333"/>
<path d="M213.888 83.2802C211.533 61.029 206.118 37.8211 191.195 20.4263C185.589 13.9772 178.657 8.81382 170.872 5.28864C163.088 1.76345 154.635 -0.0405032 146.089 -0.000106141C99.3352 -0.323868 73.1547 41.9712 69.0635 84.1779C67.8445 98.3229 65.3822 112.333 61.7053 126.046C59.6744 133.404 57.3786 140.763 55.024 148.121C53.0079 154.405 49.9468 160.6 48.9608 167.149C46.5179 183.234 62.2056 188.164 74.6999 191.461C93.0218 196.317 112.286 198.319 131.182 199.143C152.535 200.099 174.374 199.408 195.331 194.919C204.69 192.903 216.36 190.283 223.733 183.793C232.607 176.112 231.621 164.338 229.164 154.037C223.513 130.24 216.375 107.709 213.888 83.2949C213.329 77.688 204.484 77.6438 205.058 83.2949C206.824 100.646 210.444 116.672 214.653 133.522C217.214 143.721 221.629 154.64 222.1 165.192C222.6 176.244 214.462 180.159 205.176 183.175C171.063 194.301 130.77 192.476 95.7738 186.825C88.6421 185.723 81.5809 184.204 74.6263 182.278C70.0642 180.968 64.2512 179.57 60.4838 176.479C53.3463 170.593 61.3521 157.451 63.6037 150.475C67.7708 138.086 71.283 125.486 74.1259 112.728C78.4673 92.0071 77.6873 70.9478 86.1934 51.1542C93.7282 33.6269 106.929 18.1011 125.472 11.9938C143.661 5.9895 165.059 8.12335 179.658 21.2504C196.846 36.7027 202.718 61.2055 205.058 83.2949C205.661 88.8725 214.491 88.9313 213.888 83.2802Z" fill="#333333"/>
<path d="M195.229 87.887C187.532 28.7416 98.483 30.331 92.4345 89.4911C67.7109 76.5406 69.315 124.811 92.4345 129.108C107.798 186.781 181.439 185.795 195.803 128.078C207.443 122.912 213.86 107.475 209.989 95.466C207.885 89.5058 201.277 84.8701 195.229 87.887Z" fill="white"/>
<path d="M199.495 86.7097C195.389 58.2923 170.99 39.1315 142.557 39.9262C113.772 40.7209 91.3294 60.9118 88.0182 89.4912L94.6553 85.6796C81.4106 79.1896 70.697 86.6803 70.1083 101.073C69.5344 114.656 77.1575 130.182 91.2706 133.361L88.1948 130.285C95.9651 158.04 120.1 179.291 150.004 175.906C163.102 174.411 175.254 168.345 184.323 158.776C189.461 153.266 193.573 146.882 196.464 139.924C197.759 136.849 198.421 132.757 200.525 130.535C203.248 127.592 206.662 125.841 209.105 122.471C214.594 114.877 217.184 104.34 214.477 95.2011C211.887 86.3712 203.057 80.2051 194.035 83.6046C188.767 85.5913 191.092 94.1268 196.375 92.1254C210.827 86.6803 206.265 111.374 202.056 117.232C199.436 120.881 194.874 122.162 192.314 125.385C190.327 127.916 190.033 132.39 188.811 135.451C183.557 148.695 173.226 159.895 159.643 164.707C130.946 174.861 104.398 155.509 96.6715 127.916C96.468 127.181 96.0777 126.512 95.5387 125.973C94.9997 125.434 94.3303 125.044 93.5958 124.84C84.4274 122.78 79.7035 113.347 78.9676 104.576C78.3054 96.5992 81.1457 88.8731 90.1816 93.288C90.8522 93.6786 91.614 93.8856 92.3902 93.888C93.1663 93.8904 93.9293 93.6881 94.6024 93.3016C95.2754 92.9151 95.8347 92.358 96.2238 91.6864C96.6129 91.0149 96.8181 90.2526 96.8187 89.4764C99.6295 65.2237 119.806 48.859 143.838 48.7119C168.267 48.5647 187.472 64.9 190.93 89.0349C191.784 94.6566 200.231 92.2284 199.495 86.7097Z" fill="#333333"/>
<path d="M121.955 106.12C116.892 106.12 116.878 114.008 121.955 114.008C127.032 114.008 127.047 106.12 121.955 106.12Z" fill="#333333"/>
<path d="M166.958 106.12C161.881 106.12 161.881 114.008 166.958 114.008C172.035 114.008 172.035 106.12 166.958 106.12Z" fill="#333333"/>
<path d="M233.433 137.849C209.371 138.57 179.791 146.679 148.254 158.334C116.58 146.11 83.1075 139.189 49.1827 137.849L46.416 149.092L47.5786 239.127C47.651 241.664 48.5695 244.104 50.1882 246.058C51.8068 248.013 54.0326 249.37 56.5115 249.914L146.414 270.871L228.09 249.679C230.538 249.089 232.719 247.699 234.286 245.728C235.854 243.758 236.719 241.321 236.744 238.803L236.538 148.768L233.433 137.849Z" fill="white"/>
<path d="M233.432 133.434C219.6 134.128 205.876 136.243 192.477 139.747C184.795 141.66 177.201 143.868 169.651 146.281C161.705 148.813 152.212 154.493 144.045 152.08C128.269 147.429 113.008 142.102 96.7903 138.967C81.0786 135.956 65.1662 134.106 49.1826 133.434C48.2172 133.434 47.2786 133.751 46.5105 134.336C45.7423 134.921 45.187 135.741 44.9296 136.671C43.767 141.395 42.0893 146.119 41.9863 151.005C41.898 157.01 42.1334 163.029 42.2217 169.033C42.4572 187.674 42.6976 206.349 42.9428 225.058C43.09 236.949 41.4712 250.341 56.0257 254.329C69.8739 258.141 84.1194 260.893 98.1148 264.16C113.199 267.677 128.239 271.518 143.397 274.712C145.869 275.219 148.431 275.072 150.829 274.285L171.27 268.972L222.778 255.61C227.458 254.388 232.491 253.579 236.155 250.12C240.967 245.588 241.114 239.937 241.1 233.932L240.967 175.229V152.035C240.967 146.679 239.157 141.852 237.685 136.686C236.14 131.226 227.619 133.552 229.179 139.026C230.092 142.249 231.107 145.457 231.931 148.695C232.417 150.593 232.079 148.548 232.123 149.063C232.167 149.695 232.167 150.329 232.123 150.961C231.99 156.671 232.123 162.396 232.123 168.106C232.123 185.834 232.162 203.572 232.24 221.32C232.24 226.618 232.623 232.049 232.24 237.332C231.858 242.615 229.018 244.69 224.397 246.073C209.842 250.253 194.964 253.697 180.38 257.493L156.127 263.792C152.669 264.69 148.445 265.146 145.193 266.632C147.106 265.749 148.136 266.912 145.193 266.103C142.867 265.44 140.454 264.999 138.114 264.454L115.819 259.259L66.4597 247.736C63.2074 246.986 59.3517 246.633 56.2907 245.146C50.6984 242.439 51.8757 236.243 51.758 231.063C51.5225 212.324 51.2822 193.595 51.0369 174.875C50.929 167.478 50.8309 160.071 50.7426 152.654C50.7426 151.947 50.8897 147.871 50.5954 150.049C51.3102 146.331 52.214 142.652 53.3032 139.026L49.1826 142.264C65.2549 142.925 81.2512 144.839 97.0257 147.988C104.875 149.588 112.694 151.501 120.484 153.728C128.96 156.156 137.216 159.879 145.722 162.087C152.154 163.75 160.571 158.555 166.767 156.495C174.405 153.963 182.101 151.609 189.872 149.534C204.079 145.508 218.688 143.07 233.432 142.264C239.098 142.102 239.128 133.272 233.432 133.434Z" fill="#333333"/>
<path d="M148.033 171.285C140.881 171.285 132.757 165.737 132.757 165.737L40.2793 148.15L41.5891 274.256L132.831 294.196C134.609 296.544 136.924 298.43 139.582 299.698C142.24 300.966 145.163 301.577 148.107 301.481C158.688 301.481 161.557 293.77 161.557 293.77L245.618 274.256V148.15L161.557 165.589C161.557 165.589 155.171 171.285 148.033 171.285Z" fill="#333333"/>
<path d="M148.032 166.87C142.322 166.502 138.613 163.073 133.566 161.41C131.145 160.791 128.687 160.329 126.208 160.026L94.8909 154.037L41.4555 143.883C40.7998 143.716 40.115 143.7 39.4522 143.835C38.7894 143.971 38.1658 144.254 37.628 144.665C37.0902 145.075 36.6521 145.602 36.3465 146.206C36.041 146.809 35.8758 147.474 35.8633 148.15L37.0112 258.524L37.173 274.27C37.1703 275.238 37.4856 276.18 38.0706 276.951C38.6556 277.722 39.4778 278.28 40.4107 278.538L90.9763 289.59L122.234 296.433C124.618 296.948 128.121 298.435 130.505 298.243C133.345 298.008 127.87 297.419 129.033 296.536C128.739 296.786 132.594 300.392 132.83 300.583C142.616 308.677 160.497 307.868 165.751 294.962L162.675 298.037L246.735 278.538C247.662 278.269 248.477 277.709 249.06 276.94C249.644 276.171 249.964 275.235 249.973 274.27V148.15C249.975 147.469 249.819 146.796 249.518 146.185C249.216 145.574 248.778 145.041 248.236 144.628C247.695 144.215 247.065 143.932 246.396 143.803C245.727 143.674 245.037 143.701 244.381 143.883L195.919 154.037L167.222 159.923C165.018 160.21 162.839 160.663 160.703 161.277C156.141 162.984 153.477 166.458 148.032 166.87C142.587 167.282 142.351 176.126 148.032 175.699C151.822 175.483 155.521 174.454 158.878 172.683C160.168 171.994 161.403 171.206 162.572 170.328C164.25 169.077 165.515 169.136 162.69 169.857C164.308 169.46 165.986 169.18 167.62 168.842L196.14 162.955L246.72 152.462L241.128 148.209V274.27C242.217 272.799 243.291 271.43 244.366 270.017L206.633 278.773C191.799 282.217 175.875 284.425 161.424 289.266C159.672 289.843 158.184 291.028 157.23 292.607C158.304 291.282 155.876 294.255 155.596 294.52C152.653 297.316 147.9 297.537 144.117 296.61C138.452 295.212 136.921 290.723 131.682 289.458C116.406 285.69 100.866 282.717 85.5018 279.362L42.8242 270.017L46.0765 274.27L44.9286 163.897L44.7667 148.15L39.1892 152.403L93.9785 162.867L125.516 168.871C127.5 169.123 129.466 169.502 131.402 170.004C130.152 169.592 130.858 169.916 131.667 170.328C133.213 171.108 134.611 172.006 136.244 172.727C139.951 174.434 143.944 175.432 148.017 175.67C153.698 176.112 153.683 167.282 148.032 166.87Z" fill="#333333"/>
<path d="M131.859 170.387V294.977C131.859 300.657 140.689 300.657 140.689 294.977V170.387C140.689 164.707 131.859 164.707 131.859 170.387Z" fill="#333333"/>
<path d="M153.492 170.387V294.977C153.492 300.657 162.322 300.657 162.322 294.977V170.387C162.322 164.707 153.492 164.707 153.492 170.387Z" fill="#333333"/>
<path d="M88.2554 243.248C89.5211 236.581 80.3674 235.536 76.1144 233.608C67.2845 229.62 62.3104 231.298 56.8211 232.137C48.1973 233.491 47.5645 231.474 29.1248 247.221C24.7834 250.93 16.0566 268.486 10.0817 269.708C-0.573009 271.886 5.46073 296.197 14.6144 302.628C31.2734 312.43 44.0472 296.168 60.7946 297.11C67.0196 296.197 81.015 297.963 83.3107 289.84C83.6257 288.665 83.6096 287.426 83.2641 286.26C82.9187 285.094 82.2574 284.046 81.3534 283.232C78.8958 281.084 75.2755 281.113 72.0085 281.29C64.1058 281.687 56.1883 282.187 48.3003 282.761L74.9076 280.774C78.4984 280.495 82.2658 280.156 85.2091 277.978C88.1524 275.8 89.3003 271.106 86.6808 268.619C85.0767 267.073 82.6632 266.867 80.441 266.75C68.8543 266.181 57.2528 266.004 45.6366 266.22L74.0688 265.558C77.9687 265.455 82.1923 265.263 85.2239 262.82C92.4202 257.037 85.5476 252.313 79.5139 250.62C69.7863 252.857 54.8197 249.885 48.8448 250.194C57.763 249.733 66.6909 249.654 75.6287 249.958C76.9441 250.036 78.2469 250.259 79.5139 250.62C80.7606 250.357 81.9746 249.957 83.1341 249.428C84.4334 248.904 85.5818 248.064 86.4758 246.985C87.3699 245.906 87.9814 244.622 88.2554 243.248Z" fill="white"/>
<path d="M92.6689 243.248C93.3606 233.403 82.1319 230.872 74.7443 228.326C66.768 225.574 57.8204 226.987 49.7263 228.694C42.4858 230.165 36.5846 235.346 31.0217 239.908C27.3329 242.754 24.0762 246.12 21.353 249.9C18.189 254.389 15.4664 259.878 11.3458 263.601C8.87348 265.853 5.53285 266.265 3.29595 268.884C1.05378 271.841 -0.104787 275.477 0.0141891 279.186C-0.132975 287.751 3.44313 297.89 9.52102 304.027C17.3502 311.915 29.3146 310.914 38.8803 307.456C44.1782 305.543 49.329 302.968 54.9065 301.937C59.8954 301.025 65.208 301.364 70.2705 300.951C78.8943 300.245 91.1973 295.786 87.3121 284.557C85.4578 279.171 80.3365 277.081 75.0092 276.831C66.1793 276.434 57.0698 277.714 48.3136 278.376C42.6772 278.788 42.633 287.633 48.3136 287.206C58.6151 286.441 69.1079 286.309 79.2181 284.734C85.4726 283.777 91.5799 280.319 92.3451 273.446C93.184 265.882 86.8853 262.88 80.3954 262.365C68.8724 261.482 57.1434 261.644 45.591 261.835V270.665C53.9205 270.459 99.7181 274.756 92.0508 254.845C89.24 247.56 81.1312 246.339 74.5677 246.927C65.9438 247.693 57.4083 245.662 48.7992 245.809V254.639C54.156 254.389 59.5128 254.227 64.8696 254.227C69.6818 254.227 74.7737 255.272 79.4683 255.066C82.4635 254.832 85.3155 253.687 87.6411 251.785C89.9667 249.883 91.6545 247.315 92.4776 244.426C94.0964 238.966 85.5756 236.626 83.9715 242.071C82.2055 247.958 73.4345 245.485 68.8871 245.426C62.1912 245.338 55.4952 245.426 48.7992 245.809C43.1481 246.059 43.0892 254.727 48.7992 254.639C53.4496 254.551 58.0853 255.242 62.7209 255.581C67.7981 255.934 73.2579 254.845 78.1732 255.345C80.6897 255.61 86.5616 256.949 79.895 260.584C77.1872 262.056 71.3448 261.232 68.3426 261.305L45.591 261.835C39.9252 261.968 39.8957 270.753 45.591 270.665C51.2863 270.577 57.2023 270.547 63.0006 270.665C65.9438 270.665 68.7988 270.768 71.698 270.871C73.6405 270.871 75.5684 271.004 77.4963 271.092C80.2139 270.248 81.141 271.028 80.2777 273.432C80.1746 277.243 76.6133 276.272 73.5522 276.507L65.5612 277.111L48.2694 278.406V287.236C55.2892 286.706 62.3089 286.22 69.3433 285.867C71.021 285.779 81.9553 284.307 77.7464 290.282C76.7604 291.754 72.5074 291.901 71.0504 292.063C62.3972 293.005 54.1707 292.401 45.7823 295.344C36.9525 298.464 24.1933 305.94 15.7314 297.787C11.596 293.814 5.42985 280.128 9.84478 274.756C11.3164 272.961 15.0544 272.225 16.997 270.341C20.0188 267.197 22.702 263.744 25.0027 260.04C30.0763 252.32 36.6651 245.711 44.3695 240.614C48.5343 237.833 52.1251 237.156 56.9374 236.464C62.4266 235.669 66.9004 234.992 72.3308 236.758C75.0533 237.685 84.1039 239.702 83.7802 243.175C83.4417 248.929 92.2863 248.899 92.6689 243.248Z" fill="#333333"/>
<path d="M48.8301 250.223C54.805 249.914 69.7716 252.887 79.4992 250.65C78.2322 250.288 76.9294 250.066 75.614 249.988C66.686 249.693 57.7581 249.772 48.8301 250.223Z" fill="white"/>
<path d="M48.8288 254.638C59.5571 254.403 69.9469 257.022 80.6751 254.918C84.9576 254.064 84.8252 247.339 80.6751 246.397C70.5797 244.116 59.0861 245.323 48.8288 245.808C43.1777 246.058 43.1335 254.903 48.8288 254.638C58.1884 254.197 69.1375 252.828 78.2617 254.918V246.397C68.4311 248.325 58.6005 245.602 48.8288 245.808C43.1629 245.926 43.1335 254.756 48.8288 254.638Z" fill="#333333"/>
<path d="M276.757 273.505C270.87 272.283 262.894 255.963 258.861 251.916C242.968 236.037 239.568 234.109 230.9 232.784C225.396 231.96 222.762 235.286 213.079 236.199C208.517 236.625 199.083 239.583 198.553 241.585C197.317 246.191 198.23 251.047 200.952 251.886C210.812 255.183 228.281 249.414 228.281 249.414L240.333 254.624C240.333 254.624 218.068 252.431 205.809 254.241C200.982 254.962 198.23 259.156 199.495 264.896C201.07 272.004 236.036 268.575 241.673 270.135C236.625 270.223 212.107 269.414 202.777 270.973C195.507 272.18 199.451 282.747 203.69 283.394C214.256 285.131 239.009 286.47 239.009 286.47C239.009 286.47 216.772 285.499 211.342 284.778C204.72 284.189 199.569 292.827 206.78 297.375C210.606 299.774 217.67 299.641 226.073 300.877C242.747 299.935 255.58 316.197 272.253 306.396C281.436 299.935 287.456 275.683 276.757 273.505Z" fill="white"/>
<path d="M277.978 269.252C271.65 267.177 267.456 255.404 263.424 250.444C258.076 243.981 251.866 238.281 244.969 233.506C240.437 230.318 235.083 228.504 229.546 228.281C226.279 228.281 223.321 229.444 220.246 230.342C216.037 231.593 211.681 231.813 207.442 232.829C201.07 234.404 194.345 236.508 193.785 243.94C193.035 253.77 199.098 257.185 208.046 257.42C212.216 257.409 216.374 256.96 220.452 256.081C221.452 255.89 228.34 255.08 228.987 253.947C228.884 254.124 224.984 252.122 227.515 253.947C228.576 254.54 229.689 255.033 230.841 255.419L238.2 258.583C238.935 255.831 239.671 253.093 240.422 250.356C230.7 249.27 220.906 248.97 211.136 249.458C206.25 249.767 201.217 250.121 197.891 254.079C196.387 255.897 195.401 258.086 195.035 260.417C194.67 262.748 194.94 265.134 195.816 267.324C198.759 273.844 209.37 273.755 215.345 274.05C223.454 274.462 232.71 272.813 240.657 274.565C241.04 271.621 241.437 268.781 241.82 265.897C231.96 265.985 222.1 265.558 212.24 265.897C204.411 266.206 193.27 266.662 194.58 277.434C195.86 287.574 204.558 288.207 212.873 289.046C221.57 289.914 230.312 290.517 239.038 290.988V282.158C233.152 281.913 227.305 281.614 221.496 281.261C215.139 280.863 207.678 278.877 202.512 283.762C201.32 284.86 200.389 286.212 199.79 287.719C199.192 289.225 198.939 290.846 199.052 292.463C199.165 294.08 199.641 295.651 200.444 297.059C201.246 298.467 202.356 299.677 203.69 300.598C211.563 306.485 223.925 304.086 232.975 305.999C242.35 308 250.635 313.769 260.377 314.049C264.145 314.247 267.903 313.505 271.312 311.889C274.721 310.273 277.674 307.834 279.906 304.792C286.263 295.962 292.871 273.741 277.978 269.326C272.518 267.707 270.193 276.228 275.638 277.832C283.379 280.127 274.005 299.656 270.164 302.585C259.465 310.723 244.292 299.038 233.373 297.096C227.118 295.977 220.658 296.198 214.359 295.153C213.034 294.932 209.135 294.564 208.384 293.137C207.177 290.841 209.856 289.649 211.327 289.296C212.953 289.24 214.58 289.388 216.169 289.737C223.763 290.311 231.386 290.664 238.994 290.988C244.69 291.253 244.645 282.482 238.994 282.158C233.858 281.879 228.693 281.54 223.571 281.143C219.936 280.863 205.073 281.614 203.616 277.64C202.159 273.667 219.127 274.535 222.041 274.521C228.604 274.521 235.168 274.712 241.717 274.653C246.573 274.653 247.883 267.089 242.894 265.985C231.003 263.351 218.244 267.221 206.338 264.16C205.295 264.04 204.291 263.693 203.395 263.145C204.376 265.058 204.764 263.89 204.558 259.642C205.72 258.924 207.048 258.519 208.413 258.465C212.725 257.626 217.567 257.994 221.938 258.082C228.104 258.2 234.27 258.538 240.407 259.142C244.645 259.539 246.617 252.622 242.644 250.915C238.67 249.208 235.109 247.413 231.253 246C227.927 244.779 226.058 245.676 222.747 246.515C219.892 247.236 197.818 251.166 202.998 243.66C204.205 241.894 210.209 241.188 212.284 240.805C216.008 240.296 219.699 239.563 223.336 238.612C235.315 234.992 242.747 242.395 251.018 250.386C256.227 255.433 259.686 260.864 263.806 266.765C266.911 271.18 270.267 276.036 275.579 277.788C280.892 279.539 283.364 271.018 277.978 269.252Z" fill="#333333"/>
<path d="M100.161 43.6632C97.2174 49.9177 86.7246 82.6912 86.7246 82.6912H143.589C143.589 82.6912 156.716 82.6912 160.174 73.0078C164.516 60.7637 166.223 43.1628 162.72 40.7935C144.001 29.3883 113.126 14.6277 100.161 43.6632Z" fill="#333333"/>
<path d="M96.392 41.3531C90.6968 54.23 86.8264 68.0635 82.4997 81.4407C82.318 82.0973 82.2908 82.7871 82.4201 83.456C82.5494 84.1249 82.8318 84.7549 83.2451 85.2965C83.6585 85.8381 84.1915 86.2766 84.8026 86.5779C85.4137 86.8792 86.0862 87.0349 86.7675 87.0329C105.811 87.0329 125.133 88.0484 144.162 87.0329C150.151 86.7092 156.509 84.8255 160.747 80.3664C166.795 73.9942 167.958 62.4565 168.767 54.127C169.415 47.4898 169.856 40.1022 163.705 36.1435C156.817 31.7745 149.444 28.2235 141.733 25.5624C123.367 19.1902 105.251 22.781 96.4068 41.3678C93.9638 46.4744 101.587 50.9629 104.03 45.7828C113.757 25.3416 134.125 30.463 150.799 39.0279C152.844 40.0728 158.466 42.1037 159.805 44.0462C161.939 47.1367 159.805 55.9665 159.217 59.1747C157.568 68.5785 155.582 77.0994 144.75 78.1295C136.023 78.9536 126.914 78.1295 118.158 78.1295H86.7675L91.0205 83.7217C95.097 71.095 98.6437 57.8944 104.015 45.7386C106.281 40.7203 98.6878 36.1729 96.392 41.3531Z" fill="#333333"/>
</g>
<defs>
<clipPath id="clip0_791_4385">
<rect width="287" height="314.005" fill="white"/>
</clipPath>
</defs>
</svg>
