<svg width="156" height="26" viewBox="0 0 156 26" fill="none" xmlns="http://www.w3.org/2000/svg">
	<path d="M4.09245 2.56377C4.09245 2.47977 4.03245 2.41977 3.97245 2.37177C3.78045 2.19177 3.42045 1.90377 3.20445 1.74777C3.16845 1.72377 3.10845 1.68777 3.04845 1.63977C2.78445 1.45977 2.35245 1.14777 2.22045 1.14777C2.01645 1.14777 1.58445 1.77177 1.58445 1.91577C1.58445 2.03577 1.71645 2.10777 1.80045 2.16777C2.19645 2.43177 2.58045 2.71977 2.95245 3.00777C2.98845 3.03177 3.02445 3.05577 3.06045 3.09177C3.19245 3.19977 3.34845 3.31977 3.43245 3.31977C3.67245 3.31977 4.09245 2.75577 4.09245 2.56377ZM3.92445 7.39977C3.92445 7.18377 3.33645 6.71577 3.08445 6.71577C3.00045 6.71577 2.96445 6.75177 2.80845 7.09977C2.38845 8.01177 1.42845 9.67977 0.804453 10.4478C0.756453 10.4958 0.672453 10.5918 0.672453 10.6638C0.672453 10.7838 0.984453 11.0238 1.08045 11.0958C1.21245 11.2038 1.62045 11.5638 1.75245 11.5638C1.78845 11.5638 1.88445 11.5398 1.88445 11.4078C1.88445 11.3598 1.88445 11.3118 1.87245 11.2758C1.86045 11.2398 1.84845 11.1798 1.84845 11.1438C1.84845 11.0478 1.95645 10.9038 2.00445 10.8198C2.65245 9.82377 3.27645 8.79177 3.80445 7.71177C3.84045 7.65177 3.92445 7.45977 3.92445 7.39977ZM3.30045 5.14377C3.30045 4.96377 2.62845 4.49577 2.46045 4.37577C2.29245 4.24377 1.59645 3.72777 1.42845 3.72777C1.22445 3.72777 0.780453 4.32777 0.780453 4.51977C0.780453 4.61577 0.840453 4.66377 0.900453 4.69977C1.18845 4.87977 1.58445 5.15577 1.84845 5.35977C1.98045 5.46777 2.50845 5.92377 2.62845 5.92377C2.84445 5.92377 3.30045 5.35977 3.30045 5.14377ZM6.31245 9.96777C6.12045 9.96777 5.98845 9.83577 5.98845 9.63177V8.20377C5.98845 7.99977 6.12045 7.89177 6.31245 7.86777H8.95245C9.15645 7.89177 9.27645 7.99977 9.27645 8.20377V9.63177C9.27645 9.84777 9.15645 9.94377 8.95245 9.96777H6.31245ZM9.26445 11.3238C9.26445 11.3958 9.25245 11.4678 9.25245 11.5398C9.25245 11.7798 9.40845 11.7798 9.90045 11.7798C10.3685 11.7798 10.5365 11.7798 10.5365 11.5398C10.5365 11.4078 10.5125 10.9638 10.5125 10.6878V7.91577C10.5125 7.67577 10.5245 7.44777 10.5245 7.21977C10.5245 6.79977 10.1045 6.76377 9.79245 6.76377C9.49245 6.76377 9.18045 6.78777 8.88045 6.78777H6.39645C6.08445 6.78777 5.78445 6.76377 5.48445 6.76377C5.16045 6.76377 4.75245 6.81177 4.75245 7.21977C4.75245 7.44777 4.76445 7.68777 4.76445 7.91577V10.6758C4.76445 10.9398 4.74045 11.2998 4.74045 11.5398C4.74045 11.7678 4.89645 11.7678 5.36445 11.7678C5.89245 11.7678 6.01245 11.7558 6.01245 11.5278C6.01245 11.4678 6.00045 11.3958 6.00045 11.3358C6.00045 11.1438 6.08445 11.0598 6.27645 11.0598H8.98845C9.16845 11.0598 9.25245 11.1438 9.26445 11.3238ZM6.61245 1.13577C6.27645 2.17977 5.86845 3.21177 5.40045 4.20777C5.29245 4.42377 5.19645 4.48377 4.95645 4.50777C4.83645 4.50777 4.70445 4.51977 4.57245 4.51977C4.50045 4.51977 4.42845 4.53177 4.36845 4.53177C4.06845 4.54377 3.96045 4.54377 3.96045 4.67577C3.96045 4.79577 4.17645 5.45577 4.21245 5.61177C4.27245 5.79177 4.32045 5.94777 4.44045 5.94777C4.51245 5.94777 4.56045 5.88777 4.58445 5.83977C4.64445 5.75577 4.66845 5.69577 4.77645 5.65977C6.37245 5.50377 7.95645 5.34777 9.55245 5.14377C9.57645 5.13177 9.61245 5.13177 9.63645 5.13177C9.81645 5.13177 9.91245 5.22777 10.0085 5.37177C10.0565 5.45577 10.0925 5.52777 10.1285 5.58777C10.2845 5.87577 10.3565 5.99577 10.4885 5.99577C10.6925 5.99577 11.4005 5.71977 11.4005 5.47977C11.4005 5.27577 10.7045 4.20777 10.5485 3.96777C10.2725 3.52377 9.92445 3.00777 9.58845 2.61177C9.52845 2.53977 9.44445 2.46777 9.34845 2.46777C9.19245 2.46777 8.44845 2.77977 8.44845 2.97177C8.44845 3.06777 8.61645 3.27177 8.82045 3.53577C8.90445 3.64377 9.00045 3.77577 9.09645 3.89577C9.12045 3.94377 9.14445 3.97977 9.14445 4.02777C9.14445 4.14777 9.06045 4.18377 8.96445 4.20777C8.26845 4.26777 7.58445 4.33977 6.90045 4.37577C6.78045 4.38777 6.69645 4.32777 6.69645 4.20777C6.69645 4.17177 6.70845 4.13577 6.72045 4.09977C7.09245 3.33177 7.45245 2.56377 7.75245 1.77177C7.81245 1.65177 7.86045 1.61577 7.99245 1.59177C8.06445 1.56777 8.16045 1.54377 8.16045 1.45977C8.16045 1.33977 7.99245 1.27977 7.89645 1.25577C7.74045 1.20777 6.88845 0.967773 6.79245 0.967773C6.68445 0.967773 6.64845 1.00377 6.61245 1.13577Z" fill="#333333" />
	<path d="M19.0565 9.81177C19.0565 9.72777 18.9605 9.66777 18.6245 9.53577C18.4685 9.47577 18.0965 9.30777 17.9645 9.30777C17.8805 9.30777 17.8325 9.39177 17.7845 9.45177C17.4005 9.95577 17.0045 10.3638 16.5245 10.7598C16.4045 10.8678 16.2725 10.9518 16.2725 11.0598C16.2725 11.2878 16.8845 11.6238 17.0525 11.6238C17.3285 11.6238 18.4205 10.3518 18.6245 10.0758C18.7325 9.93177 18.7565 9.93177 18.9005 9.91977C18.9725 9.91977 19.0565 9.89577 19.0565 9.81177ZM24.2045 11.1558C24.2045 10.9758 23.6645 10.3878 23.5205 10.2198C23.3285 10.0038 22.9925 9.64377 22.7885 9.45177C22.7285 9.39177 22.6565 9.34377 22.5725 9.34377C22.4405 9.34377 21.8045 9.61977 21.8045 9.83577C21.8045 9.91977 21.8885 10.0038 21.9485 10.0518C22.3205 10.4118 22.9085 11.1318 23.2085 11.5518C23.2565 11.6118 23.3165 11.6718 23.4125 11.6718C23.5805 11.6718 24.2045 11.3958 24.2045 11.1558ZM15.1445 5.14377C15.1445 4.97577 14.8925 4.25577 14.8325 4.05177C14.6405 3.45177 14.5445 3.24777 14.3765 3.24777C14.2565 3.24777 13.7285 3.40377 13.7285 3.59577C13.7285 3.66777 13.7645 3.75177 13.7885 3.81177C13.9565 4.21977 14.0885 4.65177 14.1965 5.08377C14.2565 5.32377 14.2925 5.53977 14.4725 5.53977C14.5205 5.53977 15.1445 5.44377 15.1445 5.14377ZM21.5405 7.79577C21.6725 7.80777 21.7565 7.89177 21.7685 8.02377V8.11977C21.7565 8.25177 21.6725 8.33577 21.5405 8.34777H19.2125C19.0685 8.34777 18.9845 8.25177 18.9845 8.11977V8.02377C18.9845 7.89177 19.0685 7.79577 19.2125 7.79577H21.5405ZM19.2125 7.06377C19.0685 7.06377 18.9845 6.97977 18.9845 6.83577V6.77577C18.9845 6.63177 19.0685 6.54777 19.2125 6.54777H21.5405C21.6725 6.55977 21.7565 6.64377 21.7685 6.77577V6.83577C21.7685 6.97977 21.6725 7.05177 21.5405 7.06377H19.2125ZM21.0245 5.02377C21.1085 5.16777 21.2165 5.31177 21.3125 5.44377C21.3365 5.47977 21.3485 5.51577 21.3485 5.56377C21.3485 5.67177 21.2645 5.69577 21.1685 5.70777H19.6445C19.5485 5.69577 19.4765 5.67177 19.4765 5.56377C19.4765 5.51577 19.4885 5.49177 19.5125 5.45577C19.6205 5.31177 19.7405 5.16777 19.8365 5.01177C19.9925 4.81977 20.1005 4.77177 20.3405 4.77177H20.5205C20.7725 4.77177 20.8685 4.81977 21.0245 5.02377ZM21.5645 9.18777C21.8165 9.18777 22.0685 9.21177 22.3085 9.21177C22.6565 9.21177 22.8245 9.09177 22.8245 8.74377C22.8245 8.55177 22.8125 8.35977 22.8125 8.16777V7.41177C22.8125 7.32777 22.8485 7.24377 22.9445 7.24377C22.9925 7.24377 23.0165 7.26777 23.0525 7.29177C23.2085 7.41177 23.7725 7.87977 23.9405 7.87977C24.1325 7.87977 24.6005 7.41177 24.6005 7.19577C24.6005 7.08777 24.5165 7.02777 24.4325 6.97977C24.0965 6.78777 23.8445 6.60777 23.5445 6.37977C23.4845 6.31977 23.4365 6.27177 23.4365 6.17577C23.4365 6.09177 23.4845 6.03177 23.5445 5.98377C23.6525 5.88777 23.7725 5.79177 23.8925 5.69577C23.9165 5.67177 23.9525 5.65977 23.9885 5.65977C24.0125 5.65977 24.0605 5.67177 24.0845 5.67177C24.1085 5.68377 24.1445 5.68377 24.1805 5.68377C24.2405 5.68377 24.3005 5.63577 24.3005 5.56377C24.3005 5.44377 23.5685 4.83177 23.4605 4.83177C23.3885 4.83177 23.3525 4.86777 23.3045 4.91577C23.1245 5.10777 23.0165 5.20377 22.8245 5.37177C22.7525 5.40777 22.7045 5.45577 22.6205 5.45577C22.5365 5.45577 22.4765 5.40777 22.4165 5.34777L22.1045 4.99977C22.0925 4.96377 22.0685 4.93977 22.0685 4.90377C22.0685 4.80777 22.1405 4.78377 22.2245 4.77177H22.6925C23.1725 4.77177 23.6525 4.80777 24.1325 4.80777C24.4325 4.80777 24.4325 4.69977 24.4325 4.31577C24.4325 3.95577 24.4445 3.83577 24.1325 3.83577C23.6525 3.83577 23.1725 3.85977 22.6925 3.85977H20.8325C20.7365 3.84777 20.6405 3.82377 20.6405 3.71577C20.6405 3.67977 20.6525 3.64377 20.6765 3.60777C20.7245 3.54777 20.7605 3.52377 20.8325 3.49977C20.9045 3.48777 21.0245 3.45177 21.0245 3.35577C21.0245 3.25977 20.8085 3.18777 20.6165 3.13977C20.5925 3.12777 20.4845 3.11577 20.4845 3.07977C20.4845 3.04377 20.5085 3.04377 20.5325 3.03177H22.6805C23.1605 3.03177 23.6405 3.06777 24.0725 3.06777C24.3485 3.06777 24.3485 2.91177 24.3485 2.51577C24.3485 2.09577 24.3485 1.96377 24.0725 1.96377C23.6045 1.96377 23.1485 1.98777 22.6805 1.98777H20.4725C20.2565 1.98777 20.1485 1.90377 20.1485 1.67577C20.1605 1.54377 20.1605 1.47177 20.2685 1.38777C20.3525 1.32777 20.4245 1.30377 20.4245 1.23177C20.4245 1.09977 20.2205 1.09977 20.1245 1.08777C19.9565 1.07577 19.2005 1.00377 19.0685 1.00377C18.9605 1.00377 18.8525 1.02777 18.8525 1.15977C18.8525 1.18377 18.8525 1.21977 18.8645 1.25577L18.9005 1.67577C18.8885 1.90377 18.7925 1.98777 18.5645 1.98777H17.0285C16.6445 1.98777 16.2605 1.96377 15.8765 1.96377C15.4445 1.96377 15.2285 2.07177 15.2285 2.53977C15.2285 2.92377 15.2525 3.29577 15.2525 3.66777V6.11577C15.2525 6.34377 15.2045 6.47577 15.0005 6.59577C14.7245 6.76377 14.4485 6.90777 14.1605 7.05177C14.0405 7.11177 13.7165 7.25577 13.7165 7.35177C13.7165 7.42377 13.7765 7.56777 13.8125 7.63977C13.8845 7.80777 13.9565 7.96377 14.0045 8.08377C14.1245 8.38377 14.1845 8.53977 14.3045 8.53977C14.4005 8.53977 14.4365 8.45577 14.4485 8.37177C14.4845 8.22777 14.4845 8.19177 14.5685 8.13177C14.6765 8.04777 14.7845 7.96377 14.8925 7.89177C14.9285 7.86777 14.9525 7.86777 14.9885 7.86777C15.0845 7.86777 15.1205 7.93977 15.1085 8.02377C14.9645 8.92377 14.5445 10.0158 14.0525 10.7958C14.0165 10.8558 13.9205 10.9878 13.9205 11.0598C13.9205 11.3118 14.5805 11.7078 14.7965 11.7078C14.9045 11.7078 14.9645 11.6478 15.0245 11.5638C15.2765 11.1918 15.4805 10.7598 15.6485 10.3398C16.2845 8.77977 16.3805 7.33977 16.3805 5.68377V3.36777C16.3805 3.12777 16.4765 3.05577 16.7165 3.03177H19.4165C19.5365 3.04377 19.6445 3.07977 19.6445 3.23577C19.6445 3.27177 19.6445 3.29577 19.6325 3.33177C19.5965 3.41577 19.5605 3.49977 19.5125 3.58377C19.4045 3.81177 19.2845 3.85977 19.0445 3.85977H18.4565C17.9765 3.85977 17.4965 3.83577 17.0165 3.83577C16.7165 3.83577 16.7165 3.93177 16.7165 4.31577C16.7165 4.69977 16.7165 4.80777 17.0045 4.80777C17.4845 4.80777 17.9645 4.77177 18.4325 4.77177C18.5285 4.78377 18.6125 4.81977 18.6125 4.91577C18.6125 4.96377 18.5885 4.98777 18.5645 5.02377C18.4685 5.13177 18.3845 5.25177 18.2765 5.35977C18.2165 5.41977 18.1445 5.46777 18.0605 5.46777C17.9645 5.46777 17.8925 5.41977 17.8205 5.35977C17.7245 5.26377 17.3525 4.89177 17.2445 4.89177C17.0885 4.89177 16.6325 5.32377 16.6325 5.47977C16.6325 5.56377 16.7285 5.64777 16.9085 5.79177C16.9805 5.83977 17.0645 5.91177 17.1485 5.98377C17.2205 6.04377 17.2565 6.09177 17.2565 6.18777C17.2565 6.28377 17.1965 6.34377 17.1365 6.39177C16.9805 6.51177 16.8605 6.59577 16.7525 6.67977C16.5245 6.83577 16.3925 6.93177 16.3925 7.01577C16.3925 7.20777 16.8725 7.68777 17.0765 7.68777C17.2325 7.68777 17.5685 7.41177 17.6885 7.30377C17.7245 7.27977 17.7485 7.26777 17.7965 7.26777C17.9045 7.26777 17.9285 7.33977 17.9405 7.43577V8.16777C17.9405 8.37177 17.9285 8.55177 17.9285 8.74377C17.9285 9.10377 18.0965 9.21177 18.4445 9.21177C18.6845 9.21177 18.9365 9.18777 19.1765 9.18777H19.4765C19.7045 9.18777 19.8125 9.28377 19.8125 9.52377V10.0278C19.8125 10.5318 19.8245 10.6638 19.3205 10.6638C19.1645 10.6638 19.0085 10.6398 18.9125 10.6398C18.6845 10.6398 18.6725 10.8558 18.6725 11.0358C18.6725 11.1918 18.7325 11.5638 18.8525 11.6838C18.9485 11.7678 19.2365 11.7678 19.3565 11.7678C19.7645 11.7678 20.3645 11.6958 20.6885 11.4318C20.9165 11.2398 20.9645 10.9758 20.9645 10.6998C20.9645 10.4358 20.9525 10.1838 20.9525 9.93177V9.52377C20.9525 9.28377 21.0485 9.18777 21.2765 9.18777H21.5645Z" fill="#333333" />
	<path d="M36.2405 3.95577C36.2405 4.11177 36.1085 4.14777 35.9645 4.14777C35.5085 4.17177 35.0525 4.17177 34.6085 4.17177H30.3005C29.8565 4.17177 29.4125 4.15977 28.9685 4.14777C28.8125 4.13577 28.7045 4.11177 28.6805 3.93177V3.70377C28.6805 3.47577 28.7765 3.36777 29.0165 3.36777H35.9045C36.1445 3.36777 36.2405 3.47577 36.2405 3.70377V3.95577ZM32.2805 5.38377C32.4005 5.28777 32.4605 5.26377 32.6045 5.23977C32.7965 5.26377 32.8805 5.35977 32.9405 5.52777C33.4805 7.12377 34.1885 8.47977 35.2805 9.76377C35.4965 10.0158 36.5045 11.0958 36.7925 11.0958C37.0205 11.0958 37.6085 10.6518 37.6085 10.4118C37.6085 10.3038 37.4165 10.1598 37.3445 10.0998C36.6245 9.51177 35.9765 8.82777 35.4365 8.07177C35.4005 8.01177 35.3645 7.96377 35.3645 7.89177C35.3645 7.78377 35.4365 7.71177 35.5205 7.63977C35.9765 7.36377 36.3965 7.03977 36.8165 6.72777C36.8645 6.70377 36.9005 6.67977 36.9485 6.67977C36.9845 6.67977 37.0205 6.69177 37.0565 6.70377C37.0925 6.71577 37.1285 6.72777 37.1645 6.72777C37.2365 6.72777 37.2845 6.66777 37.2845 6.59577C37.2845 6.51177 37.1525 6.36777 37.0565 6.27177C36.6365 5.80377 36.4325 5.59977 36.3365 5.59977C36.2525 5.59977 36.1925 5.68377 36.1085 5.75577C35.7485 6.09177 35.3645 6.40377 34.9565 6.67977C34.8965 6.71577 34.8485 6.75177 34.7765 6.75177C34.6565 6.75177 34.5965 6.66777 34.5365 6.58377C34.3685 6.21177 34.2245 5.91177 34.0925 5.53977C34.0805 5.50377 34.0685 5.47977 34.0685 5.44377C34.0685 5.28777 34.1885 5.23977 34.3205 5.23977H34.6085C35.0525 5.23977 35.5085 5.26377 35.9645 5.26377C36.2405 5.26377 36.2405 5.13177 36.2405 4.89177C36.2645 4.72377 36.3725 4.68777 36.5285 4.68777H36.8285C37.2965 4.68777 37.4885 4.71177 37.4885 4.42377C37.4885 4.25577 37.4645 4.08777 37.4645 3.93177V3.39177C37.4645 3.12777 37.4765 2.88777 37.4765 2.75577C37.4765 2.32377 37.0805 2.27577 36.7445 2.27577C36.3125 2.27577 35.8925 2.28777 35.4725 2.28777H33.4445C33.2165 2.28777 33.1085 2.20377 33.1085 1.97577C33.0965 1.63977 33.1085 1.48377 33.2405 1.38777C33.3125 1.32777 33.3845 1.29177 33.3845 1.21977C33.3845 1.09977 33.2405 1.08777 33.1565 1.07577C32.9045 1.05177 32.2325 0.979773 31.9925 0.979773C31.8845 0.979773 31.7645 0.991773 31.7645 1.14777C31.7645 1.18377 31.7765 1.21977 31.7765 1.25577C31.8125 1.48377 31.8245 1.72377 31.8125 1.96377C31.8125 2.19177 31.7165 2.28777 31.4765 2.28777H29.4365C29.0285 2.28777 28.6805 2.27577 28.3805 2.27577C27.7565 2.27577 27.4205 2.33577 27.4205 2.76777C27.4205 2.89977 27.4445 3.11577 27.4445 3.39177V3.87177C27.4445 4.03977 27.4205 4.20777 27.4205 4.36377C27.4205 4.65177 27.6245 4.63977 28.0805 4.63977C28.1765 4.63977 28.2725 4.63977 28.3685 4.62777C28.5365 4.62777 28.6445 4.67577 28.6565 4.86777C28.6685 5.09577 28.6445 5.26377 28.9325 5.26377C29.3885 5.26377 29.8445 5.23977 30.3005 5.23977H30.5405C30.5885 5.23977 30.6485 5.26377 30.6485 5.32377C30.6485 5.35977 30.6245 5.39577 30.5885 5.40777C29.6885 5.97177 28.6925 6.36777 27.6845 6.69177C27.5165 6.75177 27.3125 6.79977 27.3125 6.95577C27.3125 7.18377 27.5765 7.72377 27.8285 7.72377C27.9245 7.72377 28.1165 7.65177 28.2005 7.62777C29.1725 7.27977 30.0005 6.88377 30.8885 6.36777C30.9245 6.34377 30.9605 6.33177 31.0085 6.33177C31.1285 6.33177 31.1765 6.40377 31.2125 6.45177C31.2605 6.51177 31.3085 6.57177 31.3085 6.65577C31.3085 6.75177 31.2485 6.81177 31.1765 6.87177C30.2165 7.55577 29.0165 8.10777 27.9005 8.51577C27.7325 8.57577 27.5765 8.61177 27.5765 8.76777C27.5765 8.98377 27.8405 9.49977 28.0805 9.49977C28.1765 9.49977 28.3805 9.41577 28.4885 9.37977C29.6285 8.93577 30.7445 8.33577 31.7045 7.56777C31.7765 7.51977 31.8245 7.49577 31.8965 7.49577C32.0045 7.49577 32.0645 7.55577 32.1125 7.63977C32.1605 7.72377 32.2085 7.79577 32.2085 7.90377C32.2085 8.02377 32.1485 8.08377 32.0765 8.15577C30.8645 9.07977 29.4245 9.81177 27.9845 10.2678C27.7685 10.3398 27.5765 10.3878 27.5765 10.5438C27.5765 10.7958 27.8885 11.2878 28.1525 11.2878C28.2605 11.2878 28.4765 11.2158 28.5725 11.1798C29.8925 10.6878 31.1765 10.0278 32.2925 9.16377C32.3285 9.13977 32.3645 9.11577 32.4245 9.11577C32.5205 9.11577 32.5685 9.18777 32.5805 9.28377C32.5925 9.36777 32.5925 9.43977 32.5925 9.52377C32.5925 10.4838 32.2925 10.5918 31.6205 10.5918C31.4045 10.5918 31.1765 10.5678 30.9605 10.5558C30.9125 10.5558 30.8405 10.5438 30.8045 10.5438C30.5885 10.5438 30.5645 10.7478 30.5645 10.9158C30.5645 11.7078 30.8045 11.7798 31.4645 11.7798C33.1205 11.7798 33.7925 11.4198 33.7925 9.65577C33.7925 8.20377 33.2045 6.87177 32.1005 5.91177C32.0405 5.86377 31.9925 5.80377 31.9925 5.71977C31.9925 5.63577 32.0525 5.57577 32.1005 5.52777L32.2805 5.38377Z" fill="#333333" />
	<path d="M45.0965 1.05177C44.9765 1.05177 44.9525 1.17177 44.9285 1.30377C44.8445 1.65177 44.4845 2.58777 44.2805 2.85177C44.1725 2.99577 43.8485 3.00777 43.5365 3.00777H43.1885C42.8405 3.00777 42.5285 2.98377 42.3245 2.98377C42.0245 2.98377 41.9765 3.05577 41.9765 3.53577C41.9765 4.14777 42.0245 4.20777 42.2885 4.20777C42.6605 4.20777 42.9365 4.17177 43.1285 4.17177C43.2965 4.17177 43.3925 4.20777 43.3925 4.31577C43.3925 4.54377 41.6525 6.95577 41.3765 7.25577C41.3165 7.32777 41.2205 7.42377 41.2205 7.51977C41.2205 7.73577 42.0245 8.21577 42.2405 8.21577C42.3245 8.21577 42.3725 8.15577 42.4085 8.09577C42.6605 7.66377 43.0685 7.03977 43.4165 6.69177C43.8845 6.21177 44.9885 5.63577 45.6605 5.63577C45.9365 5.63577 46.1285 5.77977 46.1885 6.04377C46.2125 6.12777 46.2485 6.29577 46.2485 6.37977C46.2485 6.52377 46.1525 6.59577 46.0325 6.65577C45.7805 6.77577 45.5285 6.90777 45.2885 7.05177C44.4605 7.54377 43.5845 8.13177 43.5845 9.21177C43.5845 10.0278 44.0525 10.6038 44.7845 10.9278C45.4205 11.2038 45.9965 11.2398 46.6805 11.2398C47.1965 11.2398 48.5285 11.1918 48.9845 11.0838C49.2485 11.0238 49.2605 10.9278 49.2605 10.5678C49.2605 9.88377 49.1765 9.75177 49.0205 9.75177C48.9365 9.75177 48.8525 9.76377 48.7805 9.77577C48.0005 9.96777 47.3525 10.0758 46.5485 10.0758C45.9725 10.0758 44.8085 10.0038 44.8085 9.19977C44.8085 8.45577 46.0445 7.92777 46.1045 7.92777C46.2245 7.92777 46.2605 8.02377 46.2605 8.13177C46.2605 8.38377 46.2365 8.64777 46.2365 8.91177C46.2365 9.22377 46.4525 9.24777 46.9685 9.24777C47.4245 9.24777 47.4845 9.19977 47.4845 8.76777C47.4845 8.39577 47.4725 8.03577 47.4725 7.66377V7.50777C47.4725 7.26777 47.5685 7.19577 47.7845 7.11177C48.2525 6.90777 48.7205 6.70377 49.2005 6.52377C49.2605 6.49977 49.3205 6.48777 49.3685 6.46377C49.5965 6.39177 49.7285 6.34377 49.7285 6.19977C49.7285 5.99577 49.4405 5.07177 49.2125 5.07177C49.1165 5.07177 48.9845 5.15577 48.9005 5.19177C48.7085 5.29977 47.6405 5.87577 47.4965 5.87577C47.3765 5.87577 47.3405 5.77977 47.3165 5.67177C47.1605 4.91577 46.7165 4.59177 45.9485 4.59177C45.5045 4.59177 45.0485 4.72377 44.6405 4.90377C44.5805 4.93977 44.4965 4.97577 44.4245 4.97577C44.3765 4.97577 44.3285 4.93977 44.3285 4.89177C44.3285 4.80777 44.6645 4.29177 44.7365 4.19577C44.8565 4.05177 44.9045 4.02777 45.0965 4.00377C45.8525 3.91977 46.6085 3.78777 47.3645 3.63177C47.6165 3.58377 48.0005 3.53577 48.0005 3.33177C48.0005 3.16377 47.9405 2.83977 47.9045 2.68377C47.8685 2.51577 47.8085 2.32377 47.6045 2.32377C47.5205 2.32377 47.3885 2.35977 47.3045 2.39577C47.0525 2.47977 46.1525 2.73177 45.9125 2.73177C45.8405 2.73177 45.7805 2.69577 45.7805 2.61177C45.7805 2.53977 45.8645 2.39577 45.9005 2.33577C46.0565 2.05977 46.1045 1.99977 46.2965 1.92777C46.3565 1.90377 46.4405 1.85577 46.4405 1.78377C46.4405 1.60377 45.2045 1.05177 45.0965 1.05177Z" fill="#333333" />
	<path d="M56.4125 8.37177C56.4125 8.16777 56.5325 8.04777 56.7365 8.04777H60.8645C61.0685 8.04777 61.1765 8.16777 61.2005 8.37177V9.45177C61.1765 9.65577 61.0685 9.76377 60.8645 9.78777H56.7365C56.5325 9.76377 56.4125 9.65577 56.4125 9.45177V8.37177ZM56.4125 5.65977C56.4125 5.45577 56.5325 5.34777 56.7365 5.32377H60.8645C61.0685 5.34777 61.1765 5.45577 61.2005 5.65977V6.58377C61.1765 6.78777 61.0685 6.89577 60.8645 6.91977H56.7365C56.5325 6.89577 56.4125 6.78777 56.4125 6.58377V5.65977ZM56.7365 4.19577C56.5325 4.17177 56.4125 4.07577 56.4125 3.85977V2.99577C56.4125 2.79177 56.5325 2.68377 56.7365 2.65977H60.8645C61.0685 2.68377 61.1765 2.79177 61.2005 2.99577V3.85977C61.1765 4.07577 61.0685 4.17177 60.8645 4.19577H56.7365ZM61.1765 11.4798C61.1765 11.7558 61.3445 11.7798 61.6325 11.7798H61.8485C62.3765 11.7798 62.5325 11.8038 62.5325 11.4318C62.5325 10.9638 62.5085 10.4838 62.5085 10.0158V3.22377C62.5085 2.83977 62.5325 2.45577 62.5325 2.07177C62.5325 1.60377 62.3405 1.45977 61.8845 1.45977C61.5365 1.45977 61.1885 1.48377 60.8405 1.48377H56.7725C56.4125 1.48377 56.0645 1.45977 55.7165 1.45977C55.2845 1.45977 55.0805 1.60377 55.0805 2.05977C55.0805 2.44377 55.1045 2.83977 55.1045 3.22377V9.99177C55.1045 10.4718 55.0685 10.9518 55.0685 11.4198C55.0685 11.7798 55.2485 11.7678 55.7525 11.7678C56.2805 11.7678 56.4365 11.7798 56.4365 11.4198V11.2998C56.4365 11.0838 56.5445 10.9878 56.7605 10.9878H60.8525C61.0685 10.9878 61.1765 11.0838 61.1765 11.3118V11.4798Z" fill="#333333" />
	<path d="M72.6964 9.52377C72.7204 9.31977 72.8284 9.21177 73.0324 9.18777H75.1805C75.3845 9.18777 75.4924 9.33177 75.5164 9.52377V9.73977C75.4924 9.93177 75.3845 10.0758 75.1805 10.0758H73.0324C72.8284 10.0518 72.7204 9.94377 72.6964 9.73977V9.52377ZM73.0324 8.23977C72.8284 8.21577 72.7204 8.10777 72.6964 7.90377V7.75977C72.7204 7.55577 72.8284 7.44777 73.0324 7.42377H75.1805C75.3845 7.42377 75.4924 7.56777 75.5164 7.75977V7.90377C75.4924 8.09577 75.3845 8.23977 75.1805 8.23977H73.0324ZM75.5044 11.3958C75.4924 11.4318 75.4924 11.4678 75.4924 11.5158C75.4924 11.7918 75.6365 11.7918 76.1045 11.7918C76.5605 11.7918 76.7045 11.7918 76.7045 11.5038C76.7045 11.2158 76.6805 10.9158 76.6805 10.6158V7.65177C76.6805 7.37577 76.7045 7.09977 76.7045 6.82377C76.7045 6.41577 76.5244 6.34377 76.1164 6.34377C75.9244 6.34377 75.6845 6.36777 75.3965 6.36777H72.8165C72.5285 6.36777 72.2885 6.34377 72.1085 6.34377C71.7005 6.34377 71.5204 6.41577 71.5204 6.81177C71.5204 7.08777 71.5324 7.37577 71.5324 7.65177V10.5798C71.5324 10.8678 71.5085 11.1918 71.5085 11.4798C71.5085 11.7678 71.6645 11.7558 72.0965 11.7558C72.5165 11.7558 72.7205 11.7798 72.7205 11.4918V11.3838C72.7205 11.1918 72.8165 11.1198 72.9965 11.1198H75.2284C75.4204 11.1198 75.4924 11.2038 75.5044 11.3958ZM72.5405 2.07177C72.5525 1.89177 72.5524 1.61577 72.6964 1.50777C72.7804 1.44777 72.8405 1.41177 72.8405 1.32777C72.8405 1.18377 72.6244 1.18377 72.5164 1.17177C72.2764 1.15977 71.7604 1.11177 71.5444 1.11177C71.4244 1.11177 71.3405 1.13577 71.3405 1.27977V1.39977C71.3765 1.73577 71.3885 2.05977 71.3885 2.39577V3.75177C71.3885 4.00377 71.3644 4.25577 71.3644 4.50777C71.3644 5.47977 72.1084 5.47977 72.8644 5.47977H75.6245C76.3085 5.47977 76.6325 5.46777 76.9805 4.80777C77.1125 4.55577 77.3285 3.94377 77.3285 3.65577C77.3285 3.31977 76.6204 3.23577 76.4764 3.23577C76.2484 3.23577 76.2364 3.37977 76.2004 3.57177C76.0444 4.42377 75.7564 4.39977 75.3484 4.39977H73.0925C72.6845 4.39977 72.5405 4.37577 72.5405 3.91977V3.67977C72.5405 3.45177 72.6124 3.34377 72.8524 3.29577C74.0404 3.07977 74.9525 2.86377 76.0805 2.44377C76.1165 2.43177 76.1644 2.40777 76.2124 2.40777C76.2604 2.40777 76.3324 2.44377 76.3804 2.46777C76.4284 2.49177 76.4885 2.51577 76.5365 2.51577C76.6205 2.51577 76.6684 2.45577 76.6684 2.39577C76.6684 2.25177 76.4165 1.84377 76.3325 1.71177C76.1405 1.41177 76.0444 1.25577 75.9484 1.25577C75.8884 1.25577 75.8164 1.31577 75.7684 1.33977C75.1564 1.68777 73.5844 2.16777 72.8644 2.32377C72.8284 2.33577 72.8044 2.33577 72.7684 2.33577C72.6124 2.33577 72.5525 2.21577 72.5405 2.07177ZM69.8045 4.27977C70.0085 4.27977 70.4284 4.30377 70.5844 4.30377C70.8844 4.30377 70.8605 4.12377 70.8605 3.72777C70.8605 3.31977 70.8844 3.15177 70.5844 3.15177C70.3684 3.15177 70.0445 3.18777 69.8045 3.17577C69.5765 3.17577 69.4805 3.07977 69.4805 2.83977V1.99977C69.4805 1.66377 69.4924 1.49577 69.6124 1.42377C69.6844 1.37577 69.7684 1.33977 69.7684 1.23177C69.7684 1.08777 69.5645 1.07577 69.4685 1.07577C69.2525 1.06377 68.6645 1.01577 68.4725 1.01577C68.3525 1.01577 68.2325 1.02777 68.2325 1.18377C68.2325 1.21977 68.2445 1.26777 68.2445 1.29177C68.2685 1.55577 68.2804 1.81977 68.2804 2.08377V2.83977C68.2804 3.07977 68.1845 3.17577 67.9565 3.17577C67.6445 3.18777 67.3444 3.15177 67.0564 3.15177C66.7564 3.15177 66.7684 3.29577 66.7684 3.72777C66.7684 4.14777 66.7564 4.30377 67.0564 4.30377C67.2964 4.30377 67.6445 4.26777 67.9565 4.27977C68.1845 4.27977 68.2804 4.37577 68.2804 4.61577V6.25977C68.2804 6.49977 68.2204 6.58377 67.9924 6.67977C67.5724 6.78777 67.2604 6.85977 67.0564 6.89577C66.6604 6.97977 66.5645 7.00377 66.5645 7.15977C66.5645 7.25577 66.7924 8.08377 66.8404 8.23977C66.8644 8.34777 66.9004 8.47977 67.0324 8.47977C67.1284 8.47977 67.1764 8.39577 67.2004 8.31177C67.2484 8.15577 67.2725 8.13177 67.4405 8.07177C67.5485 8.03577 67.7165 7.97577 67.9805 7.89177C68.0165 7.87977 68.0404 7.87977 68.0764 7.87977C68.2324 7.87977 68.2804 7.98777 68.2804 8.11977V9.70377C68.2804 10.3278 68.2925 10.4478 67.7885 10.4478C67.6565 10.4478 67.5365 10.4478 67.4165 10.4358C67.3685 10.4238 67.2845 10.4238 67.2485 10.4238C67.0445 10.4238 67.0085 10.5558 67.0085 10.7238C67.0085 10.9398 67.0565 11.2878 67.1645 11.4798C67.2845 11.6838 67.5845 11.6838 67.8005 11.6838C68.6885 11.6838 69.4924 11.5278 69.4924 10.4478C69.4924 10.1958 69.4805 9.94377 69.4805 9.69177V7.68777C69.4805 7.44777 69.5404 7.33977 69.7684 7.24377C70.8484 6.81177 70.9084 6.79977 70.9084 6.39177C70.9084 6.22377 70.8964 5.74377 70.6564 5.74377C70.5844 5.74377 69.9004 6.03177 69.7804 6.09177C69.7444 6.09177 69.7204 6.10377 69.6844 6.10377C69.5284 6.10377 69.4925 5.99577 69.4805 5.86377V4.61577C69.4805 4.37577 69.5765 4.29177 69.8045 4.27977Z" fill="#333333" />
	<path d="M84.6004 6.34377C85.0924 6.34377 85.2004 7.02777 85.2004 7.39977C85.2004 7.77177 85.0564 8.38377 84.5764 8.38377C84.0964 8.38377 84.0124 7.72377 84.0124 7.36377C84.0124 7.00377 84.1324 6.34377 84.6004 6.34377ZM84.6604 1.25577C84.5644 1.25577 84.5044 1.30377 84.5044 1.39977C84.5044 1.43577 84.5044 1.45977 84.5164 1.49577C84.5884 1.85577 84.6364 2.61177 84.6364 2.98377C84.6364 3.16377 84.5524 3.30777 84.3724 3.35577C84.2644 3.37977 81.4444 3.53577 81.1204 3.54777C80.5324 3.57177 80.4244 3.54777 80.4244 3.78777C80.4244 3.99177 80.4844 4.44777 80.5204 4.65177C80.5564 4.80777 80.5684 4.97577 80.7604 4.97577C80.8204 4.97577 80.8804 4.96377 80.9404 4.95177C81.5164 4.83177 83.0644 4.66377 83.6884 4.60377C83.8324 4.59177 84.3844 4.53177 84.4804 4.53177C84.6124 4.53177 84.6964 4.59177 84.6964 5.03577C84.6964 5.13177 84.6124 5.16777 84.5524 5.17977C83.3404 5.28777 82.8605 6.34377 82.8605 7.44777C82.8605 8.32377 83.2444 9.45177 84.2884 9.45177C84.3724 9.45177 84.4804 9.41577 84.5644 9.39177C84.6004 9.37977 84.6244 9.37977 84.6604 9.37977C84.7084 9.37977 84.7444 9.42777 84.7444 9.46377C84.7444 9.53577 84.7084 9.58377 84.6844 9.64377C84.3844 10.1718 84.2764 10.3758 83.8204 10.8078C83.7484 10.8798 83.5444 11.0478 83.5444 11.1438C83.5444 11.3598 84.5164 11.6598 84.6604 11.6598C85.1884 11.6598 86.4725 9.51177 86.4725 7.57977C86.4725 7.02777 86.3644 6.39177 86.1004 5.89977C85.9924 5.70777 85.9804 5.61177 85.9804 5.27577V4.85577C85.9804 4.68777 86.0405 4.51977 86.2085 4.45977C86.3405 4.42377 87.4564 4.41177 87.6724 4.41177C88.3444 4.41177 89.2444 4.47177 89.4124 4.47177C89.5324 4.47177 89.6764 4.48377 89.6764 3.75177C89.6764 3.21177 89.5924 3.13977 89.4004 3.13977C88.8844 3.13977 87.6004 3.21177 87.0124 3.23577C86.8804 3.23577 86.4124 3.27177 86.3164 3.27177C86.1004 3.27177 85.9684 3.15177 85.9684 2.92377C85.9684 2.67177 85.9684 2.40777 85.9804 2.15577C85.9924 1.80777 86.0884 1.71177 86.1724 1.65177C86.2084 1.61577 86.2444 1.57977 86.2444 1.51977C86.2444 1.41177 85.8845 1.37577 85.5965 1.35177C85.3085 1.32777 84.9364 1.25577 84.6604 1.25577Z" fill="#333333" />
	<path d="M98.5564 6.19977C99.1804 8.03577 100.176 9.55977 101.676 10.8078C101.88 10.9878 102.768 11.6838 102.996 11.6838C103.284 11.6838 103.788 11.0838 103.788 10.7718C103.788 10.6518 103.62 10.5558 103.5 10.4838C101.736 9.37977 100.38 7.79577 99.6485 5.83977C99.3125 4.95177 99.1565 4.06377 99.0605 3.12777C99.0605 3.04377 99.0485 2.94777 99.0485 2.86377C99.0605 2.47977 99.0724 2.09577 99.0724 1.72377C99.0844 1.62777 99.1085 1.56777 99.1925 1.51977C99.2765 1.48377 99.4085 1.43577 99.4085 1.31577C99.4085 1.17177 99.1924 1.15977 99.0724 1.14777C98.8684 1.11177 98.2205 1.03977 98.0405 1.03977C97.8005 1.03977 97.7524 1.18377 97.7524 1.39977C97.7524 1.75977 97.7765 2.10777 97.7765 2.45577C97.7765 5.88777 96.2884 8.65977 93.3484 10.4478C93.2044 10.5318 93.0485 10.6038 93.0485 10.7358C93.0485 11.0238 93.5525 11.6358 93.8525 11.6358C94.0445 11.6358 94.3204 11.4318 94.4764 11.3238C96.2884 10.0878 97.7404 8.33577 98.3644 6.19977C98.3764 6.16377 98.4124 6.11577 98.4604 6.11577C98.5084 6.11577 98.5325 6.15177 98.5564 6.19977Z" fill="#333333" />
	<path d="M110.796 3.77577C110.928 3.77577 110.988 3.87177 110.988 3.99177C110.988 4.56777 110.76 5.75577 110.604 6.33177C110.268 7.55577 109.596 8.92377 108.996 8.92377C108.384 8.92377 108.228 7.80777 108.228 7.36377C108.228 5.83977 109.02 4.55577 110.388 3.90777C110.484 3.85977 110.7 3.77577 110.796 3.77577ZM111.948 2.37177C109.116 2.37177 106.968 4.60377 106.968 7.41177C106.968 7.97577 107.076 8.62377 107.34 9.11577C107.664 9.72777 108.24 10.2558 108.972 10.2558C109.632 10.2558 110.16 9.81177 110.556 9.33177C111.708 7.95177 112.128 5.81577 112.26 4.06377C112.272 3.85977 112.272 3.59577 112.548 3.59577C112.656 3.59577 112.896 3.66777 113.004 3.70377C114.252 4.13577 114.924 5.28777 114.924 6.57177C114.924 8.28777 113.688 9.31977 112.116 9.69177C111.996 9.71577 111.816 9.73977 111.816 9.85977C111.816 10.1238 112.308 10.8678 112.62 10.8678C112.908 10.8678 113.652 10.5318 113.928 10.3878C115.392 9.60777 116.268 8.17977 116.268 6.51177C116.268 5.37177 115.86 4.36377 115.056 3.55977C114.204 2.71977 113.124 2.37177 111.948 2.37177Z" fill="#333333" />
	<path d="M124.512 8.95977C124.32 8.95977 123.768 9.66777 123.768 9.84777C123.768 10.0998 124.164 10.3998 124.356 10.5318C125.028 10.9758 126.132 11.0718 126.924 11.0718C127.224 11.0718 128.58 11.0118 128.796 10.9158C128.94 10.8318 128.928 10.5558 128.928 10.3158C128.928 9.83577 128.928 9.55977 128.724 9.55977C128.688 9.55977 128.64 9.57177 128.604 9.58377C128.016 9.76377 127.524 9.82377 126.9 9.82377C126.168 9.82377 125.256 9.71577 124.728 9.12777C124.68 9.06777 124.596 8.95977 124.512 8.95977ZM125.412 6.21177C125.412 6.41577 125.472 6.47577 125.712 6.47577C125.868 6.47577 126.012 6.46377 126.168 6.46377C126.816 6.46377 127.476 6.53577 128.076 6.76377C128.16 6.79977 128.244 6.82377 128.328 6.82377C128.448 6.82377 128.496 6.77577 128.544 6.66777C128.628 6.49977 128.772 6.00777 128.772 5.82777C128.772 5.69577 128.712 5.62377 128.604 5.58777C128.004 5.35977 126.828 5.25177 126.192 5.25177C125.628 5.25177 125.412 5.17977 125.412 6.21177ZM123.84 1.09977C123.72 1.09977 123.72 1.21977 123.708 1.39977C123.696 1.74777 123.408 3.34377 123.264 3.58377C123.156 3.76377 122.976 3.77577 122.208 3.77577C121.692 3.77577 121.188 3.72777 121.08 3.72777C120.936 3.72777 120.9 3.81177 120.9 3.94377C120.9 4.12377 120.948 4.66377 120.996 4.81977C121.068 5.04777 121.26 5.03577 121.5 5.03577C121.872 5.03577 122.4 4.97577 122.568 4.97577C122.688 4.97577 122.784 5.03577 122.784 5.15577C122.784 5.21577 122.712 5.39577 122.688 5.46777C122.22 6.73977 121.32 8.82777 120.564 9.90777C120.492 10.0038 120.36 10.1838 120.36 10.3038C120.36 10.5678 121.188 10.9518 121.38 10.9518C121.56 10.9518 121.656 10.7838 121.812 10.4958C122.616 9.00777 123.504 6.82377 124.044 5.20377C124.152 4.86777 124.188 4.80777 124.536 4.73577C125.148 4.61577 125.916 4.45977 126.504 4.26777C126.708 4.20777 126.732 4.03977 126.732 3.83577C126.732 3.65577 126.732 2.92377 126.492 2.92377C126.408 2.92377 126.324 2.94777 126.24 2.98377C126 3.07977 125.064 3.42777 124.848 3.42777C124.752 3.42777 124.668 3.35577 124.668 3.24777C124.668 3.18777 124.92 2.31177 124.956 2.17977C125.04 1.91577 125.052 1.86777 125.232 1.75977C125.268 1.73577 125.34 1.69977 125.34 1.63977C125.34 1.50777 125.004 1.42377 124.896 1.38777C124.74 1.33977 123.948 1.09977 123.84 1.09977Z" fill="#333333" />
	<path d="M137.736 4.63977C137.844 4.63977 137.904 4.69977 137.904 4.80777C137.904 5.14377 137.292 7.12377 136.98 7.12377C136.86 7.12377 136.812 6.97977 136.704 6.73977C136.62 6.54777 136.212 5.58777 136.212 5.43177C136.212 5.03577 137.448 4.63977 137.736 4.63977ZM136.128 8.31177C136.128 8.58777 135.468 9.01977 135.12 9.01977C134.712 9.01977 134.664 8.45577 134.664 8.14377C134.664 7.37577 135.036 6.48777 135.228 6.48777C135.312 6.48777 135.372 6.59577 135.396 6.65577C135.612 7.15977 135.84 7.63977 136.08 8.13177C136.104 8.19177 136.128 8.23977 136.128 8.31177ZM138.312 1.66377C138.168 1.66377 138.144 1.75977 138.144 1.87977C138.144 2.04777 138.156 2.22777 138.156 2.40777C138.156 3.31977 138.132 3.39177 137.724 3.45177C137.124 3.54777 136.668 3.70377 136.128 3.97977C136.056 4.01577 136.008 4.03977 135.924 4.03977C135.792 4.03977 135.744 3.95577 135.708 3.84777C135.636 3.57177 135.54 3.11577 135.492 2.82777C135.468 2.67177 135.456 2.47977 135.264 2.47977C135.108 2.47977 134.496 2.65977 134.316 2.71977C134.22 2.74377 134.124 2.80377 134.124 2.91177C134.124 2.97177 134.148 3.04377 134.16 3.09177C134.328 3.60777 134.46 4.12377 134.628 4.62777C134.664 4.72377 134.7 4.81977 134.7 4.91577C134.7 5.03577 134.652 5.10777 134.568 5.19177C133.824 6.04377 133.452 7.01577 133.452 8.15577C133.452 9.07977 133.824 10.2438 134.94 10.2438C136.008 10.2438 136.98 9.41577 137.592 8.59977C138.36 7.57977 138.9 6.21177 139.128 4.95177C139.152 4.81977 139.224 4.66377 139.392 4.66377C139.728 4.66377 141.3 5.22777 141.3 6.85977C141.3 8.47977 139.872 9.49977 138.48 9.95577C138.288 10.0158 138.108 10.0518 138.108 10.1958C138.108 10.4358 138.588 11.1678 138.864 11.1678C139.044 11.1678 139.308 11.0358 139.464 10.9638C141.18 10.1478 142.56 8.91177 142.56 6.88377C142.56 5.14377 141.444 3.96777 139.8 3.54777C139.632 3.49977 139.404 3.47577 139.404 3.23577C139.404 3.21177 139.416 3.15177 139.416 3.12777C139.452 2.82777 139.452 2.61177 139.62 2.34777C139.656 2.27577 139.704 2.22777 139.704 2.14377C139.704 2.02377 139.584 1.97577 139.5 1.93977C139.32 1.86777 138.48 1.66377 138.312 1.66377Z" fill="#333333" />
	<path d="M150.396 3.77577C150.528 3.77577 150.588 3.87177 150.588 3.99177C150.588 4.56777 150.36 5.75577 150.204 6.33177C149.868 7.55577 149.196 8.92377 148.596 8.92377C147.984 8.92377 147.828 7.80777 147.828 7.36377C147.828 5.83977 148.62 4.55577 149.988 3.90777C150.084 3.85977 150.3 3.77577 150.396 3.77577ZM151.548 2.37177C148.716 2.37177 146.568 4.60377 146.568 7.41177C146.568 7.97577 146.676 8.62377 146.94 9.11577C147.264 9.72777 147.84 10.2558 148.572 10.2558C149.232 10.2558 149.76 9.81177 150.156 9.33177C151.308 7.95177 151.728 5.81577 151.86 4.06377C151.872 3.85977 151.872 3.59577 152.148 3.59577C152.256 3.59577 152.496 3.66777 152.604 3.70377C153.852 4.13577 154.524 5.28777 154.524 6.57177C154.524 8.28777 153.288 9.31977 151.716 9.69177C151.596 9.71577 151.416 9.73977 151.416 9.85977C151.416 10.1238 151.908 10.8678 152.22 10.8678C152.508 10.8678 153.252 10.5318 153.528 10.3878C154.992 9.60777 155.868 8.17977 155.868 6.51177C155.868 5.37177 155.46 4.36377 154.656 3.55977C153.804 2.71977 152.724 2.37177 151.548 2.37177Z" fill="#333333" />
	<path d="M11.4845 24.2078C11.4845 24.0638 11.0765 23.1158 10.9925 22.9238C10.8605 22.6358 10.6925 22.2998 10.5365 22.0238C10.4765 21.9278 10.4165 21.8558 10.2965 21.8558C10.1285 21.8558 9.64845 22.0838 9.64845 22.2878C9.64845 22.3598 9.69645 22.4558 9.73245 22.5158C10.0565 23.1038 10.3085 23.7278 10.5365 24.3758C10.5725 24.4958 10.6085 24.6398 10.7765 24.6398C10.9685 24.6398 11.4845 24.4358 11.4845 24.2078ZM9.30045 22.5758C9.30045 22.4078 8.82045 21.5558 8.70045 21.3638C8.58045 21.1598 8.52045 21.0158 8.35245 21.0158C8.18445 21.0158 7.71645 21.2198 7.71645 21.4118C7.71645 21.4718 7.76445 21.5678 7.80045 21.6158C8.00445 21.9518 8.19645 22.3118 8.35245 22.6718C8.44845 22.8998 8.49645 23.0078 8.64045 23.0078C8.74845 23.0078 9.30045 22.8518 9.30045 22.5758ZM11.4005 17.9918C11.4005 17.8838 11.2445 17.7638 11.1605 17.6798C10.5245 17.1158 10.0565 16.4918 9.69645 15.7238C9.58845 15.4958 9.55245 15.3638 9.36045 15.3638C9.13245 15.3638 8.55645 15.6398 8.55645 15.8438C8.55645 16.0958 9.22845 17.1278 9.39645 17.3798C9.55245 17.6078 10.3925 18.6998 10.6205 18.6998C10.8485 18.6998 11.4005 18.2438 11.4005 17.9918ZM7.45245 15.9638C7.45245 15.8438 7.23645 15.7478 6.96045 15.6158C6.84045 15.5558 6.51645 15.3878 6.38445 15.3878C6.27645 15.3878 6.22845 15.4958 6.19245 15.5798C5.76045 16.4438 5.36445 17.1038 4.72845 17.8358C4.65645 17.9078 4.56045 17.9918 4.56045 18.0998C4.56045 18.2918 5.12445 18.7118 5.31645 18.7118C5.74845 18.7118 6.82845 16.7798 7.04445 16.3598C7.12845 16.1798 7.15245 16.1798 7.28445 16.1438C7.36845 16.1198 7.45245 16.0598 7.45245 15.9638ZM1.14045 21.8678C0.996453 21.8678 1.00845 21.9998 1.00845 22.0838C0.948453 22.7678 0.780453 23.8238 0.624453 24.4838C0.612453 24.5558 0.564453 24.7478 0.564453 24.8078C0.564453 25.0118 1.10445 25.1558 1.20045 25.1558C1.35645 25.1558 1.40445 24.9998 1.44045 24.8798C1.52445 24.4598 1.78845 22.9358 1.83645 22.5038C1.84845 22.4318 1.84845 22.3358 1.93245 22.2878C1.98045 22.2638 2.07645 22.2278 2.07645 22.1558C2.07645 22.0358 1.96845 22.0118 1.78845 21.9758C1.48845 21.9038 1.23645 21.8678 1.14045 21.8678ZM7.96845 24.5198C7.66845 24.5198 7.52445 24.5198 7.52445 24.1598V22.8158C7.52445 22.3958 7.52445 22.2278 7.69245 22.1078C7.74045 22.0718 7.78845 22.0478 7.78845 21.9758C7.78845 21.8798 7.65645 21.8678 7.58445 21.8558C7.40445 21.8438 6.78045 21.8078 6.61245 21.8078C6.51645 21.8078 6.43245 21.8198 6.43245 21.9398C6.43245 21.9758 6.44445 22.0118 6.44445 22.0478C6.46845 22.2998 6.48045 22.5518 6.48045 22.8158V24.3278C6.48045 24.4958 6.45645 24.6758 6.45645 24.8558C6.45645 25.5638 7.09245 25.6478 7.64445 25.6478H8.56845C8.97645 25.6478 9.38445 25.6598 9.64845 25.2878C9.86445 24.9878 10.0805 24.1718 10.0805 23.8118C10.0805 23.4998 9.52845 23.4278 9.30045 23.4278C9.10845 23.4278 9.06045 23.5238 9.03645 23.6918C8.94045 24.3878 8.91645 24.5198 8.41245 24.5198H7.96845ZM9.85245 20.8238C9.88845 20.8958 9.91245 20.9438 9.94845 21.0038C10.0445 21.1838 10.1045 21.2678 10.2245 21.2678C10.4045 21.2678 10.9805 20.9318 10.9805 20.7278C10.9805 20.5718 10.3325 19.6358 10.2005 19.4438C9.96045 19.1198 9.68445 18.7358 9.42045 18.4358C9.36045 18.3758 9.31245 18.3038 9.20445 18.3038C9.03645 18.3038 8.48445 18.6278 8.48445 18.8078C8.48445 18.8918 8.59245 19.0238 8.72445 19.1918C8.80845 19.2878 8.91645 19.3838 8.91645 19.5158C8.91645 19.6118 8.84445 19.6598 8.74845 19.6718C8.36445 19.7198 7.78845 19.7678 7.64445 19.7678C7.52445 19.7678 7.44045 19.6718 7.44045 19.5878C7.44045 19.5518 7.45245 19.5278 7.46445 19.4918C7.69245 18.9518 7.90845 18.4238 8.14845 17.8838C8.18445 17.7998 8.22045 17.7878 8.30445 17.7758C8.38845 17.7518 8.48445 17.7518 8.48445 17.6318C8.48445 17.5238 8.30445 17.4638 8.22045 17.4278C8.07645 17.3798 7.40445 17.1278 7.29645 17.1278C7.18845 17.1278 7.15245 17.2478 7.12845 17.3318C6.85245 18.1238 6.61245 18.7958 6.26445 19.5638C6.16845 19.7798 6.07245 19.8398 5.83245 19.8638C5.64045 19.8878 5.46045 19.8878 5.26845 19.8878C5.06445 19.8878 4.89645 19.8998 4.89645 20.0318C4.89645 20.1158 5.10045 20.7278 5.13645 20.8478C5.19645 21.0518 5.23245 21.2078 5.36445 21.2078C5.46045 21.2078 5.49645 21.1478 5.54445 21.0758C5.58045 21.0038 5.60445 20.9798 5.68845 20.9678C6.92445 20.8838 8.14845 20.7398 9.38445 20.5958H9.48045C9.66045 20.5958 9.75645 20.6798 9.85245 20.8238ZM1.27245 16.9598C1.22445 16.9118 1.16445 16.8638 1.09245 16.8638C0.900453 16.8638 0.564453 17.5238 0.564453 17.6918C0.564453 17.7758 0.624453 17.8238 0.684453 17.8718C1.21245 18.3158 1.34445 18.4358 1.82445 18.9158C1.89645 18.9998 1.95645 19.0838 1.95645 19.1918C1.95645 19.2758 1.93245 19.3358 1.89645 19.4078C1.78845 19.5998 1.66845 19.7918 1.54845 19.9838C1.40445 20.1998 1.32045 20.2358 1.06845 20.2598H0.912453C0.696453 20.2598 0.588453 20.2718 0.588453 20.4038C0.588453 20.4518 0.612453 20.5238 0.624453 20.5598C0.672453 20.7398 0.708453 20.8958 0.732453 21.0278C0.816453 21.3758 0.864453 21.5798 0.996453 21.5798C1.08045 21.5798 1.11645 21.5318 1.16445 21.4598C1.20045 21.3758 1.22445 21.3758 1.29645 21.3398C1.50045 21.3278 1.71645 21.3038 1.93245 21.2798H1.98045C2.17245 21.2798 2.24445 21.3998 2.24445 21.5678V23.7998C2.24445 24.3278 2.22045 24.8558 2.22045 25.3838C2.22045 25.7318 2.34045 25.7438 2.76045 25.7438C3.20445 25.7438 3.30045 25.7318 3.30045 25.3478C3.30045 24.8318 3.27645 24.3158 3.27645 23.7998V21.4358C3.27645 21.1958 3.34845 21.0998 3.58845 21.0518C3.64845 21.0518 3.67245 21.0398 3.70845 21.0398C3.85245 21.0398 3.93645 21.1358 3.98445 21.2558C4.03245 21.3878 4.08045 21.4598 4.22445 21.4598C4.40445 21.4598 4.86045 21.3398 4.86045 21.1238C4.86045 20.9798 4.60845 20.2598 4.54845 20.0918C4.26045 19.2998 4.17645 18.9518 3.94845 18.9518C3.79245 18.9518 3.31245 19.0958 3.31245 19.2758C3.31245 19.3478 3.44445 19.6478 3.48045 19.7318C3.49245 19.7678 3.51645 19.8158 3.51645 19.8518C3.51645 19.9958 3.40845 20.0558 3.28845 20.0798L2.90445 20.1158C2.80845 20.1158 2.72445 20.0798 2.72445 19.9718C2.72445 19.9358 2.73645 19.8998 2.74845 19.8758C3.27645 19.0478 3.76845 18.2078 4.23645 17.3318C4.28445 17.2358 4.33245 17.2238 4.45245 17.2118C4.50045 17.1998 4.60845 17.1998 4.60845 17.0918C4.60845 16.9838 4.42845 16.8998 4.34445 16.8518C4.30845 16.8278 4.21245 16.7918 4.11645 16.7318C3.88845 16.6118 3.57645 16.4438 3.50445 16.4438C3.42045 16.4438 3.39645 16.5278 3.34845 16.6358C3.14445 17.0438 2.96445 17.4638 2.73645 17.8718C2.70045 17.9438 2.64045 18.0158 2.54445 18.0158C2.46045 18.0158 2.41245 17.9918 2.35245 17.9318C2.30445 17.8838 2.26845 17.8478 2.23245 17.8118C2.18445 17.7518 2.14845 17.7038 2.14845 17.6318C2.14845 17.5718 2.16045 17.5358 2.18445 17.4878C2.52045 16.9238 2.80845 16.3598 3.09645 15.7838C3.14445 15.6758 3.20445 15.6518 3.31245 15.6278C3.38445 15.6158 3.45645 15.6038 3.45645 15.5078C3.45645 15.3278 2.43645 14.9678 2.41245 14.9678C2.32845 14.9678 2.30445 15.0518 2.25645 15.1838C2.02845 15.7718 1.75245 16.3478 1.48845 16.9118C1.45245 16.9598 1.42845 16.9958 1.36845 16.9958C1.33245 16.9958 1.30845 16.9838 1.27245 16.9598ZM4.74045 24.2918C4.71645 24.3878 4.58445 24.7718 4.58445 24.8318C4.58445 25.0478 5.20845 25.1438 5.35245 25.1438C5.47245 25.1438 5.53245 25.0718 5.56845 24.9638C5.76045 24.4958 5.94045 23.3798 6.00045 22.8518C6.02445 22.7078 6.02445 22.6598 6.14445 22.6118C6.20445 22.5878 6.27645 22.5398 6.27645 22.4678C6.27645 22.3718 6.07245 22.3358 5.97645 22.3118C5.86845 22.2878 5.30445 22.1798 5.22045 22.1798C5.06445 22.1798 5.07645 22.2638 5.06445 22.4318C5.02845 22.7918 4.99245 23.1398 4.93245 23.4878C4.92045 23.5238 4.89645 23.5478 4.86045 23.5478C4.82445 23.5478 4.80045 23.5238 4.78845 23.4878C4.66845 23.0198 4.51245 22.4078 4.33245 21.9518C4.28445 21.8438 4.20045 21.7958 4.08045 21.7958C3.93645 21.7958 3.51645 21.8798 3.51645 22.0598C3.51645 22.1198 3.55245 22.2038 3.57645 22.2638C3.72045 22.6718 3.81645 23.1038 3.92445 23.5238C3.94845 23.6078 3.96045 23.6798 3.98445 23.7518C4.05645 24.0638 4.08045 24.1958 4.24845 24.1958C4.33245 24.1958 4.45245 24.1598 4.53645 24.1238C4.56045 24.1238 4.58445 24.1118 4.60845 24.1118C4.68045 24.1118 4.76445 24.1598 4.74045 24.2918Z" fill="#333333" />
	<path d="M17.3885 24.0038C17.1845 23.9798 17.0765 23.8718 17.0525 23.6678V22.5398C17.0765 22.3238 17.1845 22.2278 17.3885 22.2038H21.0485C21.2525 22.2278 21.3605 22.3238 21.3845 22.5398V23.6678C21.3605 23.8718 21.2525 23.9798 21.0485 24.0038H17.3885ZM21.0845 25.0718C21.3005 25.0718 21.3605 25.1678 21.3605 25.3358V25.4918C21.3605 25.7918 21.5285 25.7918 22.0085 25.7918C22.4765 25.7918 22.6445 25.7918 22.6445 25.4798C22.6445 25.2878 22.6205 24.9038 22.6205 24.6158V22.4438C22.6205 22.2038 22.6325 21.9638 22.6325 21.7238C22.6325 21.1718 22.2965 21.0638 21.8045 21.0638C21.5045 21.0638 21.2045 21.0878 20.9045 21.0878H17.5325C17.2325 21.0878 16.9325 21.0638 16.6445 21.0638C16.1405 21.0638 15.8045 21.1718 15.8045 21.7358C15.8045 21.9638 15.8285 22.2038 15.8285 22.4438V24.5918C15.8285 24.7358 15.8045 25.4198 15.8045 25.4678C15.8045 25.7798 15.9725 25.7678 16.4285 25.7678C16.8965 25.7678 17.0765 25.7798 17.0765 25.4558V25.3358C17.0765 25.1438 17.1605 25.0718 17.3525 25.0718H21.0845ZM19.4165 16.6718C19.8365 17.2238 20.3645 17.8238 20.8685 18.2798C20.9165 18.3158 20.9525 18.3518 21.0005 18.3878C21.1685 18.5438 21.3005 18.6518 21.3005 18.7598C21.3005 18.9398 21.1085 18.9278 20.3285 18.9278H18.1085C17.8205 18.9278 17.5445 18.9158 17.2685 18.9038C17.1965 18.9038 17.1245 18.8678 17.1245 18.7838C17.1245 18.7358 17.1365 18.7118 17.1725 18.6758C17.8445 18.0158 18.4445 17.4158 19.0325 16.6718C19.0925 16.6118 19.1405 16.5638 19.2245 16.5638C19.3205 16.5638 19.3685 16.6238 19.4165 16.6718ZM16.7045 19.5278C16.7045 19.7918 16.6925 20.0558 16.9445 20.0558C17.3285 20.0558 17.7125 20.0318 18.1085 20.0318H20.3285C20.7125 20.0318 21.1085 20.0558 21.4925 20.0558C21.7205 20.0558 21.7325 19.8518 21.7325 19.5758V19.3478C21.7325 19.2638 21.7445 19.1558 21.8525 19.1558C21.9125 19.1558 21.9485 19.1798 21.9965 19.2158C22.2845 19.4438 23.8205 20.5478 24.0845 20.5478C24.3125 20.5478 24.6725 19.8158 24.6725 19.5998C24.6725 19.4798 24.5765 19.4318 24.3365 19.2998C22.6925 18.3638 21.1445 17.2478 20.0765 15.6758C20.0645 15.6518 20.0525 15.6398 20.0525 15.6158C20.0525 15.5798 20.0765 15.5558 20.1125 15.5318C20.1845 15.5078 20.2565 15.4478 20.2565 15.3638C20.2565 15.2438 20.1125 15.2078 20.0165 15.1838C19.8125 15.1358 19.0085 14.9318 18.8525 14.9318C18.7445 14.9318 18.6965 15.0158 18.6605 15.0998C18.4325 15.5318 18.0005 16.1078 17.6885 16.4798C16.7525 17.6318 15.5285 18.6398 14.2205 19.3718C14.1125 19.4318 13.8965 19.5278 13.8965 19.6718C13.8965 19.9238 14.4005 20.5118 14.6525 20.5118C14.9405 20.5118 16.2005 19.5278 16.4885 19.2878C16.5125 19.2638 16.5365 19.2518 16.5845 19.2518C16.6685 19.2518 16.7045 19.3238 16.7045 19.3958V19.5278Z" fill="#333333" />
	<path d="M32.8085 19.5878C32.7365 19.5878 32.7005 19.5638 32.6285 19.5398C32.3165 19.3838 31.1525 18.8558 30.8645 18.8558C30.5525 18.8558 30.2525 19.6838 30.2525 19.8158C30.2525 19.9598 30.3845 20.0198 30.5045 20.0558C30.9485 20.2118 31.5245 20.3918 31.9325 20.6198C32.0285 20.6678 32.0885 20.7518 32.0885 20.8598C32.0885 20.9798 31.9685 21.1118 31.8965 21.1958C30.9965 22.2518 29.8565 23.0678 28.5725 23.5958C28.5485 23.6078 28.5125 23.6198 28.4765 23.6318C28.3205 23.6918 28.1285 23.7638 28.1285 23.9078C28.1285 24.0758 28.7165 24.8078 28.9805 24.8078C29.2685 24.8078 30.6245 23.9798 30.9125 23.7758C31.7285 23.2118 32.4245 22.5758 33.0485 21.8078C33.1325 21.7118 33.2045 21.6158 33.3485 21.6158C33.5525 21.6158 34.0325 22.1078 34.1885 22.2758C34.2605 22.3478 34.3685 22.4558 34.4885 22.4558C34.7165 22.4558 35.2685 21.6998 35.2685 21.4838C35.2685 21.3278 34.5365 20.7518 34.3805 20.6318C34.2605 20.5358 34.1525 20.4518 34.1525 20.2958C34.1525 20.2118 34.1885 20.1518 34.2245 20.0798C34.6565 19.2758 35.0765 18.3278 35.3765 17.4638C35.4485 17.2598 35.4725 17.1638 35.6525 17.0438C35.7125 17.0078 35.7845 16.9598 35.7845 16.8878C35.7845 16.7558 35.3765 16.6118 35.1485 16.5278C34.9685 16.4558 34.4165 16.2518 34.3085 16.2518C34.2005 16.2518 34.1885 16.4198 34.1765 16.5158C34.0805 17.3198 33.5885 18.4958 33.2045 19.2278C33.1085 19.3958 33.0485 19.5878 32.8085 19.5878Z" fill="#333333" />
	<path d="M50.4725 15.0638C50.3405 15.0638 49.8845 15.3998 49.8845 15.5438C49.8845 15.6038 49.9325 15.6518 49.9805 15.6998C50.1965 15.9278 50.4965 16.2518 50.6885 16.5038C50.8205 16.6718 50.9045 16.8038 50.9885 16.8038C51.1445 16.8038 51.5765 16.4438 51.5765 16.2758C51.5765 16.1558 51.1925 15.7478 51.0965 15.6398C51.0005 15.5318 50.5805 15.0638 50.4725 15.0638ZM49.5005 16.1318C49.3685 16.1318 48.9005 16.4678 48.9005 16.5998C48.9005 16.6598 48.9605 16.7198 49.0085 16.7558C49.2605 17.0438 49.5125 17.3318 49.7405 17.6438C49.8485 17.7758 49.9325 17.8838 49.9925 17.8838C50.1485 17.8838 50.5925 17.5358 50.5925 17.3558C50.5925 17.1998 49.6325 16.1318 49.5005 16.1318ZM42.5285 19.2878C42.0005 19.2878 41.4245 19.2518 41.0045 19.2518C40.7165 19.2518 40.7045 19.4318 40.7045 19.8758C40.7045 20.3318 40.6925 20.5598 41.0165 20.5598C41.4845 20.5598 42.0245 20.5238 42.5285 20.5238H44.9645C45.1205 20.5238 45.2405 20.6438 45.2405 20.8118C45.2405 20.8958 45.1685 21.2798 45.1445 21.3878C44.9285 22.2518 44.4005 23.1038 43.6325 23.5718C43.1525 23.8718 42.6605 24.0398 42.1205 24.1958C41.9765 24.2438 41.7965 24.2678 41.7965 24.4118C41.7965 24.6038 42.4445 25.3958 42.7085 25.3958C42.8405 25.3958 43.1405 25.2638 43.2725 25.2038C44.2565 24.7838 45.1925 24.1718 45.7685 23.2478C46.1645 22.6118 46.4405 21.8198 46.5605 21.0758C46.6085 20.8238 46.6085 20.5238 46.9445 20.5238H48.5165C49.0325 20.5238 49.5485 20.5478 50.0645 20.5478C50.3765 20.5478 50.4005 20.3798 50.4005 19.8878C50.4005 19.3118 50.3765 19.2518 50.0285 19.2518C49.5245 19.2518 49.0205 19.2878 48.5165 19.2878H42.5285ZM44.1125 16.1438C43.5725 16.1438 42.9965 16.1078 42.6125 16.1078C42.2525 16.1078 42.2765 16.3478 42.2765 16.7798C42.2765 17.2118 42.2525 17.4038 42.5885 17.4038C43.1045 17.4038 43.6085 17.3798 44.1125 17.3798H46.6685C47.1725 17.3798 47.6885 17.4038 48.1925 17.4038C48.5165 17.4038 48.5165 17.2358 48.5165 16.8278C48.5165 16.3478 48.5405 16.1078 48.1805 16.1078C47.7725 16.1078 47.1965 16.1438 46.6685 16.1438H44.1125Z" fill="#333333" />
	<path d="M59.4301 20.5958C59.4301 20.2358 59.4901 20.1758 59.7421 19.9358C60.1021 19.5758 60.5101 19.1318 60.8221 18.7358C60.9421 18.5918 60.9901 18.5198 61.1701 18.4718C61.2541 18.4598 61.3381 18.4238 61.3381 18.3278C61.3381 18.1718 61.1221 18.0398 61.0021 17.9678C60.8701 17.8718 60.4381 17.5478 60.2941 17.5478C60.1981 17.5478 60.1501 17.6678 60.0901 17.7638C59.0941 19.4198 57.1141 20.8238 55.3741 21.6398C55.2421 21.6998 55.0981 21.7598 55.0981 21.8918C55.0981 22.1078 55.6621 22.6838 55.8661 22.6838C56.1061 22.6838 57.5701 21.7118 57.8341 21.5198C57.9181 21.4598 58.0381 21.3518 58.1461 21.3518C58.2661 21.3518 58.2901 21.4718 58.2901 21.5318V24.0158C58.2901 24.3878 58.2661 24.7718 58.2661 25.1438C58.2661 25.4678 58.3021 25.5278 58.9741 25.5278C59.2021 25.5278 59.4541 25.5038 59.4541 25.2038C59.4541 24.7958 59.4301 24.3998 59.4301 23.9918V20.5958Z" fill="#333333" />
	<path d="M71.0581 18.6758C70.9381 18.6758 70.9381 18.7358 70.9381 18.8318C70.9381 19.4918 70.9141 19.9718 70.7461 20.6198C70.3861 22.0718 69.5101 23.3198 68.2381 24.1118C68.0701 24.2198 67.9501 24.2678 67.9501 24.3758C67.9501 24.5918 68.7301 25.2158 68.9341 25.2158C69.0661 25.2158 69.2341 25.0718 69.3301 24.9998C71.1181 23.6198 71.8621 22.0958 72.2101 19.8998C72.2461 19.6718 72.2941 19.2038 72.4501 19.0358C72.4861 18.9998 72.5221 18.9638 72.5221 18.9158C72.5221 18.7838 72.3541 18.7838 72.2701 18.7718C72.0901 18.7478 71.2141 18.6758 71.0581 18.6758ZM68.9581 16.8518C68.4061 16.8518 67.8541 16.8278 67.3021 16.8278C67.0261 16.8278 67.0021 16.9718 67.0021 17.2838V17.5238C67.0021 18.0038 67.0141 18.1358 67.3261 18.1358C67.8661 18.1358 68.4061 18.0998 68.9581 18.0998H74.1061C74.2141 18.0998 74.4781 18.0758 74.4781 18.2438C74.4781 18.4118 73.1461 19.5878 72.9301 19.7798C72.8461 19.8518 72.6301 20.0198 72.6301 20.1398C72.6301 20.3438 73.3021 20.8718 73.5061 20.8718C73.6261 20.8718 73.7101 20.7758 73.7941 20.7038C74.2381 20.3078 74.8621 19.6958 75.2821 19.2638C75.4261 19.1078 76.3261 18.1718 76.3981 18.1118C76.4941 18.0398 76.6621 17.9198 76.6621 17.7878C76.6621 17.5718 76.3621 17.2478 76.2181 17.0918C76.0741 16.9358 75.9541 16.7798 75.7741 16.7798C75.7141 16.7798 75.6661 16.7798 75.6181 16.7918C75.2341 16.8518 74.7661 16.8518 74.3701 16.8518H68.9581Z" fill="#333333" />
</svg>
