<svg width="150" height="28" viewBox="0 0 150 28" fill="none" xmlns="http://www.w3.org/2000/svg">
<path d="M29.4528 25.9838C29.4596 26.2376 29.4161 26.4902 29.3249 26.7272C29.2336 26.9641 29.0965 27.1807 28.9212 27.3644C28.5692 27.7165 27.8236 27.82 26.6914 27.6682C24.3097 27.2759 21.9042 27.0452 19.4913 26.9778C16.5136 26.8812 13.0182 26.9065 9.00511 27.0538C7.21186 27.1005 5.42516 27.2898 3.66193 27.6198C3.20627 27.8943 2.66935 28.0016 2.1432 27.9236C1.74907 27.772 1.40818 27.508 1.16292 27.1642C0.911938 26.9137 0.762029 26.5794 0.741819 26.2254C0.738233 25.8089 0.701297 25.3934 0.631366 24.9828C0.479493 23.9473 0.352932 20.1458 0.251683 13.5785C0.173445 8.27211 0.148133 5.30367 0.175746 4.67317C0.204643 4.14138 0.167543 3.60806 0.0652927 3.0854C-0.01409 2.76827 -0.0211835 2.43737 0.0445361 2.11713C0.110256 1.7969 0.247108 1.49553 0.444976 1.2353C0.644114 0.973549 0.894178 0.754816 1.1801 0.592277C1.46603 0.429739 1.7819 0.326763 2.10868 0.289551C2.5461 0.301708 2.97437 0.417646 3.35818 0.627813C3.86544 0.814928 4.40655 0.892567 4.94595 0.855624C6.84667 0.731364 9.89104 0.680739 14.0791 0.70375C19.5557 0.70375 22.913 0.742867 24.151 0.821105C25.0135 0.803868 25.8738 0.727753 26.726 0.593294C27.4619 0.472608 28.2162 0.53666 28.9212 0.779687C29.2652 0.957903 29.5618 1.21557 29.7863 1.53133C30.0108 1.84708 30.1568 2.21181 30.2121 2.59526C30.3179 3.41259 30.2497 4.24303 30.012 5.03214C29.808 5.78366 29.7059 6.55916 29.7082 7.33785C29.8049 11.6685 29.7289 17.5318 29.4804 24.9275C29.462 25.2313 29.4528 25.5834 29.4528 25.9838ZM27.1471 5.07356C27.0747 4.60215 26.9055 4.15085 26.65 3.74812C26.2761 3.39442 25.7839 3.19262 25.2694 3.18204C21.8985 2.83549 18.5094 2.69716 15.1215 2.76785C9.83811 2.81847 6.27829 3.06929 4.44201 3.52031C4.0245 3.65575 3.64728 3.89299 3.34438 4.21064C3.0652 4.49365 2.86729 4.84654 2.7714 5.23233C2.48628 11.2472 2.5762 17.274 3.04063 23.2776C3.04 23.4775 3.08732 23.6746 3.17861 23.8523C3.2699 24.0301 3.4025 24.1834 3.56528 24.2993C3.80656 24.4584 4.08002 24.5621 4.36607 24.6031C6.40946 24.9022 10.1718 25.0012 15.653 24.8999C21.6382 24.8999 24.9449 24.8102 25.5731 24.7135C25.9224 24.6444 26.2645 24.5427 26.5948 24.4098C26.8755 24.2855 27.0274 23.8713 27.0504 23.1672C27.5011 17.1455 27.5334 11.0997 27.1471 5.07356V5.07356ZM13.444 18.1347C13.444 17.9069 13.4923 17.7067 13.5199 17.5272C13.6576 16.2111 13.7083 14.8874 13.6718 13.5647C12.3158 13.5757 10.962 13.6772 9.61951 13.8684C8.40452 14.1169 7.63825 13.9443 7.30689 13.3368C7.20652 13.1141 7.18188 12.8645 7.23673 12.6264C7.29159 12.3883 7.42291 12.1747 7.61064 12.0183C8.09387 11.6179 9.02582 11.4246 10.4134 11.4522C11.4972 11.4522 12.5741 11.4522 13.6303 11.4522C13.6413 10.332 13.5906 9.21192 13.4785 8.09722C13.4312 7.91242 13.4195 7.72032 13.444 7.53115C12.7122 7.53115 11.9528 7.53114 11.1728 7.6416C10.2436 7.71393 9.32087 7.85235 8.41142 8.0558C7.43115 8.31122 6.88579 8.13174 6.78224 7.53115C6.75806 7.27859 6.79009 7.02382 6.87602 6.78511C6.96196 6.5464 7.09967 6.32967 7.27928 6.15048C7.58872 5.8094 7.98291 5.5563 8.42182 5.41686C8.86074 5.27743 9.32873 5.25664 9.77828 5.3566C10.7862 5.43023 12.6547 5.45554 15.3838 5.43253L20.0435 5.28756C22.2664 5.1564 23.4124 5.39802 23.4952 5.9779C23.4924 6.25321 23.4292 6.52455 23.3099 6.77269C23.1906 7.02083 23.0182 7.2397 22.8049 7.41379C22.4149 7.76431 21.9332 7.99654 21.4161 8.08334C20.8989 8.17014 20.3678 8.10791 19.8848 7.90393C19.0108 7.65282 18.1084 7.51364 17.1994 7.48973C16.9697 7.46861 16.7387 7.46861 16.509 7.48973C16.509 7.66772 16.4951 7.84543 16.4676 8.02128C16.3117 9.16485 16.2493 10.3192 16.2812 11.4729C17.5169 11.4729 18.7457 11.4729 19.9538 11.4729C21.3345 11.4729 22.2388 11.5972 22.6461 11.9217C22.7683 12.0669 22.8473 12.2436 22.8742 12.4315C22.901 12.6194 22.8746 12.8111 22.798 12.9848C22.6668 13.3852 22.1422 13.5854 21.2033 13.5854C19.413 13.5117 17.7838 13.4749 16.3157 13.4749C16.3434 15.8635 16.394 17.2971 16.4676 17.7757V18.0794C17.9127 18.0794 19.6316 18.1301 21.6244 18.2313C21.49 18.0268 21.4224 17.7856 21.4311 17.541C21.3552 16.8506 21.2792 16.3191 21.2033 15.9187C21.1662 15.6483 21.2069 15.3729 21.3207 15.1248C21.4856 14.928 21.7023 14.781 21.9462 14.7005C22.1901 14.6201 22.4516 14.6092 22.7013 14.6692C22.8456 14.6788 22.9865 14.7169 23.116 14.7811C23.2456 14.8454 23.3611 14.9346 23.456 15.0437C23.551 15.1527 23.6234 15.2794 23.6693 15.4166C23.7151 15.5537 23.7333 15.6985 23.723 15.8428C23.6379 16.1682 23.5224 16.4848 23.3778 16.7885C23.2536 17.037 23.1431 17.251 23.0396 17.4236C22.8371 17.8332 22.6852 18.1232 22.584 18.2934C22.8367 18.2727 23.0906 18.2727 23.3433 18.2934C23.8772 18.2934 24.3811 18.3073 24.8552 18.3349C25.6421 18.4108 26.084 18.5696 26.1806 18.825C26.2772 19.0804 25.87 19.6672 25.083 20.5992C24.6881 20.9902 24.2185 21.2977 23.7023 21.5035C22.9994 21.6977 22.251 21.6441 21.583 21.3516C20.8643 21.0165 20.1154 20.7507 19.3463 20.5577C17.9451 20.1633 16.5134 19.8862 15.0662 19.7293C13.8582 19.8536 12.5189 20.0469 11.0554 20.2954C9.80357 20.4951 8.58149 20.8499 7.41734 21.3516C6.10571 21.8072 5.2566 21.9177 4.87692 21.6899C4.70449 21.6221 4.55538 21.5059 4.44758 21.3552C4.33978 21.2045 4.2779 21.0258 4.26942 20.8408C4.28027 20.5108 4.36609 20.1877 4.52038 19.8958C4.67468 19.604 4.8934 19.3511 5.15995 19.1564C5.74612 18.6223 6.49516 18.3012 7.28618 18.2451C8.83713 18.1669 10.8897 18.1301 13.444 18.1347Z" fill="#333333"/>
<path d="M41.236 7.86253C39.7932 7.93847 38.737 8.02821 38.0535 8.13176C36.9904 8.18008 36.376 7.96609 36.1966 7.48976C36.1218 7.20864 36.1247 6.91251 36.205 6.63292C36.2852 6.35332 36.4398 6.10071 36.6522 5.90199C36.9702 5.56132 37.3694 5.30669 37.8124 5.16185C38.2554 5.017 38.7278 4.98664 39.1857 5.07359C39.7704 5.20802 40.367 5.28432 40.9668 5.3014C41.8297 5.3014 42.7616 5.3014 43.7695 5.33591C43.6736 4.53821 43.4176 3.76808 43.017 3.07162C42.4096 2.09135 42.2301 1.3734 42.4855 0.91778C42.7409 0.46216 43.4796 0.365512 44.5565 0.614032C45.5091 0.821132 45.9372 1.55979 45.8405 2.84381C45.7696 3.64428 45.5908 4.4315 45.309 5.18404L45.233 5.37043C45.8681 5.37043 46.4963 5.37043 47.1314 5.37043C47.7476 5.30316 48.367 5.46537 48.8711 5.82605C49.0587 5.96793 49.1861 6.17505 49.2283 6.40643C49.2705 6.63781 49.2243 6.8766 49.0989 7.07555C48.8469 7.36529 48.5219 7.58217 48.1577 7.70359C47.7934 7.82501 47.4033 7.84652 47.0279 7.76588C44.7912 7.72446 42.8514 7.78659 41.236 7.86253ZM38.0535 21.2274C38.0185 20.5489 38.1613 19.8731 38.4677 19.2668C38.5915 19.1045 38.753 18.975 38.9384 18.8896C39.1237 18.8041 39.3271 18.7654 39.5309 18.7767C40.0831 18.8526 40.5526 18.901 40.9115 18.9286C41.6433 18.8526 42.9825 18.7974 44.9983 18.7767C45.8174 18.6919 46.6441 18.8353 47.3869 19.1909C47.5488 19.2764 47.6921 19.3933 47.8085 19.5347C47.9248 19.6761 48.0119 19.8393 48.0645 20.0147C48.1172 20.1901 48.1345 20.3742 48.1153 20.5563C48.0962 20.7384 48.041 20.9149 47.9529 21.0755C47.8461 21.4569 47.8087 21.8544 47.8425 22.2491C47.8425 22.4217 47.8425 22.6633 47.8425 22.9394C47.8371 23.5749 47.7081 24.2033 47.4628 24.7895C47.2537 25.2786 46.88 25.6792 46.4066 25.9217C45.8057 26.2473 45.1143 26.3662 44.4391 26.2599C43.6568 26.1864 42.8706 26.161 42.0851 26.184C41.6392 26.1876 41.1949 26.2385 40.7597 26.3359C40.1289 26.5556 39.4383 26.5285 38.8267 26.2599C38.378 25.9562 38.1364 25.0035 38.1364 23.395C38.1157 22.5114 38.0743 21.7866 38.0535 21.2274ZM44.7912 14.545C46.1719 14.545 47.0762 14.6761 47.4835 15.0006C47.6074 15.1436 47.6875 15.3191 47.7144 15.5064C47.7414 15.6936 47.7139 15.8847 47.6354 16.0568C47.5111 16.4572 46.945 16.6643 46.0407 16.6643C44.7843 16.6643 43.6798 16.6643 42.7478 16.6643C42.013 16.6832 41.28 16.7454 40.5526 16.8507C39.3376 17.1061 38.5713 16.9266 38.2399 16.326C38.1413 16.1018 38.1176 15.8518 38.1723 15.613C38.227 15.3742 38.3573 15.1595 38.5437 15.0006C39.0269 14.6002 39.9244 14.4138 41.3464 14.4345L44.7912 14.545ZM44.9431 10.1682C46.3237 10.1682 47.2281 10.2925 47.6354 10.6239C47.7585 10.7673 47.8381 10.9428 47.865 11.1299C47.8919 11.3169 47.865 11.5078 47.7872 11.6801C47.663 12.0805 47.1314 12.2807 46.1926 12.2807C44.9293 12.3359 43.8316 12.3704 42.8997 12.398C41.9677 12.4256 41.3326 12.5568 40.7044 12.6604C39.4894 12.9089 38.7232 12.7363 38.3918 12.1288C38.2926 11.9058 38.2686 11.6566 38.3234 11.4188C38.3782 11.1809 38.5088 10.9674 38.6956 10.8103C39.1788 10.4099 40.1107 10.2166 41.4983 10.2442L44.9431 10.1682ZM44.2527 23.7954C44.418 23.784 44.5819 23.7586 44.7429 23.7195C44.95 23.5676 45.0328 23.0292 45.0121 22.0972C45.0666 21.6938 44.9865 21.2838 44.7843 20.9305C44.0957 20.7365 43.3773 20.671 42.665 20.7372C42.075 20.7313 41.4871 20.808 40.9184 20.9651C40.7942 21.0663 40.732 21.5703 40.732 22.4769C40.6741 22.9427 40.7261 23.4155 40.8839 23.8576C41.1382 23.948 41.411 23.9741 41.6778 23.9335C42.6857 23.8368 43.5417 23.7954 44.2251 23.7954H44.2527ZM56.0022 12.9641C57.4726 12.9089 58.4046 13.0746 58.805 13.4542C58.9443 13.5948 59.0374 13.7745 59.0719 13.9694C59.1064 14.1643 59.0807 14.3651 58.9983 14.545C58.8188 14.973 58.2665 15.187 57.3277 15.187C56.8996 15.187 56.4993 15.187 56.1196 15.2284C56.1196 15.5528 56.0782 16.0706 56.0782 16.7747C56.0782 17.7826 56.1334 18.3763 56.1541 18.5489V18.6248C56.7331 18.5487 57.3166 18.5118 57.9006 18.5144C58.5428 18.4537 59.1886 18.5833 59.7576 18.8872C60.0821 19.2185 60.1304 19.5292 59.9095 19.8329C59.741 20.0627 59.5173 20.2464 59.2591 20.367C59.001 20.4876 58.7166 20.5414 58.4322 20.5232C56.9945 20.656 55.5655 20.8704 54.1521 21.1653C52.9486 21.4501 51.7691 21.8287 50.6245 22.2974C50.5247 22.3695 50.4109 22.4201 50.2905 22.446C50.1701 22.4719 50.0456 22.4726 49.925 22.4479C49.8043 22.4233 49.69 22.3738 49.5894 22.3028C49.4888 22.2317 49.4041 22.1406 49.3405 22.0351C49.1935 21.8104 49.1152 21.5477 49.1152 21.2792C49.1152 21.0106 49.1935 20.7479 49.3405 20.5232C49.4703 20.186 49.6844 19.8877 49.9624 19.6569C50.2404 19.426 50.5729 19.2703 50.9283 19.2047C51.7529 19.0369 52.5877 18.9239 53.4273 18.8664C53.4273 18.6662 53.4825 18.473 53.5032 18.3004C53.5684 17.7737 53.5822 17.242 53.5446 16.7126C53.5446 16.0223 53.4894 15.5667 53.4687 15.3319C53.0853 15.3489 52.7041 15.3997 52.3296 15.4838C51.0456 15.7323 50.2586 15.5459 49.9066 14.9177C49.7871 14.6855 49.7556 14.4179 49.8177 14.1642C49.8799 13.9105 50.0316 13.6878 50.2448 13.5371C50.7281 13.0884 51.7014 12.8951 53.1649 12.971C54.2004 12.9388 55.1462 12.9365 56.0022 12.9641ZM49.5269 9.55385C49.4551 9.28182 49.4562 8.99568 49.5301 8.72422C49.604 8.45275 49.7482 8.20556 49.948 8.00751C50.2538 7.68508 50.6369 7.4461 51.0609 7.31321C51.485 7.18031 51.9359 7.15792 52.3711 7.24813C53.3961 7.43743 54.4353 7.53905 55.4776 7.55188H59.1501C59.1018 7.04794 59.0604 6.55781 59.0328 6.08148C58.8326 3.6377 58.8188 2.18109 58.9983 1.69785C59.0578 1.49588 59.1764 1.31633 59.3388 1.18225C59.5012 1.04817 59.6999 0.965693 59.9095 0.945394C60.1946 0.911753 60.4837 0.945442 60.7534 1.04375C61.0232 1.14206 61.2661 1.30225 61.4628 1.51147C62.015 2.04532 62.0887 3.0279 61.6837 4.45919C61.4242 5.47016 61.2851 6.50826 61.2695 7.55188H66.1915C66.7808 7.48794 67.3736 7.63735 67.8621 7.97299C68.0405 8.11011 68.1593 8.31057 68.194 8.53287C68.2287 8.75517 68.1766 8.9823 68.0485 9.16726C67.8159 9.44107 67.5129 9.6462 67.1723 9.76055C66.8317 9.8749 66.4663 9.89413 66.1156 9.81618H61.3454C61.6824 13.9068 63.3285 17.7799 66.0397 20.8615C67.3787 22.5103 69.1323 23.7731 71.1205 24.5203C72.0041 24.8723 72.1767 25.2865 71.6452 25.7698C70.6594 26.5129 69.4745 26.9455 68.2418 27.0124C67.7002 27.0368 67.1605 26.9332 66.6663 26.7101C66.1722 26.4871 65.7376 26.1507 65.3977 25.7284C64.2437 24.0595 63.2433 22.2896 62.4085 20.4404C61.3273 18.1773 60.5141 15.7956 59.9854 13.3438C59.7576 12.2116 59.5505 11.0312 59.3779 9.79547H56.4993C54.1728 9.91973 52.4332 10.0371 51.2734 10.1337C50.2863 10.2304 49.7064 10.0302 49.5269 9.55385ZM66.7852 1.86354C67.3444 2.26393 67.4756 2.70574 67.2754 3.18207C67.0318 3.72281 66.6847 4.21062 66.2537 4.61797C65.9499 4.94933 65.6738 5.25998 65.4253 5.56373C64.8661 6.14361 64.4657 6.35761 64.2103 6.20574C63.9549 6.05386 63.8375 5.65347 63.9963 5.1081C64.3483 4.17615 64.6176 3.40988 64.7902 2.80929C64.8751 2.37938 65.1223 1.99867 65.4805 1.74618C65.6888 1.63867 65.9233 1.59263 66.1568 1.61341C66.3903 1.63419 66.613 1.72094 66.799 1.86354H66.7852Z" fill="#333333"/>
<path d="M109.718 19.7225C109.316 20.44 108.803 21.0899 108.199 21.6485C107.886 21.9474 107.488 22.1407 107.059 22.2013C106.631 22.262 106.194 22.187 105.811 21.9868C104.251 21.2732 102.635 20.6913 100.979 20.2472C99.0282 19.8733 97.0532 19.6426 95.0693 19.5568C92.455 19.4553 89.8371 19.4944 87.2271 19.6742C85.3674 19.8253 83.5215 20.1137 81.7044 20.5371C80.6235 20.8521 79.5706 21.2562 78.5565 21.7452C77.4473 22.279 76.5775 22.2307 75.947 21.6002C75.4868 20.9421 75.6387 20.1229 76.4026 19.1426C76.6673 18.7979 77.0133 18.5242 77.4097 18.3459C77.806 18.1676 78.2403 18.0903 78.6738 18.1209C80.5481 18.147 82.4218 18.0339 84.2793 17.7827C86.3414 17.5383 88.4159 17.4138 90.4923 17.4099C90.4923 17.258 90.5407 17.1061 90.5683 16.9543C90.6985 16.1301 90.7608 15.2966 90.7547 14.4622C89.7293 14.4226 88.7026 14.4851 87.6896 14.6485C86.7692 14.782 85.9477 14.9201 85.2251 15.0627C84.0653 15.3182 83.2853 15.256 82.878 14.8764C82.7705 14.7769 82.6855 14.6556 82.6286 14.5207C82.5717 14.3857 82.5444 14.2402 82.5483 14.0938C82.5522 13.9474 82.5873 13.8035 82.6513 13.6718C82.7153 13.5401 82.8067 13.4236 82.9194 13.33C83.2715 12.9296 84.0308 12.6397 85.1906 12.5775C87.0544 12.4149 88.9255 12.3504 90.7961 12.3843V10.0164C88.2695 10.0647 86.5436 10.2925 85.6048 10.7067C85.4015 10.8509 85.1567 10.9249 84.9075 10.9174C84.6584 10.91 84.4184 10.8215 84.2241 10.6653C83.7158 10.1078 83.3509 9.43492 83.161 8.70478C82.8227 6.69035 82.3616 4.69847 81.7803 2.7403C81.6165 2.4813 81.526 2.18262 81.5187 1.87621C81.5114 1.5698 81.5875 1.26717 81.7389 1.00066C82.091 0.545042 82.802 0.310328 83.8582 0.310328V0.268905C84.949 0.192968 85.9292 0.144649 86.7784 0.117036C89.733 -0.00722413 92.851 -0.0325368 96.1324 0.0410988C98.3276 0.0687121 99.8049 0.271208 100.564 0.64859C101.055 0.868207 101.482 1.20769 101.807 1.63577C102.035 2.01545 101.959 2.55391 101.579 3.25805C101.331 3.86554 101.054 4.63872 100.751 5.56377C100.447 6.72353 100.205 7.76593 100.06 8.69788C99.829 9.44225 99.3129 10.0651 98.6245 10.4306C98.0405 10.6947 97.3801 10.7364 96.7675 10.548C95.6595 10.2249 94.5114 10.0599 93.3572 10.0578V12.3566C95.1981 12.3843 97.2691 12.4717 99.5702 12.619C100.226 12.619 100.64 12.8123 100.82 13.116C100.952 13.4534 100.967 13.8255 100.861 14.1722C100.804 14.3573 100.711 14.5291 100.586 14.6774C100.462 14.8256 100.309 14.9473 100.136 15.0351C99.9865 15.1134 99.8224 15.1605 99.6539 15.1736C99.4855 15.1866 99.3161 15.1654 99.156 15.1111C97.8168 14.8902 96.6018 14.6969 95.518 14.545C94.8143 14.4664 94.1067 14.4295 93.3986 14.4345C93.4134 15.3576 93.4756 16.2792 93.585 17.1959V17.3063C94.2754 17.3063 94.8829 17.3063 95.518 17.3478C99.1998 17.5226 103.77 17.9829 109.228 18.7284C109.877 18.8527 110.043 19.1633 109.718 19.7225ZM83.8582 21.5312C84.1242 21.4857 84.3978 21.5286 84.6371 21.6533C84.8765 21.7779 85.0684 21.9775 85.1837 22.2215C85.305 22.4447 85.3782 22.691 85.3984 22.9443C85.4186 23.1975 85.3855 23.4523 85.301 23.6919C85.1518 24.1719 84.8423 24.5862 84.4243 24.8655C83.3428 25.6433 82.3717 26.3727 81.5111 27.0538C81.3225 27.2255 81.0758 27.3192 80.8208 27.3162C80.6183 27.3162 80.5562 27.1781 80.6344 26.902C80.7225 26.6182 80.7848 26.3271 80.8208 26.0321C81.1724 24.8411 81.6346 23.6855 82.2014 22.5805C82.3628 22.2768 82.6004 22.0204 82.8909 21.8365C83.1814 21.6525 83.5148 21.5473 83.8582 21.5312V21.5312ZM84.8799 4.05193C86.8321 4.27437 88.7983 4.34821 90.7616 4.27284C90.7063 3.38921 90.6718 2.76101 90.6442 2.38133C90.6367 2.28252 90.6367 2.18329 90.6442 2.08448C88.95 2.05875 87.2558 2.13251 85.5703 2.30539C85.297 2.27835 85.0241 2.36022 84.8109 2.5332C84.6602 2.73152 84.58 2.97448 84.5831 3.22354C84.5831 3.47206 84.5831 3.74819 84.5831 4.05193C84.6759 4.02797 84.7733 4.02797 84.8661 4.05193H84.8799ZM84.9145 6.16435C85.0186 6.75178 85.1569 7.33265 85.3287 7.90399C85.4063 8.07998 85.5398 8.22552 85.7083 8.31819C85.9221 8.42346 86.1627 8.46194 86.3987 8.42864C87.9634 8.30438 89.4269 8.23075 90.7892 8.20774V5.93655C87.7195 5.99177 85.7567 6.06771 84.9006 6.16435H84.9145ZM88.7458 21.6071C88.9084 21.4502 89.1138 21.3448 89.3361 21.3043C89.5584 21.2637 89.7878 21.2898 89.9953 21.3793C90.2132 21.457 90.4111 21.5821 90.5747 21.7457C90.7382 21.9093 90.8634 22.1072 90.9411 22.3251C91.0677 22.7278 91.082 23.1574 90.9825 23.5677C90.6994 24.6998 90.4509 25.7353 90.2231 26.6673C90.169 26.8655 90.0643 27.0462 89.9194 27.1919C89.7675 27.2678 89.6432 27.1919 89.5397 27.0469C89.4361 26.902 89.2981 26.5499 89.2014 26.3566C88.7873 25.3667 88.4571 24.3437 88.2142 23.2984C88.1525 22.9957 88.1675 22.6823 88.2579 22.3869C88.3483 22.0915 88.5113 21.8234 88.732 21.6071H88.7458ZM93.3227 5.90203V8.16632C94.4087 8.11695 95.4967 8.13078 96.5811 8.20774C96.9397 8.25435 97.3043 8.2141 97.6442 8.09038C97.7883 8.01629 97.9153 7.91281 98.017 7.78663C98.1689 7.21366 98.2931 6.65449 98.3967 6.12984C96.7083 5.93289 95.0081 5.85676 93.3089 5.90203H93.3227ZM98.8454 4.05193C98.9006 3.62393 98.9627 3.24424 99.0387 2.91979C99.0828 2.79147 99.08 2.65166 99.0307 2.52524C98.9814 2.39883 98.8888 2.29401 98.7694 2.22945C98.2848 2.0592 97.7695 1.99333 97.2576 2.03616C95.946 2.03616 94.7448 2.03616 93.661 2.03616C93.6321 2.12056 93.6181 2.20931 93.6196 2.29849C93.4718 2.94398 93.3954 3.60375 93.3917 4.26594C96.3003 4.2015 98.1044 4.13017 98.804 4.05193H98.8454ZM94.4134 21.7176C94.5628 21.541 94.7623 21.4141 94.9855 21.3537C95.2087 21.2933 95.445 21.3022 95.6629 21.3793C95.8825 21.4406 96.087 21.5464 96.264 21.6901C96.4409 21.8338 96.5865 22.0123 96.6915 22.2146C96.8234 22.6029 96.875 23.0139 96.8434 23.4227C96.6363 24.4996 96.4844 25.4937 96.3878 26.4394C96.3663 26.6584 96.2878 26.8679 96.16 27.0469C96.1225 27.0654 96.0817 27.0762 96.0399 27.0785C95.9982 27.0809 95.9564 27.0748 95.9171 27.0606C95.8778 27.0464 95.8418 27.0244 95.8111 26.996C95.7805 26.9676 95.7559 26.9332 95.7389 26.8951C95.6146 26.6696 95.4766 26.4394 95.3247 26.2047C94.8394 25.317 94.4218 24.3939 94.0752 23.4434C93.9795 23.1534 93.9565 22.8444 94.0083 22.5434C94.0601 22.2425 94.185 21.9589 94.372 21.7176H94.4134ZM99.6462 22.7393C99.7417 22.4904 99.9148 22.2789 100.14 22.1359C100.365 21.993 100.63 21.9262 100.896 21.9454C101.406 21.9465 101.897 22.1358 102.276 22.4769C102.563 22.8051 102.746 23.2112 102.801 23.6436C102.98 24.831 103.146 25.8872 103.298 26.8191C103.358 27.0714 103.331 27.3364 103.222 27.5716C103.098 27.7235 102.946 27.7235 102.766 27.5716C102.55 27.3558 102.32 27.1551 102.076 26.971C101.264 26.2826 100.515 25.5225 99.8395 24.6998C99.6367 24.42 99.5087 24.0931 99.4676 23.75C99.4265 23.4069 99.4737 23.059 99.6047 22.7393H99.6462Z" fill="#333333"/>
<path d="M133.727 12.8883C133.303 12.5133 132.814 12.2186 132.284 12.0184V20.3646C134.484 20.2587 135.961 20.1943 136.716 20.1713C139.015 20.047 140.216 20.2955 140.32 20.9306C140.33 21.218 140.274 21.5039 140.154 21.7653C140.034 22.0267 139.854 22.2563 139.629 22.4356C139.217 22.7986 138.71 23.0373 138.168 23.1241C137.625 23.2108 137.069 23.1421 136.564 22.9257C135.555 22.6243 134.51 22.4594 133.458 22.4356C133.078 22.4149 132.698 22.4149 132.319 22.4356C132.319 23.1259 132.374 23.6851 132.395 24.1338C132.546 25.8734 132.312 27.0539 131.704 27.689C131.283 28.186 130.724 28.0894 130.027 27.3853C129.705 26.9573 129.594 26.0874 129.695 24.7758C129.695 23.9957 129.695 23.2295 129.695 22.477C128.695 22.4766 127.695 22.5273 126.699 22.6289C125.638 22.6858 124.586 22.85 123.558 23.119C122.571 23.3675 122.005 23.1811 121.853 22.5529C121.819 22.2822 121.85 22.0073 121.942 21.7506C122.034 21.4939 122.186 21.2626 122.385 21.0756C122.711 20.7214 123.124 20.4587 123.583 20.3134C124.042 20.1681 124.531 20.1452 125.001 20.2472C126.577 20.3678 128.157 20.4069 129.737 20.3646V12.4741C128.286 14.3472 126.62 16.0433 124.773 17.5273C122.776 19.2075 120.575 20.6293 118.222 21.759C116.683 22.3596 115.564 22.5391 114.888 22.2837C114.211 22.0283 113.866 21.5174 114.018 20.903C114.17 20.2886 114.812 19.7709 116.02 19.2462C119.075 18.0254 121.965 16.4251 124.621 14.4829C126.629 13.0525 128.298 11.1976 129.509 9.05C129.526 8.90602 129.592 8.7722 129.695 8.67032V7.97999C127.202 7.96462 124.718 8.28269 122.309 8.92574C120.59 9.40207 119.547 9.40207 119.126 8.92574C118.958 8.65909 118.869 8.35037 118.869 8.03521C118.869 7.72006 118.958 7.41133 119.126 7.14469C119.354 6.77008 119.655 6.44506 120.01 6.18891C120.366 5.93276 120.77 5.75071 121.197 5.65356C122.275 5.48138 123.369 5.44427 124.456 5.54311C124.911 5.59143 125.629 5.61904 126.616 5.61904C127.604 5.61904 128.632 5.61904 129.647 5.61904V2.73345C129.543 1.57369 129.695 0.828134 130.103 0.503677C130.841 -0.0762026 131.442 -0.0900114 131.904 0.469159C132.198 0.850329 132.411 1.28767 132.53 1.75425C132.649 2.22084 132.671 2.70678 132.595 3.18217C132.519 3.96225 132.47 4.78375 132.443 5.63976C135.549 5.61215 138.706 5.59834 141.914 5.59834C143.15 5.59834 143.723 5.82615 143.619 6.28867C143.516 6.75119 142.964 7.35868 142.032 7.98689C141.253 8.36536 140.366 8.45821 139.526 8.24922C137.152 7.94947 134.757 7.84787 132.367 7.94547C132.367 8.29754 132.367 8.67722 132.367 9.07762C132.643 9.36065 133.023 9.71963 133.506 10.1752C136.635 12.7627 139.908 15.1712 143.309 17.3892C144.964 18.5068 146.712 19.4791 148.535 20.2955C149.542 20.5924 149.749 21.0618 149.142 21.6762C148.369 22.3654 147.448 22.8684 146.45 23.1466C146.049 23.3081 145.605 23.3277 145.192 23.2021C144.779 23.0765 144.421 22.8133 144.179 22.4563C140.644 18.8942 137.16 15.7048 133.727 12.8883Z" fill="#333333"/>
</svg>
