<svg width="20" height="20" viewBox="0 0 20 20" fill="none" xmlns="http://www.w3.org/2000/svg">
<circle cx="10" cy="10" r="10" fill="#FC9C9C"/>
<path fill-rule="evenodd" clip-rule="evenodd" d="M12.6399 9.76947C12.779 9.92405 12.8571 10.1336 12.8571 10.3521C12.8571 10.5705 12.779 10.7801 12.6399 10.9347L9.83932 14.0444C9.69998 14.199 9.51103 14.2858 9.31403 14.2857C9.11703 14.2857 8.92812 14.1988 8.78885 14.0441C8.64958 13.8894 8.57136 13.6797 8.57141 13.461C8.57146 13.2424 8.64976 13.0327 8.78909 12.8781L11.0648 10.3521L8.78909 7.82603C8.65373 7.67061 8.57878 7.4624 8.58038 7.24624C8.58198 7.03008 8.66 6.82326 8.79765 6.67033C8.93529 6.5174 9.12154 6.4306 9.31628 6.42862C9.51103 6.42664 9.69868 6.50964 9.83882 6.65975L12.6404 9.76892L12.6399 9.76947Z" fill="white"/>
</svg>
