<svg width="13" height="13" viewBox="0 0 13 13" fill="none" xmlns="http://www.w3.org/2000/svg">
<circle cx="6.49997" cy="6.50003" r="6.50003" transform="rotate(90 6.49997 6.50003)" fill="#FC9C9C"/>
<path fill-rule="evenodd" clip-rule="evenodd" d="M7.02358 8.79727C6.88586 8.92708 6.69918 9 6.50454 9C6.3099 9 6.12322 8.92708 5.9855 8.79727L3.21502 6.18338C3.0773 6.05333 2.99995 5.87698 3 5.69311C3.00005 5.50924 3.07748 5.33292 3.21527 5.20294C3.35305 5.07296 3.53991 4.99996 3.73472 5C3.92954 5.00004 4.11635 5.07313 4.25407 5.20317L6.50454 7.32719L8.75501 5.20317C8.89347 5.07683 9.07897 5.00688 9.27155 5.00837C9.46413 5.00986 9.64838 5.08269 9.78463 5.21115C9.92087 5.33962 9.99821 5.51346 9.99997 5.69521C10.0017 5.87697 9.92779 6.05212 9.79406 6.18292L7.02407 8.79773L7.02358 8.79727Z" fill="white"/>
</svg>
